<?xml version="1.0" encoding="utf-8"?>
<svg viewBox="106.034 45.517 441.38 327.587" width="441.38" height="327.587" xmlns="http://www.w3.org/2000/svg">
  <defs>
    <clipPath id="clippath">
      <rect x="8.33" y="18.51" width="493.36" height="367.95" style="fill:none;"/>
    </clipPath>
  </defs>
  <g id="diseño" transform="matrix(0.911886, 0, 0, 0.916709, 94.584579, 23.656757)" style="">
    <rect x="8.33" y="17.589" width="493.317" height="369.127" style="fill:#35ae9f;"/>
    <g style="clip-path:url(#clippath);">
      <path d="m241.22,370.43s-63.09-1.37-75.48-7.88-27.8-21.81-29.3-25.65-8.48-19.6-8.78-21.09-2.49-7.55-2.49-7.55c0,0-2.56-12.47-2.56-26.88s2.38-17.61,1.75-23.15-2.13-19.92-13.27-28.86-26.36-22.53-28.6-27.93-4.64-9.75-7.45-7.91-14.08,7.32-14.08,7.32c0,0,.56,5.29-2.51,7s-8.39,1.82-8.23,4.94-1.27,10.6-7.17,10.59-15.08-3.6-17.91-12.93-3.99-15.08,0-18.4,5.55.31,7.66-7.56,9.73-9.12,9.73-9.12c0,0,4.29,1.41,4.29-2.33s.01-18.49,10.85-20.05,15.64,10.34,15.64,10.34l5.43,13.43,5.43,2.54s4.24.02,4.04-2.15,6-13.04,13.28-12.12,14.66,4.98,12.99,10.05-8.49,10.65-8.49,10.65c0,0-6.66,3.43-7.34,8.69s-1.09,17.01,10.28,23.99,18.07,13.13,19.13,19.63,10.07,17.95,10.07,17.95c0,0,8.07,4.88,6.38,12.95s-10.29,37.51,6.96,49.17,34.81-8.04,34.81-8.04c0,0,9-8.35,13.46-6.72s7.72,7.14,1.08,12.14-18.21,8.07-18.58,10.51,7.17,3.71,7.17,3.71c0,0,13.26,2.29,24.06-2.65s24.96-13.62,45.67-12.97,47.8,9.65,60.53,25.8c0,0,24.37-8.21,38.26-1.85s-.12,31.27-.12,31.27l-116.61,1.12Z" style="fill:#f2dab2;"/>
      <path d="m80.25,257.49s-1.95,2.28,3.57,9.49,12.31,19.57,14.45,12.83-.11-31.52-3.49-32.83-12.18.75-14.54,10.51Z" style="fill:#f2dab2;"/>
      <path d="m291.76,294.46s-18.1,6.58-25.04,9.68-21.82.49-25.5-1.59-13.37-4.64-17.35-6.27-19.87-10.07-22.24-19.83-6.75-25.5,11.72-29.45c0,0-9.13-18.71-5.42-28.12s9.01-17.18,20.41-16.19,21.7,7.86,28.17,7.59,17.2-8.49,21.83-13.53,17.08-4.77,19.81-2.3,11.33,20.97,11.33,20.97c0,0,13.3,10.2,15.95,12.92s7.64,14.14,1.44,17.59-16.04,11.24-28.29-2.13-12.57-24.64-12.57-24.64c0,0-19.25-6.34-22.06,4.22s-4.59,10.49-4.41,13.2,4.29,21.86,16.17,20.94,18.06-12.74,25.44-9.78,10.66,12.85,10.52,15.72,6.67,20.77-19.92,31.01Z" style="fill:#f2dab2;"/>
      <path d="m483.97,202.81c-5.36-.6-5.18-2.66-5.32-9.36-.14-6.7-5.66-8.61-9.78-9.94-4.13-1.33-3.62-3.48-3.62-3.48,0,0,1.72-14.51-9.47-18.59-11.19-4.08-18.85,13.48-21.19,19.2-2.34,5.72-6.55,6.76-8.09,8.21-1.53,1.46-4.97,4.69-5.99,4.25-1.02-.44-3.94-.82-10.14,4.88-6.19,5.71-4.36,9.78-2.82,17.38s6.48,14.36,12.11,17.28c5.63,2.92,5.35,7.92,7.32,13.33.68,1.88,2.42,3.45,4.74,4.74-1.76,3.86-1.87,9.64.09,13.51,3.01,5.92,6.99,18.3,9.93,22.19s6.28-6.99,6.28-6.99c0,0,4.92-13.36,6.32-21.54.22-1.26.05-2.42-.4-3.48,6.3-2.27,10.99-8.47,10.99-8.47,0,0,1.2-5.59,2.16-9.27.96-3.67,6.05-2.86,11.67-3.46,5.62-.6,12.77-14.05,12.77-14.05,0,0,5.12-14.93-7.58-16.34Z" style="fill:#f2dab2;"/>
      <path d="m276.48,287.96s-10.46,3.42-18.15,3.84-22.38-1.82-20.98-4.85,13.5-6.99,23.64-5.22,15.49,6.24,15.49,6.24Z" style="fill:#f3b760;"/>
      <path d="m55.85,286.43c-2.13,0-4.09.93-5.7,2.51-2.42-3.67-5.93-5.99-9.84-5.99-7.31,0-13.24,8.07-13.24,18.02s5.93,18.02,13.24,18.02c4.36,0,8.22-2.89,10.63-7.32,1.44,1.14,3.11,1.81,4.9,1.81,5.44,0,9.85-6.05,9.85-13.52s-4.41-13.52-9.85-13.52Z" style="fill:#f2dab2;"/>
      <path d="m346.43,48.64c-3.76,0-7.23,1.21-10.07,3.24-3.32-6.03-9.73-10.11-17.1-10.11-10.78,0-19.51,8.74-19.51,19.51,0,8.72,5.72,16.1,13.61,18.6-.7,1.74-1.09,3.63-1.09,5.62,0,8.37,6.78,15.15,15.15,15.15s15.15-6.78,15.15-15.15c0-.92-.1-1.82-.25-2.69,1.32.32,2.69.51,4.11.51,9.58,0,17.34-7.76,17.34-17.34s-7.76-17.34-17.34-17.34Z" style="fill:#f2dab2;"/>
      <path d="m450.64,138.75c-12.22,0-22.13-9.91-22.13-22.13,0,12.22-9.91,22.13-22.13,22.13,12.22,0,22.13,9.91,22.13,22.13,0-12.22,9.91-22.13,22.13-22.13Z" style="fill:#f2dab2;"/>
      <path d="m116.32,119.3c-12.22,0-22.13-9.91-22.13-22.13,0,12.22-9.91,22.13-22.13,22.13,12.22,0,22.13,9.91,22.13,22.13,0-12.22,9.91-22.13,22.13-22.13Z" style="fill:#f2dab2;"/>
      <path d="m123.59,360.32c3.61,5.15,8.38,9.82,13.84,13.02,1.85,1.11,3.81,1.94,5.7,3.12,1,.6.41,2.21-.74,2.02-6.89-1.21-12.68-5.95-17.39-10.88-1.58-1.76-2.97-3.51-4.23-5.56-.47-.78-.22-1.79.56-2.26.78-.47,1.79-.22,2.26.54h0Z" style="fill:#eeaa3c;"/>
      <path d="m390.64,362.04c-3.7,5.93-8.94,10.8-15.07,14.14-2.01,1.15-4.26,1.94-6.57,2.25-.57.08-1.09-.32-1.17-.89-.06-.44.17-.85.54-1.06,1.87-1.19,3.78-2.04,5.61-3.15,5.46-3.2,10.21-7.88,13.85-13,1.17-1.8,3.88-.14,2.82,1.72h0Z" style="fill:#eeaa3c;"/>
      <path d="m225.09,233.57l6.18,2.1c1.34.45,1.62,2.06.57,3.24l-4.82,5.43c-.65.73-.83,1.69-.43,2.41,2.56,4.64,6.46,7.15,10.23,6,5.42-1.65,8.51-10.24,6.91-19.18-1.6-8.94-7.29-14.84-12.71-13.18-3.76,1.15-6.4,5.64-7.13,11.26-.11.88.37,1.63,1.2,1.91Z" style="fill:#222;"/>
      <path d="m278.53,224.27c-3.76-.52-7.48,2.06-9.8,6.28-.36.66-.14,1.45.53,1.99l5.01,4.05c1.08.88.87,2.27-.43,2.81l-5.99,2.5c-.8.34-1.25,1.03-1.1,1.76.97,4.69,3.79,8.19,7.56,8.72,5.42.75,10.75-4.93,11.92-12.69s-2.28-14.66-7.7-15.41Z" style="fill:#222;"/>
      <path d="m331.59,241.64c3.09-9.17-4.26-14.37-12.05-19.88-1.7-1.2-3.46-2.45-5.2-3.78-4.79-3.67-6.57-8.78-8.29-13.73-1.61-4.63-3.13-9-7.07-11.26-11.8-6.77-22.16,1.85-28.93,8.93-6.02,6.29-16.47,9.72-26.26,3.19-7.15-4.77-15.82-6.2-23.19-3.83-6.59,2.12-11.47,6.95-14.11,13.97-4.92,13.06,1.27,25.79,4.17,30.66-2.87.96-7.56,3.4-10.66,9.55-1.97,3.91-4.44,13.94.36,23.88,5.23,10.83,17.11,18.23,35.33,22.01.12.02.23.04.34.04.05,0,.1-.02.14-.03,5.71,4.03,12.66,6.25,19.65,6.27,0,0,.01,0,.02,0,.01,0,.02,0,.03,0,0,0,.02,0,.03,0,0,0,.01,0,.02,0,2.48-.01,4.98-.16,7.42-.72,4.71-.98,9.18-3.05,13.06-5.87,18.05-3.81,29.83-11.18,35.01-21.91,4.75-9.85,2.31-19.79.35-23.67-.88-1.75-1.9-3.2-2.96-4.4,1.15.29,2.31.51,3.48.64,9.05,1.01,16.98-3.12,19.32-10.06Zm-23.21,36.03c-4.16,8.61-13.23,14.89-27,18.71.26-.38.5-.78.71-1.22.51-.98-.71-2.1-1.65-1.48-1.99,1.2-3.61,2.92-5.53,4.23-5.54,3.98-12.26,6.15-19.06,6.36-9.54-.02-17.58-4.14-24.5-10.46-.33-.29-.82-.38-1.23-.14-.95.61-.35,1.82.72,3.06-14.01-3.79-23.24-10.12-27.46-18.85-4.23-8.76-2.1-17.51-.39-20.91,3.78-7.5,10.25-8.28,10.52-8.31.6-.06,1.12-.43,1.37-.98.25-.55.18-1.19-.17-1.67-.11-.15-10.57-14.99-5.08-29.58,2.27-6.03,6.42-10.16,12-11.95,6.41-2.06,14-.78,20.3,3.42,9.88,6.59,22.16,5.12,30.56-3.66,9.64-10.09,17.3-12.66,24.82-8.34,2.85,1.64,4.11,5.26,5.57,9.45,1.79,5.16,3.83,11.01,9.42,15.29,1.79,1.37,3.58,2.64,5.31,3.86,8.36,5.92,12.99,9.58,10.81,16.06-1.83,5.43-8.31,8.64-15.76,7.8-9.37-1.05-19.94-8.36-23.54-25.45,0-.05-.02-.1-.03-.15-.38-1.83-.68-3.77-.89-5.83-.09-.92-.91-1.59-1.84-1.5-.92.09-1.59.92-1.5,1.84.02.21.05.42.07.63-2.37-1.66-5.9-3.02-10.99-2.47-5.12.55-9.55,3.39-12.48,7.99-3.85,6.06-4.63,14.52-2.04,22.08,2.38,6.92,7.36,11.76,13.67,13.28,7.31,1.76,15.49-1.24,23.01-8.45l2.65-1.59c1.64.33,6.8,1.85,10.01,8.23,1.7,3.37,3.81,12.02-.38,20.69Zm-10.84-32.12l-3.34,2c-.11.07-.21.14-.31.23-6.71,6.48-13.83,9.23-20.04,7.73-5.17-1.24-9.28-5.29-11.27-11.1-2.27-6.62-1.63-13.97,1.69-19.19,1.68-2.64,4.78-5.9,10-6.46,8.16-.88,11.16,4.18,11.6,5.02,1.64,7.53,4.7,13.92,9.03,18.7.95,1.05,1.96,2.02,3.02,2.91-.13.04-.27.08-.38.15Z" style="fill:#222;"/>
      <path d="m274.44,266.75c-3.13,1.49-6.08,2.89-8.37,3.38-1.64.35-2.91.16-3.89-.58-1.47-1.11-2.08-3.33-2.27-4.6.11-1.37.35-2.55.84-2.64,1.22-.21,2.12,3.27,4.58,3.16,2.45-.11,4.01-4.75.03-7.81-3.98-3.06-11.16-2.51-11.16-2.51h0c-1.93.05-5.15.46-7.76,2.43-4,3.02-2.48,7.68-.03,7.81,2.45.13,3.38-3.35,4.6-3.12.49.09.72,1.22.82,2.55-.15,1.21-.73,3.58-2.25,4.74-.98.74-2.25.93-3.89.58-2.29-.49-5.24-1.9-8.37-3.38-7.3-3.47-15.57-7.4-20.91-2.37-2.16,2.03-2.57,5.27-1.13,8.89,3.44,8.67,18.3,20.88,40.56,20.91,0,0,0,0,.01,0,.01,0,.02,0,.03,0s.02,0,.03,0c0,0,0,0,.01,0,22.26-.03,37.12-12.24,40.56-20.91,1.44-3.62,1.02-6.86-1.13-8.89-5.34-5.03-13.61-1.1-20.91,2.37Zm-18.56,23.98c-4.95,0-11.25-1-17.33-3.06,2.93-1.82,8.81-4.61,17.3-4.61.01,0,.02,0,.03,0,.01,0,.02,0,.03,0,8.48,0,14.36,2.79,17.3,4.61-6.07,2.05-12.38,3.05-17.33,3.06Zm20.04-20.86c1.96-.93,3.99-1.9,5.98-2.69-.77,2.6-2.3,6.68-4.82,9.1-.61.59-2.13,1.9-3.04,1.41-1.17-.63-2-3.64-1.79-6.11,1.19-.53,2.42-1.11,3.68-1.71Zm-36.41,1.71c.21,2.47-.62,5.48-1.79,6.11-.91.49-2.43-.82-3.04-1.41-2.53-2.42-4.05-6.5-4.82-9.1,1.99.79,4.02,1.76,5.98,2.69,1.26.6,2.49,1.18,3.68,1.71Z" style="fill:#222;"/>
      <path d="m157.97,87.47c2.42,1.7,5.11,3.03,7.26,5.05,2.45,2.21,4.44,4.88,5.72,7.9.19.5.62,1.52.81,2.02.48,1.64.99,3.63,1.11,5.35.12.74.17,1.44.16,2.2.16,2.21-.16,4.61-.33,6.81-.15,1.45,1.8,2.36,2.81,1.28,6.16-5.46,14.96-7.75,23.07-6.68,8.21,1.04,15.76,6.23,20.84,12.62.96,1.3,3.14.45,2.96-1.17-.24-3.95-.15-8.07.26-12.06.78-7.8,2.78-15.94,7.8-22.04,2.5-3.16,5.88-4.8,9.21-7.06.27-.19.44-.51.41-.86-.24-2.31-5.96.3-7.28,1.24-1.86,1.24-3.54,2.72-5.02,4.39-.94,1.13-1.78,2.31-2.55,3.53-.13,0-.26,0-.39.02-20.88,3.61-24.31-9.03-24.45-9.58,0-.04-.03-.07-.04-.11.51-2.53.74-5.13.71-7.71-.03-2.16-.27-4.3-1.32-6.35-.45-.96-2.01-.7-2.1.36-.27,2.01-.19,4.03-.17,6.01.19,9.71-4.48,19.36-13.31,23.82-3.01,1.64-6.33,2.77-9.76,3.56-.15-.36-.29-.71-.39-.96-2.6-5.81-9.03-12.31-15.49-13.28-.98-.12-1.37,1.25-.53,1.71Z" style="fill:#222;"/>
      <path d="m513.65,81.8c-2.79-1.22-5.68-2.31-8.62-3.26l2.76-19.59s-3,5.49-14.92,8.02c-10.77,2.29-38.14-4.04-54.85-11.82-1.75-1.06-3.49-1.95-5.19-2.67-11.84-6.81-20.24-19.06-23.55-24.48-3.11-6.2-7.24-11.89-12.29-16.73-1.65-1.48-3.83,1-2.21,2.45,4.19,4.16,7.72,9.17,10.51,14.38,7.21,13.16,9.17,28.97,5.39,43.49-.64,2.99-1.95,5.71-2.16,8.83-.03.35.1.7.4.93,2.29,1.52,4.46-7.34,4.92-8.94,1.84-6.52,2.48-13.3,2.05-20,2.7-.15,12.64-.14,22.36,6.69,2.2,1.72,4.35,3.64,6.33,5.61,3.7,4.08,7.11,9.47,9.73,16.64.03.09.09.17.14.25-4.41,2.5-8.54,5.52-11.46,9.77-.65,1.04.8,2.09,1.6,1.21,13.24-13.67,32.1-17.49,50.32-13.37,5.97,1.24,11.81,3.19,17.44,5.61.84.36,1.81-.03,2.17-.87.36-.84-.03-1.81-.87-2.16Zm-98.08-32.82c.06.05.12.1.17.15-.05,0-.1,0-.15,0,0-.05-.01-.11-.02-.16Z" style="fill:#222;"/>
      <path d="m455.06,13.95c.93.46,1.99,1.46,2.74,2.23,3.1,3.45,4.79,8.04,5.84,12.52.49,2.4.88,5.35,1.11,7.79.2,3.54.23,7.08.03,10.62-.15,1.8-.22,3.6.13,5.46.14.92,1.53,1.04,1.83.15,1.75-5.31,1.35-10.95,1.34-16.45-.07-1.08-.17-2.17-.29-3.26,12.79-20.59,31.04-15.85,31.82-15.63.88.25,1.79-.27,2.03-1.14.25-.88-.26-1.79-1.14-2.04-.13-.04-8.36-2.22-17.97,1.59h-20.63c-1.44-1.97-3.2-3.69-5.39-4.81-1.93-.86-3.31,1.96-1.45,2.95Z" style="fill:#222;"/>
      <path d="m144.51,130.86l11.47,10.46,11.56,10.35,5.79,5.17c1.94,1.71,3.78,3.54,6.06,4.87.32.19.73.18,1.05-.05.43-.31.53-.91.22-1.34-1.55-2.14-3.55-3.79-5.44-5.56-3.64-3.35-13.37-12.3-17.13-15.76-3.76-3.39-13.66-12.32-17.29-15.59-1.93-1.73-3.9-3.4-6.09-4.83-.35-.23-.83-.22-1.18.06-.43.35-.5.98-.15,1.41,2.81,3.55,7.82,7.71,11.14,10.82Z" style="fill:#222;"/>
      <path d="m113.89,209.43c-.37.05-.7.28-.85.65-.93,2.35,6.13,2.43,7.62,2.84,4.53.65,16.64,2.36,21.32,3.02,4.65.61,16.87,2.21,21.36,2.8,2.37.32,4.75.59,7.19.42.38-.03.74-.28.87-.66.18-.52-.09-1.09-.61-1.27-3.98-1.4-9.99-1.83-14.15-2.51l-14.22-2.01-14.24-1.86-7.12-.92c-2.38-.25-4.72-.82-7.18-.5Z" style="fill:#222;"/>
      <path d="m342.15,149.52c-3.28,3.14-8.27,7.36-11.18,10.78-.28.33-.31.81-.06,1.18.31.44.92.56,1.36.25,2.15-1.48,4.08-3.2,6.01-4.93,0,0,5.8-5.15,5.8-5.15,5.8-5.12,17.4-15.5,23.12-20.71,3.81-3.5,7.8-6.8,11.25-10.7,1-1.14-.5-2.75-1.7-1.88-7.19,5.45-16.36,14.58-23.21,20.61,0,0-11.39,10.54-11.39,10.54Z" style="fill:#222;"/>
      <path d="m398.65,210.52c.02-.51-.37-.94-.88-.96-2.43-.11-4.8.22-7.17.54-4.54.6-16.67,2.19-21.35,2.81,0,0-14.22,1.99-14.22,1.99-4.15.69-10.19,1.15-14.18,2.3-1.08.32-.85,1.97.27,1.99,4.18.05,10.09-1.13,14.28-1.57l14.24-1.88s14.22-2,14.22-2c4.15-.68,10.19-1.13,14.17-2.39.35-.12.62-.44.64-.84Z" style="fill:#222;"/>
      <path d="m460.89,329.83c4.32-12.92,5.63-26.81,3.99-40.33-1.17-9.19-3.62-18.24-7.15-26.79-.42-1.21-1.02-3.42-.77-5.64,0-.05,0-.08.01-.13.12-.73.23-1.44.29-2.11,1.21-.5,2.35-1.1,3.41-1.79,4.65-3.05,7.17-7.58,7.11-12.73,0-.29-.09-.55-.23-.79,1.44-1.01,2.69-2.28,3.62-3.76.15-.29.35-.6.56-.92,4.83,1.84,11-.73,14.52-4.14,3.91-3.64,6.37-8.39,7.68-13.48,2.85-10.47-4.28-16.24-13.66-16.63,1.88-6.72.35-12.52-4.33-15.87-2.74-1.96-5.82-2.98-9.1-3.03.06-.96.09-1.91.09-2.86-.08-7.44-2.49-17.15-10.89-19.1-8.2-1.71-15.27,4.52-18.94,11.21-2.31,4.02-3.97,8.21-5.18,12.68-4.16,1.12-7.61,4.27-9.29,8.24-1.18-.17-2.38-.24-3.59-.19-11.02.33-16.98,9.71-15.26,20.07,1.43,8.38,6.21,15.65,12.57,21,1.92,1.63,4.02,3.06,6.24,4.26-.06.47-.11,1.14-.1,1.96-2.76.95-5.06,2.9-6.66,5.11-4.78,6.97-5.94,15.41-6.33,23.64-7.39,10.51-18.61,18.13-30.79,22.3-15.04,5.41-39.58,6.11-44.92-12.62-.65-3.31-.52-6.62-.03-9.93.37-1.72.7-3.44.99-5.17.67-2.95,1.45-5.9,2.04-8.82,1.49-6.57,2.62-13.36,2.74-20.22.09-6.76-.68-13.88-2.58-20.37-1.41-5.15-3.57-9.98-6.3-14.47,3.68-2.42,7.92-4.33,12.09-5.72,11.32-3.87,23.86-3.74,35.16.15,0,0,1.78.65,1.78.65,2.48.79,4.59,2.3,7.22,2.68.28.03.56-.06.78-.27,1.69-1.96-5.56-4.47-6.95-5.11-6.83-2.83-14.2-4.19-21.55-4.15-.5-2.47-.89-4.96-.69-7.46.18-5.79,2.52-11.34,5.91-16.01,1.71-2.38,3.9-4.38,5.67-6.73.29-.33.39-.8.19-1.23-.26-.55-.92-.79-1.47-.53-3.05,1.44-5.09,3.95-7.09,6.45-1.95,2.54-3.58,5.36-4.78,8.38-.33.83-.61,1.7-.87,2.58-13.09,1.88-13.64,12.77-13.33,17.04-4.88,1.5-9.54,3.69-13.83,6.53-7.05-10.31-17.23-18.52-28.58-23.75-1.29-.57-3.18-1.54-4.4-2.17-8.45-4.45-9.71-10.44-8.37-19.4.77-8.64.46-18.49-6.07-25.14-2.7-2.65-6.64-3.94-10.35-3.93-4.95.02-9.53,2.11-13.65,5.25.09-16.33.05-37.27-.09-52.86-.09-6.27.11-12.53-.62-18.8-.12-1.13-1.8-1.1-1.92,0-.73,6.27-.53,12.53-.62,18.8-.15,16.52-.18,39.02-.07,55.7-5.74,5.43-10.36,12.57-13.54,18.08-5.59,8.99-12.04,17.49-21.03,23.21-4.38,2.93-9.48,4.89-14.31,6.97-5.06,2.42-9.7,5.91-13.21,10.38-7.14,8.91-8.89,21.14-6.62,32.08.96,5.35,3.53,10.3,4.9,15.5.19.65.35,1.31.5,1.97-.68.78-1.34,1.57-1.97,2.39-11.51-4.73-18.92,1-21.61,3.74-3.87-2.66-8.26-4.51-13.04-5.18-4.11-.52-8.4-.99-12.27.95-.82.4-.54,1.75.38,1.78,1.92.14,3.85.05,5.75.03,9.44-.13,18.48,4.54,24.28,11.92,2.39,2.91,4.38,6.18,6.06,9.62.13.26.32.47.55.63-.05.34-.1.68-.14,1.02-.46,4.36-.5,8.79-.04,13.15-13.3,2.1-24.77,2.05-34.12-.13.38-1.02.8-2.05,1.26-3.09,4-9.03-2.05-15.34-7.39-20.91-3.56-3.71-7.24-7.56-8.04-12.03-1.81-10.19-5.8-17.47-20.88-24.5-6.17-2.88-7.49-6.68-8.88-10.71-.31-.89-.62-1.79-.99-2.68-3.4-10.59,6.32-17.3,11.54-20.9l.77-.53c3.66-2.55,5.05-7.14,3.46-11.41-1.52-4.08-6.05-8.14-14.22-7.29-10.39,1.08-14.74,9.96-16.31,14.57-1.53-1.18-3.33-2.01-5.18-2.4-2.47-8.99-6.87-19.35-15.92-23.22-12.88-4.66-18.88,7.16-18.84,18.25,0,.95.03,1.9.09,2.86-3.3.06-6.36,1.07-9.1,3.03-3.55,2.55-5.28,6.51-5.09,11.21-1.33.16-3.18.67-5.21,2.12-5.35,3.83-6.59,10.85-3.32,18.79,1.78,4.32,4.81,8.6,8.4,11.73l-1.06.69c-3.35,2.18-4.98,6.25-4.07,10.12,2.3,9.73,10.67,32.81,38.77,37.1.48.07.96.11,1.44.11.55,0,1.1-.06,1.63-.15,1.67,2.37,2.97,5.12,4,7.85,2.25,6,3.19,12.42,3.35,18.81.12,9.77-1.85,19.31-4.75,28.62-.92,3.16-1.86,6.34-2.65,9.61-1.11,4.94-2.21,10.55-.23,15.58,2.12,5.26,8.15,8.47,13.65,7.92,7.24-.95,12.59-6.05,17.17-11.15.23-.26.46-.54.7-.82.36.04.78.08,1.32.08,2.38,0,6.58-.62,12.69-3.74,8.08-4.12,14.69-6.04,21.29-6.2.28.38.57.75.87,1.12-1.35.83-2.18,1.44-2.47,1.66-1.38.79-11.45,7.01-9.55,19.31.28,1.79.83,3.41,1.56,4.9-17.77,7.7-22.47,26.64-22.66,27.47-.21.89.34,1.77,1.22,1.99.13.03.26.05.38.05.75,0,1.42-.51,1.6-1.27,0-.03.17-.67.52-1.73h300.49c.35,1.05.51,1.69.52,1.73.18.76.86,1.27,1.6,1.27.13,0,.26-.01.38-.05.89-.21,1.43-1.1,1.22-1.99-.2-.83-4.89-19.78-22.66-27.47.73-1.49,1.28-3.11,1.56-4.9.27-1.74.29-3.36.14-4.86,2.91.54,8.14,1.31,14.09,1.31,5.16,0,10.86-.59,16.04-2.42.1,2.52.58,5.03,1.74,7.52,4.7,9.39,15.65,7.8,22.16,1.37,8.68-8.07,14.25-18.87,18.04-29.92Zm-105.14-143.15s.01.06.02.08c-.04,0-.09,0-.13.01.04-.03.08-.06.11-.09Zm76.29,66.35c.1.06.21.12.32.17,1.6,1.32,8.53,6.46,20.36,7.73-2.28,8.67-6.83,19.49-9.34,25.17-.14-.43-.28-.87-.43-1.29-1.62-4.47-3.54-8.79-5.66-13.03-2.32-4.78-7.33-13.61-5.25-18.76Zm41.99-65.63c5.79,4.15,3.46,11.76,2.19,14.85-3.54,8.59-11.62,15.33-17.3,14.41-3.46-.56-5.63-2.36-6.12-5.07-.69-3.84,2.1-8.37,6.78-11.02.38-.21.63-.56.76-.94,3.72-4.05,5.48-9.29,6.2-14.65,2.71,0,5.24.81,7.5,2.42Zm-39.32,53.52c2.23.3,4.57.33,6.77-.11,1.01-.33,2.74-.11,3-1.42.09-.67-.46-1.23-1.11-1.24-2.45-.18-4.8-.17-7.22-.36-3.01-.36-6.09-1.06-8.88-2.29-9.92-4.16-18.18-13.62-19.97-24.28-2.8-21.19,24.63-20.25,29.58-3.09.97,3.23.64,7.62-3.09,8.68-7.38,1.77-11.55-3.62-15.47-9.06-.48-.78-1.73-.33-1.58.58.48,3.13,2.18,5.82,4.49,7.98,4.2,4.2,12.59,6.11,17.12,1.54,1.82,1.33,3.58,3.1,4.7,5.09.7,1.29,1.05,2.49,1.76,3.87.15.31.4.57.76.65.57.13,1.15-.22,1.28-.79.89-4.76-2.77-9.26-6.83-11.39,1.06-2.56.9-5.46.22-8.07-1.88-6.97-7.54-12.48-14.31-14.61,1.48-3.04,4.35-5.41,7.72-6,.59-.14,1.08-.6,1.23-1.24,1.14-4.38,2.86-8.81,5.16-12.72,3.1-5.46,8.6-10.81,15.3-9.53,6.56,1.65,8.04,9.84,8.18,15.76.09,6.91-2.23,20.75-10.96,20.86-4.17-.29-6.02-5.27-6.22-9.07-.48-4.63,1.5-8.64,2.88-12.99.3-.92-.93-1.69-1.63-1-3.5,3.6-4.46,9.31-4.33,14.19.08,2.87.88,5.49,2.19,7.55.16,1.71.95,8.08,4,11.04-.08.91-.05,1.83.11,2.72.74,4.14,3.96,6.96,8.84,7.75.55.09,1.1.13,1.66.13,7.58,0,15.52-7.97,19.04-16.15,7.59.15,13.86,3.75,11.43,12.48-1.09,4.37-3.33,8.71-6.63,11.76-2.17,2.02-4.87,3.53-7.66,3.89-1.63.24-3.01,0-4.08-.61-.04-.04-.08-.08-.13-.12-.13-.08-.25-.15-.37-.2-1.67-1.23-2.33-3.46-1.54-6.02,1.41-4.51,5.49-7.08,8.43-10.74.53-.58-.09-1.58-.85-1.32-3.39,1.1-5.77,3.68-7.95,6.38-2.91,3.54-4.6,9.3-1.26,13.23.12.12.24.22.36.34-.18.28-.35.55-.52.77-2.16,2.92-5.42,4.83-9.1,4.94-1.47.03-2.96-.11-4.59.1-.25.02-.49.09-.66.3-.3.34-.26.87.08,1.17,1.5,1.3,3.32,1.67,5.16,1.72,1.78.1,3.57-.2,5.24-.83-.25,4.65-3.14,7.52-5.6,9.14-6.1,4.01-15.45,4.35-23.26.85-8.83-3.95-9.86-9.89-9.81-12.63,2.85,1.2,5.85,2.04,8.92,2.42Zm-264.83,4.74c2.25-2.22,7.96-6.36,17.02-2.97-3.18,4.77-5.55,10.07-6.94,15.63-2.5-4.8-5.92-9.2-10.07-12.66Zm-61.65-25.75c12.47,5.82,17.09,11.19,19.03,22.09.97,5.46,5,9.67,8.9,13.74,5.29,5.52,9.85,10.28,6.75,17.29-6.67,15.07-6.96,36.01,5.66,45.12,15.63,11.28,27.4,3.69,31.74-.1,1.53-1.34,3.14-2.91,4.69-4.43,4.88-4.78,10.42-10.21,14.14-8.73,1.93.77,3.1,2.42,3.14,4.42.07,3.59-3.2,7.21-8.77,9.69-1.25.56-2.43,1.07-3.5,1.53-5.77,2.5-8.4,3.63-8.44,5.97-.03,1.81,1.75,2.89,3.48,3.7,6.37,2.97,23.33,1.83,34.07-3.73,14.62-7.58,28.42-11.28,39.93-10.72,39.91,1.98,59.15,24.96,59.34,25.19.56.68,1.56.8,2.27.28.06-.04,5.81-4.17,20.66-4.17.1,0,.2,0,.3,0,9.84.04,17.02,5.16,20.81,8.69-.81,3.06-9.83,22.38-106.64,22.38s-105-17.87-106.5-21.96c.57.2,1.14.38,1.72.55.15.04.31.07.46.07.72,0,1.38-.47,1.58-1.19.25-.88-.25-1.79-1.13-2.04-21.12-6.11-23.4-32.48-23.42-32.75-.02-.3-.13-.59-.31-.84-6.41-8.88-5.45-17.39-3.99-30.28.62-5.5,1.33-11.73,1.58-19.06.83-24.24-17.12-35.33-18.88-36.36-1.34-1.08-17.42-14.15-25.18-26.92,1.85-.43,6.22-.94,10.81,2.11,3.06,2.03,4,4.73,5.08,7.86,1.48,4.29,3.17,9.15,10.6,12.62Zm-5.16,13.13c-.48-.06-.92-.11-1.33-.17l4.56-5.13c1.44.94,4.08,2.88,6.82,5.94-3.49-.02-6.72-.27-9.23-.55-.33-.08-.61-.1-.82-.09Zm-20.96,28.49c.02-.76.26-6.04,3.47-10.03,3.02-3.75,8.58-1.62,10.89,4.79.54,7.94.55,15.95-.07,23.91-6.31-7.47-11.39-14.48-14.29-18.67Zm31.34-24.54c.75,0,1.51-.01,2.28-.04,3.82,5.38,7.13,13.09,6.77,23.55-.04,1.24-.1,2.44-.17,3.62-3-3.77-5.36-8.29-7.02-13.47-2.25-7.01-4.52-11.24-6.52-13.8,1.47.08,3.04.13,4.66.13Zm-61.61-78.92c3.12-4.61,9.6-4.17,13.71-1.23,6.42,4.74,9.68,12.78,11.85,20.24,0,.62.53.92,1.08,1.04,1.89.55,3.63,1.4,5.07,2.74.29.25.55.53.8.82.12.28.33.52.58.7.79,1.01,1.48,2.13,2.24,3.13.59.99,2.11.58,2.05-.59-.19-1.53-.77-2.95-1.61-4.2.28-1.14,1.05-3.76,2.66-6.42,2.75-4.55,6.58-7.12,11.38-7.62,6.29-.66,9.7,2.23,10.78,5.16,1.06,2.84.15,5.88-2.25,7.55l-.76.52c-4.47,3.08-12.85,8.87-13.64,17.84-.43-.37-.9-.73-1.41-1.07-6.43-4.27-12.61-2.84-14.29-2.33-.48-.97-.91-1.92-1.26-2.87-.18-.47-.55-.83-1.03-.99-.48-.16-1-.09-1.42.18l-3.31,2.15c-.91-1.73-2.67-3.41-5.67-3.28-.13,0-.26.02-.39.04,1.1-1.97,1.77-4.36,1.85-6.96.22-5.05-.92-10.44-4.46-14.19-.25-.26-.63-.37-.99-.25-.52.16-.8.73-.62,1.24,1.4,4.31,3.1,8.46,2.75,12.99-.8,11.74-10.84,11.69-14.7,1.5-2.97-7.74-3.81-18.72.99-25.86Zm10.51,41.75c-.31-1.45-.91-2.87-1.76-4.23,1.76-1.11,4.65-2.64,6.96-2.74.05,0,.11,0,.16,0,1.51,0,2.24.98,2.58,1.8l-7.94,5.17Zm-24.38-20.65c2.25-1.61,4.77-2.42,7.49-2.42.71,5.4,2.49,10.7,6.26,14.78.14.33.37.61.7.8,4.68,2.65,7.47,7.18,6.78,11.02-.49,2.71-2.66,4.51-6.12,5.07-5.66.91-13.76-5.82-17.3-14.41-1.27-3.08-3.6-10.7,2.19-14.85Zm-12.49,28.17c-1.27-3.08-3.6-10.7,2.19-14.85,1.48-1.06,2.77-1.42,3.71-1.53.3,1.39.75,2.83,1.35,4.31,2.84,6.89,8.86,13.69,15.23,15.84,1.09,2.5,1.12,5.19.03,7.24-.97,1.84-2.77,3.01-5.21,3.41-5.66.92-13.76-5.82-17.3-14.41Zm39.48,57.63c-25.17-3.84-33.39-23.32-36.06-34.59-.6-2.53.47-5.18,2.66-6.6l2.06-1.34c2.58,1.67,5.32,2.7,8.03,2.7.56,0,1.11-.04,1.66-.13,3.45-.56,6.15-2.37,7.6-5.12,1.25-2.37,1.5-5.27.77-8.09.09,0,.18.02.27.02.56,0,1.11-.04,1.66-.13,4.88-.79,8.1-3.61,8.84-7.75.02-.13.03-.26.05-.4.17-.04.33-.11.49-.21l13.53-8.81c5.92,13.11,22.22,27.25,27.08,31.28l-33.07,37.15c-1.39,1.56-3.53,2.33-5.57,2.02Zm15.64,88.48c-5.98.47-11.33-4.05-11.17-10.28-.08-6.3,2.17-12.65,3.9-18.77,1.94-6.35,3.7-12.89,4.44-19.53,1.36-12.86.06-26.76-7.07-37.84.85-.5,1.62-1.13,2.3-1.89l4.14-4.65c1.29,1.93,4.31,6.37,8.52,11.91l-.07-.05s8.17,18.46,6.05,34.98c-1.93,7.32-5.15,14.3-8.1,21.21-.2.42-.11.93.27,1.24.43.35,1.07.29,1.42-.15,2.56-3.16,4.12-6.77,5.64-10.39,1.46-3.57,2.8-7.39,3.87-11.1,6.07-20.6,7-42.7,3.84-63.89,0,0-.85-5.79-.85-5.79-.05-.3-.16-.55-.31-.75l1.7-1.91c.87.14,2.31.36,4.14.57.92.29,4.73,2.24,8.91,15.27,2.08,6.47,5.17,12,9.21,16.44.19.2.41.34.65.43-.31,3.9-.72,7.47-1.09,10.77-1.33,11.79-2.31,20.64,2.64,29.49.4,2.62,1.92,14.73-3.09,20.32-5.15,5.75-12.76,6.17-13.34,3.11,4.31-7.71,7.74-16.43,7.5-22.92-.03-1.08-1.62-1.23-1.85-.18-2.61,11.59-7.86,22.92-15.36,32.3-.34.19-.62.51-.75.91-.31.37-.61.74-.92,1.11-4.02,4.48-9.11,9.28-15.18,10.03Zm359.76,3.53c-10.45,9.53-19.34,2.59-17.77-10.44.42-3.73,1.31-7.63,1.47-11.4.47-7.77-.17-15.52-1.31-23.18-.57-3.82-1.28-7.62-2.94-11.21-.4-.89-1.77-.56-1.74.41.1,3.84.79,7.56,1.36,11.3.55,3.73.95,7.48,1.16,11.23.26,4.68.29,9.36-.26,13.99-.43,3.18-1.07,6.39-1.31,9.6-11.52,4.62-27.04,1.94-30.94,1.15-2.18-6.82-8-10.39-8.98-10.94-2-1.48-26.83-18.92-70.35-9.24-10.01-6.84-26.32-14.67-49.54-15.82-12.07-.6-26.47,3.24-41.61,11.08-10.21,5.29-26.16,6.01-31.16,3.67-.63-.29-1.03-.53-1.28-.7,1.03-.74,3.72-1.91,6.14-2.95,1.09-.47,2.27-.98,3.54-1.55,6.82-3.04,10.83-7.81,10.72-12.77-.07-3.32-2.07-6.16-5.23-7.42-5.71-2.27-11.79,3.68-17.66,9.44-1.59,1.56-3.1,3.03-4.56,4.31-3.74,3.27-13.92,9.8-27.64-.1-7.42-5.35-11.75-18.9-6.9-34.86,5.08,1.21,10.74,1.83,16.95,1.83,2.84,0,5.8-.14,8.85-.39,2.49.24,8.46,1.53,12.36,8.36.49,1.29,1.03,2.57,1.63,3.82.72,1.37,2.77.38,2.19-1.03-6.25-17.03-5.57-35.56,5.09-50.2.03-.03.05-.07.08-.11.27-.37.54-.73.82-1.09.4,3.02.57,6.07.69,9.08-.02.5.25.97.74,1.15.58.21,1.21-.09,1.41-.67,1.85-5.58.48-11.23-.82-16.68-1.35-5.24-3.87-9.99-4.84-15.3-1.03-5.08-1.17-10.35-.22-15.4,1.73-10.27,8.79-18.93,18.2-23.27,3.64-1.62,7.66-3.09,11.12-5.05,11.07-5.84,19.26-15.92,25.67-26.38,6.05-10.89,21.64-32.57,35.51-21.55,5.47,5.6,5.67,14.73,4.98,22.2-.14.89-.24,1.75-.32,2.6-.32,1.86-.54,3.72-.67,5.59-.32,4.92-.13,9.84.4,14.72.3,2.43.44,4.88,1.51,7.21.44,1.01,2.02.72,2.08-.38.23-4.54-.67-8.99-.65-13.51,1.7,2.55,4.23,4.76,7.8,6.65,1.32.71,3.22,1.68,4.6,2.28,16.21,7.49,29.96,21.27,34.72,38.75,1.79,6.14,2.52,12.92,2.43,19.32-.12,6.54-1.19,13.03-2.67,19.51-.9,4.33-2.15,8.74-2.89,13.19-.97,3.96-2.06,7.93-3.31,11.72-1.73,6.01-4.71,11.56-6.66,17.44-.16.49-.05,1.05.35,1.42,2.45,2.16,5.85-6.99,6.62-8.6,1.19-2.83,2.25-5.71,3.2-8.63,1.4,4.92,4.82,9.07,8.92,12.03,11.81,8.03,27.49,6.26,40.31,1.97,6.48-2.25,12.65-5.38,18.22-9.4,4.65-3.36,8.89-7.35,12.44-11.9,1.27,2.96,3.5,3.56,3.11,1.33-.38-2.17-.64-4.73-.76-6.14.37-7.25,1.53-15.08,5.67-21.1,1.2-1.65,2.73-2.96,4.47-3.71.06.21.12.43.18.64.75,2.39,2.41,5.47,6.03,8.23-2.81,4.9.84,13.63,2.93,17.95,6.29,12.12,12.14,25.16,11.86,39.05-.01,4.55-1.2,9-1.84,13.48-.19,1.02,1.24,1.49,1.71.59,1.91-3.98,2.85-8.31,3.12-12.76.85-1.77,2.27-5.81,2.39-13.15.18-10.51.96-17.74,5.07-18.63,2.39-.52,4.34,1.67,5.59,4.08,3.1,15.53,2.43,31.79-2.65,46.86-3.58,10.46-8.93,20.73-17.01,28.32Z" style="fill:#222;"/>
      <path d="m22.08,93.66c7.62,1.02,15.25,3.74,21.27,8.58,2.58,1.98,4.71,4.62,6.99,6.89.73.91,2.18.16,1.83-.96-1-3.06-3.16-5.21-5.36-7.31-2.22-2.01-4.66-3.72-7.26-5.17,6.47-29.36,27.2-31.83,33.01-31.94.23,4.85,1.11,9.67,2.57,14.28.76,2.6,1.74,5.13,3.33,7.37.21.3.57.47.95.43.59-.06,1-.63.9-1.21-.41-3.08-1.55-5.83-2.38-8.77-.97-3.68-1.68-7.55-1.92-11.35-1.63-21.1,12.85-39.55,30.83-49.01,1.93-.94.56-3.76-1.35-2.89-1.64.83-3.25,1.73-4.83,2.68-4.58-.4-25.77-2.17-34.48-1.67-1.24-1.32-2.43-2.28-3.39-2.45-1.03-3.27-2.75-6.81-5.51-10.5-.55-.73-1.58-.88-2.31-.33-.73.55-.88,1.58-.33,2.31,3.77,5.02,5.46,9.71,5.99,13.79-.43,13.42-17.83,15.06-17.83,15.06l.77.05c-1.74.32-3.47.74-5.17,1.26-4.4,1.42-8.92,2.82-12.4,6.05-.67.6.06,1.77.9,1.44,2.08-.73,4.09-1.67,6.12-2.52,8.65-3.68,18.23-4.61,27.37-2.97,4.13,2.95,7.08,8.79,6.82,15.64-.38,9.95-11.25,14.64-11.25,14.64,0,0,.15-.03.42-.09-3.74,2.08-7.58,5.1-10.99,9.47l.23-.56c-8.16,13.29-20.82,15.6-27.68,15.8-1.4-.09-3.33-.22-4.21-.14,0,0,0,0,0,0-.37-.04-.58-.07-.58-.07,0,0,.17.03.46.08-1.23.05-4,.15-5.18.2-2.33.27-4.66.57-6.99.87-.88.12-1.52.91-1.43,1.8.09.95.99,1.62,1.93,1.46l6.73-.7c4.4-.13,9.05-.25,13.41.45Zm50.42-33.59c0,.13-.01.27-.01.4-.12,0-.24,0-.37.02.13-.13.26-.27.39-.42Zm-36,34.06s-.05-.02-.07-.03c.03,0,.05,0,.08,0,0,.01,0,.03-.01.04Z" style="fill:#222;"/>
      <path d="m49.64,354.22c-4.63-.97-9.39-1.33-13.9-2.77-18.16-5.49-27.87-24.48-29.6-42.34-.15-2.2-3.38-2-3.3.17.49,6.09,1.79,12.14,3.99,17.83v59.98h25.47c2.2,3.56,4.35,5.69,4.41,5.75.32.31.73.46,1.15.46s.86-.17,1.19-.5c.63-.65.62-1.7-.04-2.33-.7-.68-17.02-16.86-1.73-34.76.11-.13.19-.28.26-.43.94.22,1.89.41,2.85.56,3.01.56,6.11.59,9.14.14.35-.05.66-.31.75-.68.12-.48-.17-.97-.66-1.09Z" style="fill:#222;"/>
      <path d="m55.85,284.78c-1.91,0-3.75.61-5.41,1.77-2.74-3.36-6.35-5.25-10.13-5.25-8.21,0-14.89,8.82-14.89,19.67s6.68,19.67,14.89,19.67c4.28,0,8.35-2.45,11.16-6.65,1.38.75,2.87,1.14,4.38,1.14,6.34,0,11.5-6.81,11.5-15.17s-5.16-15.17-11.5-15.17Zm0,27.04c-1.36,0-2.66-.49-3.88-1.45-.38-.3-.88-.42-1.35-.32-.48.1-.89.4-1.12.83-2.23,4.1-5.58,6.46-9.18,6.46-6.39,0-11.59-7.34-11.59-16.37s5.2-16.37,11.59-16.37c3.17,0,6.26,1.91,8.46,5.25.27.41.71.68,1.2.73.49.05.98-.12,1.33-.46,1.36-1.33,2.93-2.04,4.54-2.04,4.52,0,8.19,5.33,8.19,11.87s-3.68,11.87-8.19,11.87Z" style="fill:#222;"/>
      <path d="m467.83,125.89c8.45,3.64,14.8,11.03,18.24,19.46,2.02,4.28,2.51,9.03,4.39,13.37.13.27.39.46.71.5.49.05.93-.31.98-.8.13-1.24.06-2.47-.06-3.69-2.17-13.37-9.95-26.67-22.95-31.89-4.65-1.74-9.64-3.48-14.66-2.19-.93.26-.82,1.66.12,1.8,4.46,1.06,9.06,1.43,13.23,3.44Z" style="fill:#222;"/>
      <path d="m508.2,292.08c-16.27,2.46-24.18,18.21-26.35,33.04-3.81.34-13.32,2.15-17.38,11.64-4.65,10.85-.65,20.13,1.33,23.68-14.28,2.46-26.14,11.45-28.58,27.52-.2,2.23,3.09,2.5,3.29.29,2.39-15.45,15.37-24.4,30.38-25.43,3.41-.3,6.82-.13,10.24-.35.48-.02.91-.36,1-.85.11-.57-.26-1.13-.83-1.25-1.16-.23-2.34-.37-3.51-.51-2.84-.2-5.66-.16-8.42.1-.68-1.02-6.72-10.59-1.87-21.91,3.15-7.35,10.42-9.14,13.94-9.58-.5,4.46-1.04,8.95.41,13.34.21.7,1.3.63,1.43-.09,1.25-4.83.97-9.7,1.88-14.54,1.85-11.44,6.26-23.95,17.07-29.57,2.06-1.05,4.28-1.75,6.56-2.3.88-.17,1.48-1.02,1.32-1.92-.16-.9-1.02-1.49-1.92-1.33Z" style="fill:#222;"/>
      <path d="m311.28,80.88c-.43,1.5-.65,3.05-.65,4.62,0,9.26,7.54,16.8,16.8,16.8s16.8-7.53,16.8-16.8c0-.22,0-.45-.01-.67.75.09,1.49.14,2.22.14,10.47,0,18.99-8.52,18.99-18.99s-8.52-18.99-18.99-18.99c-3.38,0-6.64.89-9.54,2.58-3.91-5.87-10.51-9.45-17.62-9.45-11.67,0-21.16,9.49-21.16,21.16,0,8.7,5.23,16.38,13.18,19.6Zm7.99-37.46c6.51,0,12.5,3.55,15.65,9.26.23.41.62.71,1.08.81.46.1.94,0,1.33-.27,2.68-1.92,5.83-2.93,9.11-2.93,8.65,0,15.69,7.04,15.69,15.69s-7.04,15.69-15.69,15.69c-1.21,0-2.46-.16-3.72-.46-.54-.13-1.11.02-1.52.4s-.59.94-.49,1.49c.15.85.23,1.63.23,2.4,0,7.44-6.05,13.5-13.5,13.5s-13.5-6.05-13.5-13.5c0-1.71.33-3.39.97-5,.17-.43.16-.9-.04-1.32-.2-.42-.56-.73-.99-.87-7.45-2.36-12.46-9.2-12.46-17.03,0-9.85,8.01-17.86,17.86-17.86Z" style="fill:#222;"/>
      <path d="m143.74,61.25c1.87,0,3.38-3.09,3.38-6.89s-1.51-6.89-3.38-6.89-3.38,3.09-3.38,6.89,1.51,6.89,3.38,6.89Z" style="fill:#222;"/>
      <ellipse cx="372.86" cy="97.75" rx="3.38" ry="6.89" style="fill:#222;"/>
      <path d="m126.87,159.86c1.87,0,3.38-3.09,3.38-6.89s-1.51-6.89-3.38-6.89-3.38,3.09-3.38,6.89,1.51,6.89,3.38,6.89Z" style="fill:#222;"/>
      <path d="m426.86,160.88c0,.91.74,1.65,1.65,1.65s1.65-.74,1.65-1.65c0-11.29,9.18-20.48,20.47-20.48.91,0,1.65-.74,1.65-1.65s-.74-1.65-1.65-1.65c-11.29,0-20.47-9.19-20.47-20.48,0-.91-.74-1.65-1.65-1.65s-1.65.74-1.65,1.65c0,11.29-9.19,20.48-20.48,20.48-.91,0-1.65.74-1.65,1.65s.74,1.65,1.65,1.65c11.29,0,20.48,9.19,20.48,20.48Zm1.65-35.55c2.42,6.12,7.3,11,13.42,13.42-6.12,2.42-11,7.3-13.42,13.42-2.42-6.12-7.3-11-13.42-13.42,6.12-2.42,11-7.3,13.42-13.42Z" style="fill:#222;"/>
      <path d="m95.84,97.18c0-.91-.74-1.65-1.65-1.65s-1.65.74-1.65,1.65c0,11.29-9.19,20.48-20.48,20.48-.91,0-1.65.74-1.65,1.65s.74,1.65,1.65,1.65c11.29,0,20.48,9.19,20.48,20.48,0,.91.74,1.65,1.65,1.65s1.65-.74,1.65-1.65c0-11.29,9.19-20.48,20.48-20.48.91,0,1.65-.74,1.65-1.65s-.74-1.65-1.65-1.65c-11.29,0-20.48-9.19-20.48-20.48Zm-1.65,35.55c-2.42-6.12-7.3-11-13.42-13.42,6.12-2.42,11-7.3,13.42-13.42,2.42,6.12,7.3,11.01,13.42,13.42-6.12,2.42-11,7.3-13.42,13.42Z" style="fill:#222;"/>
      <path d="m154.74,170.62c0-1.1-.9-2-2-2s-2,.9-2,2c0,7.23-5.89,13.12-13.12,13.12-1.1,0-2,.9-2,2s.9,2,2,2c7.23,0,13.12,5.89,13.12,13.12,0,1.1.9,2,2,2s2-.9,2-2c0-7.23,5.89-13.12,13.12-13.12,1.1,0,2-.9,2-2s-.9-2-2-2c-7.23,0-13.12-5.89-13.12-13.12Z" style="fill:#222;"/>
      <path d="m371.44,230.8c0-1.1-.9-2-2-2s-2,.9-2,2c0,7.23-5.89,13.12-13.12,13.12-1.1,0-2,.9-2,2s.9,2,2,2c7.23,0,13.12,5.89,13.12,13.12,0,1.1.9,2,2,2s2-.9,2-2c0-7.23,5.89-13.12,13.12-13.12,1.1,0,2-.9,2-2s-.9-2-2-2c-7.24,0-13.12-5.89-13.12-13.12Z" style="fill:#222;"/>
      <path d="m197.84,349.4c2.63.94,5.4,1.41,8.07,2.2,7.98,2.23,15.6,5.54,22.4,10.3.37.27.88.25,1.23-.07.39-.36.41-.97.05-1.36-3.42-3.54-7.63-6.06-12.12-7.99,7.71-5.02,17.13-6.71,25.89-9.18.4-.12.7-.49.72-.93.02-.56-.41-1.03-.97-1.05-2.69-.11-5.27.39-7.84.93-5.17,1.1-10.27,2.57-15.09,4.84-2.23,1.08-4.42,2.36-6.43,3.94-2.35-.83-4.73-1.55-7.09-2.19-2.78-.68-5.54-1.47-8.49-1.44-1.13,0-1.41,1.65-.34,2.01Z" style="fill:#222;"/>
    </g>
  </g>
</svg>