<?xml version="1.0" encoding="UTF-8"?><svg id="Layer_2" xmlns="https://www.w3.org/2000/svg" viewBox="0 0 74.72 69.85"><g id="diseño"><path d="m35.6,39.46c-.1-1.23-.12-6.05,0-7.36.12-1.31.62-7.28.54-8.1-.05-.53-.28-.81-.44-.95-.09-.08-.16-.11-.16-.11,0,0-.55.19-1.33.69-1.67,1.07-4.42,3.55-5.12,8.55-.55,3.91-.37,6.95.39,9.2,1.05,3.13,3.22,4.71,6.12,4.87.52.03.52-1.85.55-2.4.02-.28-.1-1.1-.23-1.99-.13-.86-.27-1.8-.32-2.4Z" style="fill:#222;"/><path d="m47.15,41.1c.66-2.25.8-5.22.28-8.93-.73-5.16-3.61-7.62-5.27-8.64-.4-.17-.75-.15-.99.2-.39.59-.35,1.54-.2,2.14l-.05-.05c.31,1.49.54,5.23.58,7.06.04,1.58-.16,6.28-.38,9.07-.07.86-.14,1.54-.21,1.89-.29,1.47,0,2.4,0,2.4,3.01,0,5.23-1.73,6.23-5.14Z" style="fill:#222;"/><path d="m39.89,4.31c-.05-1.04-.08-2.09-.15-3.13-.11-1.54-2.38-1.59-2.55-.04-.19,2.13-.33,4.29-.16,6.43.19,2.04-.22,4.2.58,6.21.34.86,1.67.88,2.03.02.83-2.12.44-4.19.44-6.41-.09-.85-.15-2.19-.18-3.06Z" style="fill:#222;"/><path d="m30.7,14.13c.22.46.46.91,1.17,1.19.65.26,1.39-.08,1.62-.73.31-.62.23-1.24-.06-1.75-.58-1.34-1.2-2.67-2.01-3.91-.75-1.2-2.7-.38-2.34,1.02.37,1.47.93,2.85,1.62,4.19Z" style="fill:#222;"/><path d="m25.02,18.73c.42.28.87.54,1.61.42,1.53-.29,1.19-2.4.07-2.93-1.18-.86-2.39-1.67-3.71-2.32-.48-.24-1.09-.17-1.49.24-.51.5-.51,1.32-.01,1.83,1.07,1.08,2.26,1.97,3.54,2.77Z" style="fill:#222;"/><path d="m45.16,15.31c.7-.28.95-.73,1.17-1.19.69-1.34,1.25-2.72,1.62-4.19.36-1.38-1.58-2.23-2.35-1.01-.8,1.24-1.42,2.56-2,3.9-.21.43-.39.87-.18,1.44.17.79.94,1.36,1.74,1.04Z" style="fill:#222;"/><path d="m50.4,19.15c1.3.16,1.91-.7,2.86-1.26.92-.85,3.19-1.9,2.52-3.41-.32-.64-1.1-.91-1.74-.58-1.32.65-2.53,1.47-3.71,2.32-.4.26-.78.55-.89,1.15-.26.76.11,1.65.96,1.78Z" style="fill:#222;"/><path d="m27.23,55.94c0-.13,0-.26,0-.4-.23-3.43-2.11-6.47-5.45-8.79-.12-.09-.26-.14-.4-.17-.03-.66-.11-1.27-.24-1.81.17-.78.61-3.19.61-7.12,0-2.9-1.09-5.22-2.92-6.21-1.21-.65-2.59-.61-3.7.12-.24.16-.45.36-.63.58-.5-.82-1.16-1.5-1.96-1.94-1.33-.75-2.82-.76-3.98-.05-1.37.84-1.87,2.37-1.98,3.92-.68-.57-1.41-.93-2.15-1.03-1.68-.22-2.67.4-3.21.96-1.22,1.26-1.52,3.59-.93,7.13.73,4.36.05,9.27.04,9.35-.72,6.34,5.34,12.8,9.82,14.46.61.23,1.24.39,1.87.52-.02.17,0,.35.06.52.06.16,1.52,3.84,6.69,3.87h.13c6.18,0,10.36-2.96,11.21-7.95.3-1.79.03-3.27-.81-4.41-.64-.86-1.44-1.31-2.08-1.56Zm-2.3-.25c.11,1.71-.81,2.69-1.68,3.23.12-2.87-1.14-4.37-1.99-5.37-.35-.41-.66-.77-.7-1.03-.07-.43,0-.66.2-1.21.18-.5.39-1.13.53-2.05,1.7,1.38,3.45,3.49,3.65,6.43Zm-8.53-22.2c.4-.26.87-.26,1.34-.01.83.45,1.71,1.78,1.71,4.18,0,1.77-.1,3.2-.21,4.3-.72-.43-1.59-.66-2.67-.66-.58,0-1.07.17-1.5.45.18-.93.34-2,.43-3.14.07-.16.11-.34.09-.53-.01-.16-.02-.32-.03-.49.02-.39.03-.79.03-1.19,0-.07,0-.14-.01-.22.09-1.26.36-2.39.81-2.69Zm-6.64-1.37c.45-.27,1.07-.24,1.66.09,1.11.62,1.79,2.04,1.87,3.82-.04.6-.04,1.15-.02,1.57-.17,3.18-.94,5.88-1.21,6.74-.78.23-1.55.6-2.28,1.05.41-2.49.17-4.79-.41-6.68.03-.18.04-.36-.01-.54-.47-1.61-1-5.2.4-6.06Zm-7.14,18.66c.03-.21.74-5.3-.06-10.02-.62-3.71.01-4.84.32-5.15.09-.1.38-.39,1.25-.28.49.06,1.28.57,2.04,1.79,1.26,2.02,2.23,5.86.81,10.04-.05.16-.07.31-.05.47-.91.86-1.54,1.59-1.71,1.78-.41.49-.35,1.21.14,1.62.22.18.48.27.74.27.33,0,.65-.14.88-.41.87-1.04,3.57-3.74,5.78-4.35-.12.6-.22,1.19-.31,1.73-.06.38-.12.72-.18,1.02-.4,2.09-1.12,3.64-1.12,3.66-.27.57-.02,1.26.55,1.53.58.27,1.26.02,1.53-.55.03-.07.84-1.81,1.3-4.2.06-.32.12-.68.19-1.08.23-1.38.84-5.04,1.85-5.04,1.43,0,2.52.26,2.55,3.57.01,1.83-.29,2.69-.53,3.39-.23.66-.47,1.35-.29,2.36.15.88.7,1.52,1.22,2.13.78.91,1.59,1.86,1.44,3.96-.08,1.21-.85,2.34-2.14,3.18-2.12,1.37-5.13,1.6-7.86.59-3.75-1.39-8.9-7.05-8.34-12Zm25.24,10.74c-.65,3.84-3.91,6.04-8.94,6.04-.04,0-.08,0-.11,0-2.51-.02-3.73-1.16-4.24-1.87,2-.03,3.93-.55,5.5-1.57,1-.65,1.79-1.46,2.34-2.36,1.32-.31,3.44-1.37,4.38-3.49.24.14.5.34.7.62.44.61.57,1.5.38,2.63Z" style="fill:#222;"/><path d="m74.43,41.13c.59-3.54.29-5.87-.93-7.13-.54-.56-1.53-1.18-3.21-.96-.74.1-1.47.46-2.15,1.03-.11-1.55-.61-3.09-1.98-3.92-1.17-.71-2.66-.69-3.98.05-.8.45-1.45,1.12-1.96,1.94-.19-.22-.39-.42-.63-.58-1.1-.73-2.48-.77-3.7-.12-1.83.99-2.92,3.31-2.92,6.21,0,3.92.44,6.34.61,7.12-.13.54-.21,1.14-.24,1.81-.14.03-.27.09-.4.17-3.33,2.32-5.22,5.36-5.45,8.79,0,.14,0,.27,0,.4-.63.25-1.44.7-2.08,1.56-.84,1.14-1.12,2.62-.81,4.41.85,4.98,5.04,7.95,11.21,7.95h.13c5.17-.03,6.63-3.72,6.69-3.87.07-.17.08-.35.06-.52.63-.12,1.26-.29,1.87-.52,4.49-1.66,10.55-8.11,9.82-14.49,0-.05-.68-4.96.05-9.32Zm-11.13-8.92c.59-.33,1.21-.37,1.66-.09,1.4.86.88,4.45.4,6.06-.05.18-.05.36-.01.54-.57,1.89-.82,4.19-.41,6.68-.73-.45-1.5-.83-2.28-1.05-.27-.87-1.04-3.56-1.21-6.74.02-.42.02-.96-.02-1.57.08-1.79.76-3.2,1.87-3.82Zm-6.32,1.26c.47-.25.94-.25,1.34.01.45.29.72,1.43.81,2.69,0,.07-.01.14-.01.22,0,.4.01.8.03,1.19,0,.16-.01.33-.03.49-.02.19.03.37.09.53.1,1.15.26,2.21.43,3.14-.42-.28-.91-.45-1.5-.45-1.08,0-1.96.23-2.67.66-.12-1.1-.21-2.53-.21-4.3,0-2.4.88-3.74,1.71-4.18Zm-7.19,22.22c.2-2.94,1.95-5.05,3.65-6.43.14.93.35,1.55.53,2.05.19.55.27.78.2,1.21-.05.26-.35.62-.7,1.03-.85,1-2.11,2.5-1.99,5.37-.86-.54-1.79-1.53-1.68-3.23Zm6.13,11.86s-.08,0-.11,0c-5.03,0-8.29-2.2-8.94-6.04-.19-1.13-.07-2.02.38-2.63.2-.28.46-.48.7-.62.93,2.12,3.05,3.19,4.38,3.49.55.91,1.34,1.72,2.34,2.36,1.57,1.02,3.51,1.54,5.51,1.57-.51.7-1.72,1.85-4.25,1.87Zm16.24-26.8c-.79,4.72-.09,9.8-.06,9.99.57,4.99-4.58,10.65-8.34,12.04-2.72,1.01-5.73.78-7.86-.59-1.29-.84-2.06-1.96-2.14-3.18-.15-2.1.66-3.05,1.44-3.96.52-.61,1.07-1.25,1.22-2.13.18-1.02-.06-1.7-.29-2.36-.24-.69-.54-1.56-.53-3.39.02-3.31,1.12-3.57,2.55-3.57,1.01,0,1.62,3.66,1.85,5.04.07.39.13.76.19,1.08.46,2.39,1.27,4.13,1.3,4.2.27.57.95.82,1.53.55.58-.27.82-.95.55-1.53,0-.02-.73-1.57-1.13-3.66-.06-.3-.12-.65-.18-1.02-.09-.54-.19-1.13-.31-1.73,2.2.59,4.84,3.24,5.78,4.35.23.27.55.41.88.41.26,0,.52-.09.74-.27.49-.41.55-1.13.14-1.62-.16-.19-.8-.92-1.71-1.78.01-.15,0-.31-.05-.47-1.41-4.17-.44-8.02.81-10.04.76-1.22,1.55-1.72,2.04-1.79.88-.12,1.16.18,1.25.28.3.31.94,1.44.32,5.15Z" style="fill:#222;"/></g></svg>
