<svg width="61" height="64" viewBox="0 0 61 64" fill="none" xmlns="http://www.w3.org/2000/svg">
<path d="M58.8102 33.8799C58.6502 30.8599 56.7502 29.4301 54.8402 29.3501H54.7102C54.7102 29.3501 54.5602 29.3501 54.5002 29.3501C54.1802 29.0501 53.8202 28.7898 53.4002 28.5698C52.6902 28.2098 51.8702 28.0098 51.0402 28.0098C50.7702 28.0098 50.4902 28.0298 50.2502 28.0698C49.3802 28.1898 48.5302 28.5098 47.7302 29.0298C47.2602 29.3298 46.8302 29.6801 46.4602 30.0801C43.2201 27.6401 43.5101 22.55 43.5501 22.04C43.6901 20.96 43.7702 19.9801 43.8102 19.1201C43.9402 16.0301 42.9602 13.2298 40.9002 10.7998C40.6702 10.5298 40.3901 10.0698 40.0801 9.56982C39.2801 8.25982 38.1801 6.47982 36.3301 5.31982C35.4601 4.49982 34.8702 3.6298 34.7302 3.2998C34.6102 1.6598 33.2602 0.359863 31.6702 0.359863C30.9602 0.359863 30.2802 0.619863 29.7102 1.10986C29.0202 1.70986 28.7302 2.4299 28.5402 2.8999C28.4902 3.0399 28.4102 3.23002 28.3802 3.27002C28.3802 3.27002 28.3602 3.28982 28.2902 3.31982C26.8202 3.90982 25.7901 5.0201 25.3301 5.6001C24.6901 6.1001 24.0001 6.82984 23.2701 7.58984C22.5201 8.36984 21.5902 9.3399 21.0702 9.6499C18.1902 11.3399 16.5202 14.6302 16.1202 19.4502C16.0202 20.6002 15.9802 21.5998 15.9802 22.5698C15.9802 22.6198 16.0202 23.78 16.1802 25C16.3102 25.95 16.4802 26.6998 16.7002 27.2798C15.7702 27.3598 15.1502 27.8401 14.6402 28.3901C14.2902 28.1801 13.9202 28.0201 13.5402 27.8901C12.9302 27.6801 12.3002 27.5698 11.6802 27.5698C11.2702 27.5698 10.8702 27.62 10.4702 27.71C10.0802 27.8 9.72018 27.9401 9.39018 28.1201C9.14018 28.0201 8.88015 27.9502 8.61015 27.9102C8.46015 27.8902 8.27016 27.8599 8.03016 27.8599C7.27016 27.8599 4.76017 28.1498 4.04017 31.7798C3.62017 31.8798 3.22016 32.05 2.87016 32.29C2.25016 32.71 1.75016 33.3098 1.41016 34.0698L1.38017 34.1299L1.23017 34.52L1.16016 34.7402L1.08015 35.0498C1.00015 35.4398 0.960153 35.7901 0.960153 36.1001C0.950153 36.7501 1.05016 37.4201 1.28016 38.1001C1.48016 38.6901 1.76017 39.2698 2.13017 39.8198C2.55017 40.4298 3.00015 40.9201 3.52015 41.3101C3.88015 41.5801 4.24017 41.7802 4.63017 41.9302C4.93017 42.0402 5.23016 42.1199 5.53016 42.1499C5.59016 42.2699 5.67016 42.3998 5.75016 42.5298L5.82017 42.6299C5.93017 42.7999 6.05016 42.9698 6.16016 43.0898L6.39018 43.3501C6.45018 43.4201 6.52015 43.4801 6.61015 43.5601C6.85015 43.7901 7.09017 43.9398 7.23017 44.0298L7.32017 44.0898L7.55015 44.23L7.75016 44.3301L7.99015 44.46C8.07015 44.5 8.16015 44.5401 8.27015 44.5801L8.39018 44.6299C8.53018 44.6899 8.73015 44.7701 8.99015 44.8301C9.37015 44.9401 9.76017 44.99 10.1702 45C10.9302 45.65 12.1102 46.4899 13.6602 47.1699C15.0802 47.7899 16.2602 47.9999 17.0402 48.1299C17.2602 49.1599 18.2802 53.0499 21.0702 54.3599C21.6902 54.6499 22.3202 54.8999 22.9302 55.1299C23.8602 55.4899 24.8202 55.87 25.2402 56.23C25.2602 56.25 25.2702 56.2598 25.2902 56.2798C25.3402 56.5998 25.3802 57.0901 25.4202 57.6001C25.5702 59.6601 25.7702 62.4801 27.9902 63.3101C28.3701 63.4501 28.7702 63.5298 29.1702 63.5298C31.1602 63.5298 33.0101 61.8898 34.8301 58.5098C35.2101 57.8098 35.4401 57.2498 35.6101 56.8398C35.7901 56.3998 35.8702 56.2302 35.9502 56.1602C36.1602 55.9702 36.7502 55.7101 37.7002 55.3701C41.2202 54.1301 42.6602 51.7998 43.2902 50.3198C44.9402 49.8798 47.3002 49.02 48.6802 47.52C49.1202 47.04 49.5801 46.4202 50.0501 45.6802C50.3701 45.7502 50.7002 45.7798 51.0402 45.7798C51.7202 45.7798 52.4201 45.6401 53.1101 45.3701C54.0201 45.0101 54.7902 44.4299 55.3802 43.6899C55.4402 43.6899 55.5002 43.6899 55.5602 43.6899C56.1802 43.6899 56.8102 43.5302 57.4302 43.2202C59.3202 42.2802 61.2002 39.8798 60.9602 37.2998C60.8102 35.6898 60.0001 34.4601 58.7701 33.8901L58.8102 33.8799Z" fill="#F2DAB2"/>
</svg>
