<?xml version="1.0" encoding="UTF-8"?><svg id="Layer_2" xmlns="http://www.w3.org/2000/svg" viewBox="0 0 58.44 43.93"><g id="diseño"><path d="m14.97,33.11c.09-.44-.2-.87-.65-.96-1.14-.22-2.29-.27-3.43-.3l-1.16-.02v-.05c-1.03-.08-1.12-1.29-1.12-1.72,0-.04,0-.07,0-.1,0-.02,0-.05,0-.05h0c0-2.32-.01-4.65-.19-6.97-.03-.43-.38-.79-.83-.83-.49-.04-.92.33-.96.83-.17,2.34-.19,4.67-.19,7.01-.09,1.83-1.68,1.83-1.68,1.83v.03c-1.39.02-2.78.09-4.17.38-.29.06-.53.29-.6.6-.09.42.18.83.6.92,1.31.28,2.63.35,3.94.38,1.72.14,1.88,2.24,1.88,2.24h.02c-.01,2.24-.02,4.49.13,6.72.03.47.4.85.88.88.52.04.97-.36,1.01-.88v-.17c.16-2.25.16-4.48.14-6.71.16-1.38,1.12-2.09,1.12-2.09h0s1.16-.03,1.16-.03c1.14-.03,2.29-.08,3.43-.3.32-.06.58-.31.65-.65Z" style="fill:#f2dab2;"/><path d="m58.1,9.59c-2.26-.87-5.99-3.18-7.46-9.17-.14-.56-.92-.56-1.05,0-1.48,6-5.2,8.3-7.46,9.17-.46.18-.46.82,0,1,2.26.87,5.99,3.18,7.46,9.17.14.56.92.56,1.05,0,1.48-6,5.2-8.3,7.46-9.17.46-.18.46-.82,0-1Z" style="fill:#f2dab2;"/></g></svg>