<?xml version="1.0" encoding="UTF-8"?><svg id="Layer_2" xmlns="https://www.w3.org/2000/svg" viewBox="0 0 57.18 58.81"><g id="diseño"><path d="m32.69,49.32c-.46.87-1.1,1.62-1.86,2.16-.78.55-1.66.83-2.54.83-.32,0-.63-.04-.95-.11-1.25-.3-1.93-1.1-2.3-1.99-.46.6-1.05,1.09-1.79,1.37,1.39,1.28,2.81,2.38,4.16,3.14,4.19,2.34,7.65-.96,9.34-3.14.05-.07.11-.15.17-.22-.03,0-.05,0-.08,0-1.98-.05-3.37-.74-4.16-2.04Z" style="fill:#f1d9b1;"/><path d="m53.87,18.12c-.08-2.03-.46-3.99-1.07-5.78-.23.27-.48.52-.7.76-.41.44-.71.81-1.29,1.32-.75.56-1.21.68-1.8.79-.29.79-.93,1.54-1.32,2.14-.71,1.05-2.91,1.32-3.01-.34-.08-.69.04-1.04.23-1.54,0-.02.01-.04.02-.06-1.44-.03-2.87-.04-4.24.32,0,0-.41.05-.41.05-.72.11-1.22-.79-.77-1.34,2.18-2.94,6.63-1.59,9.12-2.49l1.01-1.08,1.1-1.21c.19-.21.42-.35.66-.43-.83-1.42-1.83-2.64-2.98-3.55-2.14-1.7-4.64-2.29-7.42-1.76-2.99.57-6.16,3.9-8.93,9.37-.67,1.33-2.01,2.19-3.5,2.23-1.47.09-2.87-.72-3.62-2.01-3.29-5.64-6.41-9.22-8.55-9.81-3.01-.84-6.04-.26-8.53,1.63-2.87,2.18-4.58,5.75-4.58,9.55,0,7.33,3.1,13.22,5.37,17.53l.45.86c1.88,3.6,4.19,5.66,4.58,5.99l.55.36,5.24,3.37c.41.26.68.69.74,1.17.29,2.14,1.16,4.21,1.67,4.41.78-.03,1.21-1.9,1.26-2.43.02-.25.1-.49.23-.71.2-.33.95-1.41,2.17-1.41.03,0,.06,0,.09,0,.37.02,1.29.18,1.84,1.29.3.61.34,1.32.37,2.07.02.46.07,1.43.25,1.65.09,0,.38.07.81-.23.62-.44,1.12-1.35,1.22-2.22.27-2.39,1.81-2.6,2.28-2.61h.04c1.53,0,2.61,1.57,2.76,2.67l.02.12c.11.78.17,1.26,1.58,1.32.17-.17.64-.81,1.22-3.23.35-1.47,1.31-2.21,2.37-2.65.66-.27,1.35-.43,1.95-.57,1.1-.25,2.13-.48,2.88-1.15.99-1.57,8.95-14.45,8.62-22.34ZM13.29,28.89c-.42-4.22,2.19-7.14,2.19-7.14,6.13-2.89,7.85,7.43,7.4,11.01-.45,3.58-5.33,3.33-6.46,2.68-1.12-.66-2.91-4.26-3.14-6.55Zm17.94,12.75c-1.61.08-2.73-.08-4.24,0-.89.05-1.71-.31-2.12-1-.28-.48-.38-1.11-.15-1.89.56-1.93,4.54-1.53,4.54-1.53,3.53-1.06,4.14,2.1,4.3,2.74.12.46-.32,1.09-1.16,1.43-.33.14-.72.24-1.17.26Zm8.45-5.59c-6.52,1.84-7.06-8.67-6.02-12.12,1.04-3.45,5.81-2.41,6.81-1.58,1,.83,2.51,3.15,2.51,5.45.01,6.15-3.3,8.24-3.3,8.24Z" style="fill:#f1d9b1;"/><path d="m57.17,17.98c-.26-6.21-2.76-11.79-6.7-14.91C47.58.78,44.1-.05,40.38.66c-5.14.98-8.96,6.59-11.25,11.12-.19.37-.52.42-.66.42-.18,0-.47-.04-.67-.37C23.92,5.18,20.39,1.36,17.3.5,13.27-.62,9.22.15,5.89,2.68,2.2,5.48,0,10.03,0,14.86c0,8.14,3.46,14.71,5.75,19.06l.44.84c1.02,1.95,2.15,3.51,3.11,4.66.03.25.1.51.26.74.35.54,8.75,13.24,16.25,17.43,1.47.82,2.99,1.22,4.5,1.22,3.2,0,6.39-1.79,9.06-5.21,2.47-3.17,6.39-8.97,7.02-9.92.45-.27.9-.59,1.31-1,.08-.08.15-.17.22-.27.39-.61,9.64-15,9.25-24.43Zm-20.41,33.59c-1.69,2.17-5.15,5.48-9.34,3.14-1.35-.76-2.77-1.86-4.16-3.14.74-.28,1.33-.77,1.79-1.37.37.89,1.05,1.69,2.3,1.99.31.08.63.11.95.11.88,0,1.75-.28,2.54-.83.76-.53,1.4-1.29,1.86-2.16.79,1.3,2.19,1.99,4.16,2.04.03,0,.05,0,.08,0-.06.07-.11.15-.17.22ZM7.88,5.31c2.49-1.89,5.52-2.47,8.53-1.63,2.14.6,5.26,4.17,8.55,9.81.75,1.28,2.15,2.1,3.62,2.01,1.49-.04,2.83-.9,3.5-2.23,2.77-5.47,5.94-8.8,8.93-9.37,2.77-.53,5.27.06,7.42,1.76,1.15.91,2.15,2.13,2.98,3.55-.24.09-.47.23-.66.43l-1.1,1.21-1.01,1.08c-2.5.9-6.94-.45-9.12,2.49-.45.56.06,1.45.77,1.34,0,0,.41-.05.41-.05,1.37-.36,2.8-.35,4.24-.32,0,.02-.02.05-.02.06-.19.51-.31.85-.23,1.54.11,1.66,2.3,1.39,3.01.34.39-.6,1.03-1.35,1.32-2.14.59-.11,1.05-.23,1.8-.79.58-.52.88-.89,1.29-1.32.22-.24.47-.49.7-.76.61,1.79.99,3.75,1.07,5.78.33,7.9-7.63,20.77-8.62,22.34-.75.67-1.79.91-2.88,1.15-.61.14-1.3.29-1.95.57-1.06.44-2.02,1.18-2.37,2.65-.58,2.42-1.05,3.07-1.22,3.23-1.41-.06-1.47-.54-1.58-1.32l-.02-.12c-.16-1.1-1.23-2.67-2.76-2.67h-.04c-.47,0-2.02.22-2.28,2.61-.1.87-.6,1.78-1.22,2.22-.43.3-.72.23-.81.23-.19-.22-.23-1.19-.25-1.65-.04-.75-.07-1.46-.37-2.07-.55-1.12-1.47-1.28-1.84-1.29-.03,0-.06,0-.09,0-1.21,0-1.96,1.07-2.17,1.41-.13.21-.21.46-.23.71-.05.53-.48,2.41-1.26,2.43-.51-.19-1.38-2.27-1.67-4.41-.06-.48-.34-.91-.74-1.17l-5.24-3.37-.55-.36c-.38-.33-2.7-2.39-4.58-5.99l-.45-.86c-2.27-4.3-5.37-10.2-5.37-17.53,0-3.8,1.71-7.37,4.58-9.55Z" style="fill:#222;"/><path d="m26.99,41.64c1.51-.08,2.63.09,4.24,0,.45-.02.84-.12,1.17-.26.84-.35,1.27-.97,1.16-1.43-.16-.64-.77-3.8-4.3-2.74,0,0-3.97-.39-4.54,1.53-.23.79-.13,1.42.15,1.89.41.69,1.23,1.05,2.12,1Z" style="fill:#222;"/><path d="m16.43,35.44c1.12.66,6,.9,6.46-2.68.45-3.58-1.27-13.9-7.4-11.01,0,0-2.62,2.92-2.19,7.14.23,2.29,2.01,5.89,3.14,6.55Z" style="fill:#222;"/><path d="m39.68,36.05s3.31-2.1,3.3-8.24c0-2.3-1.51-4.62-2.51-5.45-1-.83-5.77-1.88-6.81,1.58-1.04,3.45-.5,13.97,6.02,12.12Z" style="fill:#222;"/></g></svg>
