<?xml version="1.0" encoding="UTF-8"?><svg id="Layer_2" xmlns="http://www.w3.org/2000/svg" viewBox="0 0 59.03 76.14"><g id="diseño"><path d="m7.21,15.22c-.42,0-.9.02-1.27.08.1,1.48.14,4.24.15,7.34,1.91.94,3.73,2.01,5.29,3.52.17.18.4.43.6.61.9.64,1.54,1.97,2.58,2.7.97.84,1.99,1.65,3.05,2.36.86.58.03,1.91-.87,1.39-1.13-.66-2.28-1.27-3.45-1.88-.7-.48-1.57-.71-2.38-1.1.14.68.25,1.36.32,2.05.04,1.49-.16,2.89-.44,4.33-.11.54-.63.89-1.17.78-.46-.09-.79-.5-.8-.95-.08-1.15-.07-3.37-.33-4.45-.3-1.07-.64-2.16-1-3.21-.12-.5-.38-1.07-.6-1.65-.27-.19-.53-.38-.8-.56-.02,4.95-.11,9.8-.21,11.18-.2,2.79.11,9.91.25,12.75,2.27.51,7.36,1.72,11.56,3.17,3.52,1.22,7.32,3.76,9.75,5.56.07-5.27.21-15.48.23-17.76.02-2.67,0-14.66,0-17.73-2.06-1.74-10.3-8.11-20.46-8.54Zm19.14,36.14c-2.9-.16-5.07-1.74-6.12-4.87-.76-2.25-.94-5.29-.39-9.2.71-5,3.45-7.48,5.12-8.55.78-.5,1.33-.69,1.33-.69,0,0,.07.03.16.11.16.14.39.43.44.95.07.82-.42,6.79-.54,8.1-.12,1.31-.1,6.13,0,7.36.05.6.19,1.54.32,2.4.13.9.25,1.71.23,1.99-.03.55-.03,2.43-.55,2.4Z" style="fill:#f2dab2;"/><path d="m52.7,37.76c-.04-.61-.09-1.91-.12-3.58-1.72,1.68-7.73,7.45-8.79,5.03-.12-.33-.03-.69.19-.93,2.21-2.28,4.6-4.23,6.67-6.6.57-.46,1.19-1.3,1.87-1.93-.06-5.4-.04-11.87.13-14.45-.38-.05-.87-.09-1.3-.08-10.14.43-18.37,6.8-20.43,8.53,0,3.06-.02,15.05,0,17.73.02,2.27.16,12.49.23,17.76,2.43-1.8,6.23-4.34,9.75-5.56,4.2-1.45,9.29-2.66,11.56-3.18.14-2.83.46-9.95.25-12.75Zm-14.8,8.46c-1,3.41-3.22,5.14-6.23,5.14,0,0-.29-.93,0-2.4.07-.35.14-1.03.21-1.89.22-2.79.41-7.49.38-9.07-.04-1.83-.27-5.57-.58-7.06l.05.05c-.16-.6-.2-1.56.2-2.14.24-.35.59-.37.99-.2,1.66,1.02,4.54,3.48,5.27,8.64.52,3.71.38,6.68-.28,8.93Z" style="fill:#f2dab2;"/><path d="m58.43,23.59c0-.56-.3-1.09-.78-1.38l-2.03-1.26c.02-3.01.07-5.34.15-5.83.18-.64.06-1.3-.35-1.82-.83-1.07-2.74-1.25-4.2-1.21-10.67.45-19.11,6.6-21.95,8.93-2.83-2.33-11.28-8.48-21.97-8.93-1.45-.02-3.34.14-4.17,1.21-.4.52-.53,1.18-.37,1.74.09.51.14,2.81.17,5.77-.06.02-.11.04-.17.07l-1.54.8c-.54.28-.88.84-.89,1.45L0,70.71c0,.44.17.87.49,1.18.31.31.76.52,1.19.48l10.07-.15,9.83-.04c.88,1.5,2.94,3.96,7.07,3.96h.3c4.15,0,6.53-2.51,7.55-3.94l10.12.26,10.81-.3c.9-.03,1.62-.77,1.6-1.67l-.6-46.9Zm-5.93,6.15c-.68.62-1.3,1.46-1.87,1.93-2.08,2.37-4.46,4.33-6.67,6.6-.22.25-.3.6-.19.93,1.07,2.41,7.07-3.35,8.79-5.03.04,1.67.08,2.97.12,3.58.2,2.79-.11,9.91-.25,12.75-2.27.51-7.36,1.72-11.56,3.18-3.52,1.22-7.32,3.76-9.75,5.56-.07-5.27-.21-15.48-.23-17.76-.02-2.67,0-14.66,0-17.73,2.06-1.74,10.29-8.11,20.43-8.53.42-.02.92.02,1.3.08-.17,2.58-.18,9.05-.13,14.45Zm-24.84,11.74c-.02,2.27-.16,12.49-.23,17.76-2.43-1.8-6.23-4.34-9.75-5.56-4.2-1.45-9.29-2.66-11.56-3.17-.14-2.83-.46-9.95-.25-12.75.1-1.39.19-6.24.21-11.18.27.18.53.37.8.56.22.58.49,1.15.6,1.65.36,1.05.69,2.14,1,3.21.26,1.08.25,3.3.33,4.45.01.45.33.86.8.95.54.11,1.06-.24,1.17-.78.28-1.44.47-2.84.44-4.33-.07-.69-.19-1.37-.32-2.05.81.39,1.68.62,2.38,1.1,1.17.61,2.32,1.22,3.45,1.88.9.52,1.73-.81.87-1.39-1.06-.71-2.08-1.51-3.05-2.36-1.04-.72-1.68-2.05-2.58-2.7-.19-.18-.43-.43-.6-.61-1.56-1.51-3.38-2.58-5.29-3.52-.01-3.1-.06-5.86-.15-7.34.38-.05.85-.08,1.27-.08,10.16.43,18.4,6.8,20.46,8.54,0,3.06.02,15.05,0,17.73Zm18.94,27.69l-10.97-.28c-.64,0-1.23.34-1.52.91-.06.12-1.61,3.05-5.18,3.05h-.3c-3.35,0-4.38-2.56-4.48-2.84-.23-.67-.86-1.12-1.56-1.12h0l-10.88.04-8.4.12s.19-16.18.23-16.15c0,0,0,0,0,0v8.45c0,1.35.99,2.45,2.22,2.45h22.5c.23.12.46.2.72.2.11,0,.21-.01.32-.03.11.02.21.03.32.03.25,0,.49-.08.72-.2h22.18c1.23,0,2.22-1.1,2.22-2.45v-8.2c.43-.24.71-.67.77-1.17l.22,16.94-9.1.26Z" style="fill:#222;"/><path d="m26.35,51.36c.52.03.52-1.85.55-2.4.02-.28-.1-1.1-.23-1.99-.13-.86-.27-1.8-.32-2.4-.1-1.23-.12-6.05,0-7.36.12-1.31.62-7.28.54-8.1-.05-.53-.28-.81-.44-.95-.09-.08-.16-.11-.16-.11,0,0-.55.19-1.33.69-1.67,1.07-4.42,3.55-5.12,8.55-.55,3.91-.37,6.95.39,9.2,1.05,3.13,3.22,4.71,6.12,4.87Z" style="fill:#222;"/><path d="m32.91,28.65c-.4-.17-.75-.15-.99.2-.39.59-.35,1.54-.2,2.14l-.05-.05c.31,1.49.54,5.23.58,7.06.04,1.58-.16,6.28-.38,9.07-.07.86-.14,1.54-.21,1.89-.29,1.47,0,2.4,0,2.4,3.01,0,5.23-1.73,6.23-5.14.66-2.25.8-5.22.28-8.93-.73-5.16-3.61-7.62-5.27-8.64Z" style="fill:#222;"/><path d="m28.36,13.77c.34.86,1.67.88,2.03.02.83-2.12.44-4.19.44-6.41-.09-.85-.15-2.19-.18-3.06-.05-1.04-.08-2.09-.15-3.13-.11-1.54-2.38-1.59-2.55-.04-.19,2.13-.33,4.29-.16,6.43.19,2.04-.22,4.2.58,6.21Z" style="fill:#222;"/><path d="m21.44,7.37c.22.46.46.91,1.17,1.19.65.26,1.39-.08,1.62-.73.31-.62.23-1.24-.06-1.75-.58-1.34-1.2-2.67-2.01-3.91-.75-1.2-2.7-.38-2.34,1.02.37,1.47.93,2.85,1.62,4.19Z" style="fill:#222;"/><path d="m15.77,11.97c.42.28.86.54,1.61.42,1.53-.29,1.19-2.4.07-2.93-1.18-.86-2.39-1.67-3.71-2.32-.48-.24-1.09-.16-1.49.24-.51.5-.51,1.32-.01,1.83,1.07,1.08,2.26,1.97,3.54,2.77Z" style="fill:#222;"/><path d="m35.91,8.55c.7-.28.95-.73,1.17-1.19.69-1.34,1.25-2.72,1.62-4.19.36-1.38-1.58-2.23-2.35-1.01-.8,1.24-1.42,2.56-2,3.9-.21.43-.39.87-.18,1.44.17.79.94,1.36,1.74,1.04Z" style="fill:#222;"/><path d="m41.14,12.4c1.3.16,1.91-.7,2.86-1.26.92-.85,3.19-1.9,2.52-3.41-.32-.64-1.1-.9-1.74-.58-1.32.65-2.53,1.47-3.71,2.32-.4.26-.78.55-.89,1.15-.26.76.11,1.65.96,1.78Z" style="fill:#222;"/></g></svg>