<?xml version="1.0" encoding="UTF-8"?><svg id="Layer_2" xmlns="http://www.w3.org/2000/svg" viewBox="0 0 57.04 62.18"><g id="diseño"><path d="m6.11,7.88c1.04.34,2.76.64,4.89.89,2.95-.61,8.86-1.7,13.59-1.71,5.88-.02,9.69,1.21,11.85,2.23.1-.01.21-.02.31-.03,4.53-.53,7.13-1.78,8.13-2.54-3.77-1.6-14.78-3.62-22.96-3.42-9.8.25-16.09,1.94-18.02,3.16-.02.04-.03.09-.01.12,0,.03.24.64,2.22,1.28Z" style="fill:#f2dab2;"/><path d="m37.13,12.53c-2.54.3-5.92.43-9.55.43-8.69,0-18.84-.78-22.48-1.95-.67-.22-1.27-.47-1.79-.74,0,2.01,0,4.75,0,7.69l.69.75,1.01,1.08c2.5.9,6.94-.45,9.12,2.49.45.56-.07,1.45-.77,1.34,0,0-.42-.05-.42-.05-1.34-.3-2.8-.38-4.23-.35,0,0,0,0,0,0-.03.03.13.4.14.45.29.82.13,2.38-1.1,2.37-1.08.04-1.75-.63-2.24-1.44-.32-.4-.67-.95-.87-1.52-.44-.1-.89-.24-1.34-.5,0,5.25.02,10.23.04,12.02.04,3.95.89,11.07,6.12,14.44l5.88,3.78c.41.26.68.69.74,1.17.29,2.14,1.16,4.21,1.67,4.41.75-.02,1.19-1.82,1.26-2.44.03-.25.11-.49.23-.7.21-.33.96-1.4,2.17-1.4.03,0,.06,0,.09,0,.37.02,1.29.18,1.84,1.29.3.61.34,1.32.37,2.07.02.46.07,1.43.25,1.65.08,0,.38.08.81-.23.62-.44,1.12-1.35,1.22-2.22.27-2.39,1.81-2.6,2.28-2.61h.04c1.53,0,2.61,1.58,2.76,2.68l.02.11c.11.78.17,1.26,1.58,1.32.17-.17.64-.81,1.22-3.23.57-2.38,2.74-2.86,4.32-3.21,1.15-.26,2.24-.5,3-1.26,1.73-1.74,2.98-8.56,3.31-12.85.23-2.98,1.1-20.18,1.36-27.39-2.23,1.29-5.53,2.17-8.77,2.55Zm-18.1,28.13c-.45,3.58-5.33,3.33-6.46,2.68-1.12-.66-2.89-2.72-3.37-4.97-.48-2.25,2.43-5.46,2.43-5.46,6.13-2.89,7.85,4.18,7.4,7.76Zm8.35,8.88c-1.61.08-2.73-.08-4.24,0s-2.83-.96-2.27-2.89c.56-1.93,4.54-1.53,4.54-1.53,3.53-1.06,4.14,2.1,4.3,2.74s-.72,1.61-2.33,1.69Zm8.45-5.59c-6.52,1.84-7.06-5.41-6.02-8.87,1.04-3.45,5.81-2.41,6.81-1.58,1,.83,2.41,3.16,2.51,5.45s-3.3,4.99-3.3,4.99Z" style="fill:#f2dab2;"/><path d="m25.4,45.11s-3.97-.39-4.54,1.53c-.56,1.93.76,2.97,2.27,2.89s2.63.09,4.24,0c1.61-.08,2.49-1.05,2.33-1.69s-.77-3.8-4.3-2.74Z" style="fill:#222;"/><path d="m11.63,32.91s-2.91,3.21-2.43,5.46c.48,2.25,2.25,4.31,3.37,4.97,1.12.66,6,.9,6.46-2.68.45-3.58-1.27-10.65-7.4-7.76Z" style="fill:#222;"/><path d="m36.61,33.51c-1-.83-5.77-1.88-6.81,1.58-1.04,3.45-.5,10.71,6.02,8.87,0,0,3.4-2.69,3.3-4.99s-1.51-4.62-2.51-5.45Z" style="fill:#222;"/><path d="m56.37,28.47c-1.68-3.91-5.57-5.51-7.71-6.11.34-7.03.64-14.06.6-15.45-.02-.81-.54-1.54-1.41-2.18-.33-.34-.78-.66-1.45-.9-.05-.02-.11-.03-.16-.04C39.9.8,25.42-.09,21.84,0c-5.08.13-10.2.71-14.02,1.61C4.46,2.4,0,3.81,0,6.96h0c0,.25,0,23.34.05,27.69.05,4.61,1.11,12.98,7.64,17.18l5.26,3.38c.38,2.03,1.57,6.49,4.78,6.49.03,0,.06,0,.09,0,1.39-.04,2.39-.71,3.09-1.62.37.89,1.05,1.69,2.3,1.99.31.08.63.11.95.11.88,0,1.75-.28,2.54-.83.76-.53,1.4-1.29,1.86-2.16.79,1.3,2.19,1.99,4.16,2.04.03,0,.06,0,.09,0,2.93,0,3.87-3.89,4.32-5.76.07-.3.43-.45,1.83-.77,1.42-.32,3.18-.71,4.62-2.15,1.81-1.82,2.89-5.82,3.51-9.24l.1.04,1.36-.95c6.94-1.76,9.94-9.03,7.83-13.93Zm-22.46,26.23c-.58,2.42-1.05,3.07-1.22,3.23-1.41-.06-1.47-.54-1.58-1.32l-.02-.11c-.16-1.1-1.23-2.68-2.76-2.68h-.04c-.47,0-2.02.22-2.28,2.61-.1.87-.6,1.78-1.22,2.22-.43.31-.73.23-.81.23-.19-.22-.23-1.19-.25-1.65-.04-.75-.07-1.46-.37-2.07-.55-1.12-1.47-1.28-1.84-1.29-.03,0-.06,0-.09,0-1.21,0-1.96,1.07-2.17,1.4-.13.21-.21.45-.23.7-.06.62-.5,2.41-1.26,2.44-.51-.19-1.38-2.27-1.67-4.41-.07-.48-.34-.91-.74-1.17l-5.88-3.78c-5.23-3.36-6.08-10.49-6.12-14.44-.02-1.79-.03-6.77-.04-12.02.45.25.89.4,1.34.5.2.57.56,1.12.87,1.52.48.81,1.16,1.49,2.24,1.44,1.23,0,1.39-1.56,1.1-2.37-.01-.05-.17-.42-.14-.45,0,0,0,0,0,0,1.44-.03,2.89.04,4.23.35,0,0,.42.05.42.05.7.11,1.22-.78.77-1.34-2.19-2.94-6.62-1.59-9.12-2.49l-1.01-1.08-.69-.75c0-2.93,0-5.67,0-7.69.53.28,1.12.52,1.79.74,3.64,1.17,13.79,1.95,22.48,1.95,3.63,0,7.01-.14,9.55-.43,3.24-.38,6.54-1.26,8.77-2.55-.25,7.21-1.12,24.41-1.36,27.39-.33,4.29-1.58,11.11-3.31,12.85-.76.76-1.84,1-3,1.26-1.58.35-3.75.84-4.32,3.21ZM44.88,6.72c-1,.75-3.6,2-8.13,2.54-.1.01-.21.02-.31.03-2.16-1.02-5.97-2.25-11.85-2.23-4.73.01-10.65,1.1-13.59,1.71-2.12-.26-3.84-.56-4.89-.89-1.98-.64-2.21-1.26-2.22-1.28-.01-.04,0-.08.01-.12,1.93-1.23,8.22-2.92,18.02-3.16,8.18-.2,19.19,1.82,22.96,3.42Zm8.46,26.85c-.48,2.92-3.77,4.48-5.6,5.13.05-.51.09-.9.1-1.07.1-1.29.35-5.74.61-10.88.55.3,1.28.36,1.84.36,2.18,1.14,3.53,3.52,3.05,6.46Z" style="fill:#222;"/></g></svg>