<?xml version="1.0" encoding="UTF-8"?><svg id="Layer_2" xmlns="https://www.w3.org/2000/svg" viewBox="0 0 38.42 44.93"><g id="diseño"><path d="m34.11,11.84c-.56-.76-1.15-1.4-1.76-1.94-.75.54-1.52.93-2.4,1.2-.36.11-.75-.09-.86-.46-.02-.06-.02-.13-.02-.19,0-.28.15-.53.41-.65.51-.29,1.03-.61,1.5-.96.25-.19.49-.4.71-.61.22-.22.42-.46.58-.71.32-.51.51-1.08.47-1.73-.1-.91-.48-1.77-1.24-2.33-2.46-1.71-6.14-1.57-9.12-1.55-2.96.11-9.23.51-7.13,4.89.12.2.27.38.42.55.21.23.45.44.7.63.28.2.59.38.91.53,1.22.58,2.65.88,3.87,1.29.32.1.46.38.45.66,0,.33-.23.65-.62.67-1.72.03-3.74-.46-5.31-1.47-.47.43-.92.92-1.3,1.5-2.61,3.98-6.46,6.62-8.75,7.08-1.04.21-2.99.6-3.59,1.61-.24.41-.27.92-.07,1.57.37,1.2,1.37,2.23,2.76,2.82,1.8.76,3.92.67,5.69-.24,2-1.03,2.77-2.5,3.04-3.22.08-.33.16-.53.17-.57.17-.44.64-.68,1.09-.56.45.13.73.58.65,1.04,0,.03-.05.26-.17.6-.24,1-.56,3.43,1.49,5.14.01.01.02.02.04.04.02.02.04.04.05.06.02.03.05.05.07.08.01.02.02.03.03.05.02.03.04.07.05.1,0,.02.01.03.02.05.01.04.03.07.03.11,0,.02,0,.04.01.05,0,.04.01.07.01.11h0s0,.01,0,.02c0,.02,0,.03,0,.05,0,.05,0,.09-.01.14,0,0,0,.01,0,.02-.02.11-.04.23-.06.34-.07.35-.13.7-.19,1.04-.09.53-.18,1.05-.26,1.58-.32,2.16-.51,4.32-.43,6.44.07,1.53.29,3.09.91,4.34,1.06,2.58,4.89,2.82,5.69-.07.61-1.71-.06-3.66-.44-5.5-.09-.42-.15-.83-.19-1.24,0-.02,0-.03,0-.05-.04-.42-.05-.84-.05-1.25,0-.42,0-.83.01-1.24.01-.28.01-.56,0-.83-.02-.77-.08-1.54-.06-2.31,0-.57.06-1.14.21-1.71,0-.02,0-.04.01-.06.17-.66,1.16-.6,1.25.07.08.46.11.92.11,1.38,0,.74-.05,1.48-.07,2.22,0,.47.04.94.09,1.4.06.59.14,1.18.23,1.76.42-.06.83-.16,1.24-.28.18-.06.36-.12.54-.19.36-.14.7-.31,1.03-.51.36-.22.69-.46.98-.75.51-.43.91-1.06,1.25-1.63.09-.22.33-.75.42-.97.24-.77.41-1.54.63-2.32.02-.08.04-.17.07-.25.19-.61,1.12-.48,1.14.16.17,2.22-.63,4.54-2.17,6.16,1.36.06,3.02-.15,4.43-1.24,2.46-1.89,2.13-6.95,2.13-7-.01-.17.02-.34.1-.48.13-.25,3.15-6.33-1.39-12.46Zm-15.17-5.98c-.4-.19-.78-.41-1.14-.65-.7-.51-.12-1.59.69-1.31,3.31.97,6.76,1.51,10.01.04.72-.25,1.23.75.63,1.19-.26.19-.53.37-.81.53-.43.25-.88.46-1.35.64-2.06.77-4.41.79-6.53.14-.52-.16-1.02-.36-1.5-.59Z" style="fill:#f1774c;"/><path d="m35.57,10.76c-.61-.83-1.26-1.53-1.92-2.14.69-.96,1.07-2.17.83-3.37-.39-3.4-4.08-4.75-7.01-5.03-3.85-.34-11.73-.81-13.97,2.98-.51.92-.56,2.04-.38,3.06.19.84.59,1.58,1.14,2.2-.51.49-1,1.04-1.42,1.7-2.46,3.75-5.98,5.98-7.59,6.3-1.41.28-3.78.76-4.79,2.46-.51.86-.6,1.88-.25,3.03.52,1.72,1.9,3.17,3.79,3.96,2.29.97,4.99.85,7.23-.3.86-.44,1.54-.95,2.08-1.48.21,1.1.72,2.28,1.79,3.32-.61,3.05-1.08,6.15-.96,9.35.06,3.46,1.48,8.17,5.77,8.13,2.02.12,3.96-1.49,4.46-3.39.71-2.18.1-4.11-.34-6.12.95-.14,1.87-.42,2.72-.85.66.15,1.53.29,2.52.29,1.59,0,3.45-.36,5.11-1.63,2.9-2.23,2.89-7.14,2.84-8.32.6-1.31,3.11-7.71-1.65-14.14Zm-2.3,21.02c-1.41,1.08-3.07,1.3-4.43,1.24,1.54-1.62,2.34-3.94,2.17-6.16-.02-.63-.95-.77-1.14-.16-.02.08-.05.17-.07.25-.22.78-.39,1.55-.63,2.32-.08.22-.33.75-.42.97-.34.57-.74,1.2-1.25,1.63-.29.29-.63.53-.98.75-.32.2-.67.37-1.03.51-.18.07-.36.14-.54.19-.41.13-.82.22-1.24.28-.09-.58-.17-1.17-.23-1.76-.05-.47-.09-.94-.09-1.4.02-.74.07-1.48.07-2.22,0-.46-.03-.92-.11-1.38-.09-.67-1.08-.73-1.25-.07,0,.02,0,.04-.01.06-.15.57-.2,1.14-.21,1.71-.01.77.05,1.54.06,2.31,0,.28,0,.56,0,.83,0,.41-.01.82-.01,1.24,0,.42.01.83.05,1.25,0,.02,0,.03,0,.05.04.4.11.82.19,1.24.38,1.84,1.05,3.79.44,5.5-.79,2.89-4.63,2.65-5.69.07-.62-1.25-.84-2.81-.91-4.34-.08-2.12.11-4.29.43-6.44.08-.53.16-1.06.26-1.58.06-.35.13-.7.19-1.04.02-.11.04-.23.06-.34,0,0,0-.01,0-.02,0-.05.01-.09.01-.14,0-.02,0-.03,0-.05,0,0,0-.01,0-.02h0s0-.07-.01-.11c0-.02,0-.04-.01-.05,0-.04-.02-.08-.03-.11,0-.02-.01-.04-.02-.05-.02-.04-.03-.07-.05-.1-.01-.02-.02-.04-.03-.05-.02-.03-.04-.06-.07-.08-.02-.02-.04-.04-.05-.06-.01-.01-.02-.02-.04-.04-2.05-1.71-1.73-4.14-1.49-5.14.12-.34.17-.57.17-.6.09-.46-.19-.91-.65-1.04-.45-.13-.93.11-1.09.56-.01.04-.09.24-.17.57-.27.72-1.04,2.19-3.04,3.22-1.77.91-3.9,1-5.69.24-1.39-.59-2.4-1.61-2.76-2.82-.2-.65-.17-1.16.07-1.57.6-1.01,2.55-1.4,3.59-1.61,2.29-.46,6.14-3.1,8.75-7.08.38-.59.83-1.08,1.3-1.5,1.57,1.02,3.59,1.5,5.31,1.47.39-.02.61-.35.62-.67,0-.28-.13-.55-.45-.66-1.22-.41-2.65-.7-3.87-1.29-.32-.15-.63-.33-.91-.53-.26-.18-.49-.39-.7-.63-.15-.17-.3-.35-.42-.55-2.1-4.38,4.17-4.77,7.13-4.89,2.99-.02,6.67-.16,9.12,1.55.76.56,1.14,1.42,1.24,2.33.04.65-.15,1.22-.47,1.73-.16.25-.36.49-.58.71-.22.22-.45.42-.71.61-.47.35-.99.67-1.5.96-.25.11-.41.37-.41.65,0,.06,0,.13.02.19.11.36.5.57.86.46.89-.27,1.66-.66,2.4-1.2.61.54,1.2,1.19,1.76,1.94,4.54,6.14,1.52,12.21,1.39,12.46-.08.15-.11.32-.1.48,0,.05.34,5.11-2.13,7Z" style="fill:#222;"/><path d="m28.51,3.95c-3.26,1.46-6.7.92-10.01-.04-.8-.29-1.39.8-.69,1.31.36.24.75.46,1.14.65.48.23.99.43,1.5.59,2.12.64,4.47.62,6.53-.14.47-.17.92-.39,1.35-.64.28-.16.55-.33.81-.53.6-.45.09-1.44-.63-1.19Z" style="fill:#222;"/></g></svg>
