    <svg
          id="Layer_2"
          xmlns="http://www.w3.org/2000/svg"
          viewBox="0 0 19.13 19.13"
        >
          <g id="diseño">
            <path
              d="m14.63,3.42c-.62,0-1.12.5-1.12,1.12s.5,1.12,1.12,1.12,1.12-.5,1.12-1.12-.5-1.12-1.12-1.12Z"
              className='iconColorSVG'
            />
            <path
              d="m9.65,4.85c-2.6,0-4.71,2.11-4.71,4.71s2.11,4.71,4.71,4.71,4.71-2.11,4.71-4.71-2.11-4.71-4.71-4.71Zm0,7.73c-1.66,0-3.02-1.35-3.02-3.02s1.35-3.02,3.02-3.02,3.02,1.35,3.02,3.02-1.35,3.02-3.02,3.02Z"
              className='iconColorSVG'
            />
            <path
              d="m13.39,19.13h-7.64c-3.17,0-5.75-2.58-5.75-5.75v-7.64C0,2.58,2.58,0,5.75,0h7.64c3.17,0,5.75,2.58,5.75,5.75v7.64c0,3.17-2.58,5.75-5.75,5.75ZM5.75,1.8c-2.18,0-3.95,1.77-3.95,3.95v7.64c0,2.18,1.77,3.95,3.95,3.95h7.64c2.18,0,3.95-1.77,3.95-3.95v-7.64c0-2.18-1.77-3.95-3.95-3.95h-7.64Z"
              className='iconColorSVG'
            />
          </g>
        </svg>