<?xml version="1.0" encoding="UTF-8"?><svg id="Layer_2" xmlns="http://www.w3.org/2000/svg" viewBox="0 0 23.47 19.31"><g id="diseño"><path d="m23.37,2.32c-.75.34-1.57.54-2.37.68.38-.06.94-.76,1.17-1.03.34-.43.63-.91.79-1.44.02-.04.04-.09,0-.12-.05-.02-.08,0-.13.01-.9.48-1.83.83-2.81,1.08-.08.02-.14,0-.19-.05-.08-.09-.16-.18-.25-.25-.42-.35-.86-.63-1.36-.84-.66-.27-1.38-.38-2.09-.34-.69.04-1.37.24-1.98.56-.61.32-1.16.77-1.6,1.31-.45.56-.78,1.22-.96,1.91-.16.67-.15,1.34-.05,2.02.02.11,0,.13-.1.11-3.86-.58-7.07-1.96-9.67-4.92-.11-.13-.17-.13-.27,0-1.14,1.71-.59,4.45.84,5.79.19.18.38.36.59.52-.08.02-1.02-.09-1.87-.52-.11-.07-.17-.03-.18.1-.01.18,0,.35.03.55.22,1.73,1.42,3.33,3.06,3.95.19.08.41.15.62.19-.37.08-.76.14-1.83.06-.13-.03-.18.04-.13.17.81,2.19,2.54,2.85,3.84,3.22.17.03.35.03.52.07-.01.02-.02.02-.03.03-.43.66-1.93,1.15-2.63,1.39-1.27.44-2.65.64-3.99.51-.21-.03-.26-.03-.32,0-.06.04,0,.09.06.14.27.18.55.34.83.49.85.45,1.74.81,2.67,1.07,4.79,1.32,10.19.35,13.78-3.22,2.82-2.81,3.81-6.68,3.81-10.55,0-.15.18-.24.29-.32.73-.55,1.33-1.21,1.88-1.95.12-.17.12-.31.12-.37v-.02c0-.06,0-.04-.1,0Z" style="fill:#f2dab2;"/></g></svg>