<!DOCTYPE svg PUBLIC "-//W3C//DTD SVG 1.1//EN" "http://www.w3.org/Graphics/SVG/1.1/DTD/svg11.dtd">
<!-- Uploaded to: SVG Repo, www.svgrepo.com, Transformed by: SVG Repo Mixer Tools -->
<svg width="800px" height="800px" viewBox="0 0 1024 1024" class="icon" version="1.1" xmlns="http://www.w3.org/2000/svg" fill="#000000">
<g id="SVGRepo_bgCarrier" stroke-width="0"/>
<g id="SVGRepo_tracerCarrier" stroke-linecap="round" stroke-linejoin="round"/>
<g id="SVGRepo_iconCarrier">
<path d="M715.720415 207.522102C675.902539 136.26685 603.803606 95.397443 518.015326 95.397443c-129.594189 0-205.287984 72.306782-238.682003 195.401348-20.885213 76.845665 110.976883 131.618411 140.38594 27.173916 15.792407-56.028029 37.099461-79.499576 98.296063-79.499576 33.883437 0 58.475115 13.134401 72.864799 38.912762 15.649063 28.014526 14.18286 62.384309 3.633769 79.571248-17.119363 27.874254-35.489913 44.013758-56.72939 62.663829-44.432528 39.05201-99.619947 88.864031-99.619946 221.809398 0 70.489385 71.537844 71.537844 71.537843 71.537844 39.470779 0 71.537844-32.067064 71.537844-71.537844 0-69.581199 14.880125-82.643928 50.856384-114.224647 25.013518-21.933671 55.960452-49.11066 84.325148-95.35956 39.677604-64.691123 39.399107-152.714544-0.701362-224.324059z" fill="#222222"/>
<path d="M670.72987 403.764058c-24.240485 39.399107-50.648535 62.595229-73.980834 83.134369-40.172141 35.210392-69.16243 60.710256-69.16243 154.531941 0 9.850801-7.965828 17.884205-17.884205 17.884205-9.850801 0-17.884205-8.033404-17.884205-17.884205 0-110.031836 39.470779-144.68114 81.316973-181.430432 22.494761-19.769178 45.759483-40.168045 67.066536-74.960692 22.355512-36.326427 21.307054-91.374598-2.514662-133.850481-23.893388-42.758475-66.436847-66.369271-119.671717-66.369271-86.768138 0-134.762763 39.12061-150.969843 123.022894-1.884973 9.711552-11.213592 16.070904-20.925144 14.182859-9.711552-1.884973-16.067832-11.245333-14.181836-20.956885 19.493753-100.879326 82.05417-152.017278 186.076823-152.017278 66.78804 0 120.368983 30.11042 150.898172 84.672245 30.32134 54.071384 31.018606 122.393204 1.816372 170.040731z" fill="#F2DAB2"/>
<path d="M513.19385 757.121218c-47.433535 0-85.859952 38.423345-85.859951 85.859952 0 47.433535 38.426416 85.859952 85.859951 85.859952 47.364935 0 85.791351-38.426416 85.791352-85.859952 0-47.436607-38.426416-85.859952-85.791352-85.859952z" fill="#222222"/>
<path d="M513.19385 875.187483c-17.812533 0-32.206313-14.39378-32.206313-32.206313 0-17.744957 14.39378-32.206313 32.206313-32.206313 17.744957 0 32.138736 14.461356 32.138737 32.206313-0.001024 17.812533-14.39378 32.206313-32.138737 32.206313z" fill="#f1774c"/>
</g>
</svg>