<svg width="52" height="103" viewBox="0 0 52 103" fill="none" xmlns="https://www.w3.org/2000/svg">
<path d="M40.8502 98.12C40.8502 98.12 40.8902 98.0999 40.9102 98.0799C43.2602 96.1699 50.7702 89.76 51.5302 85.64C51.7702 85.04 51.8402 84.39 51.7002 83.72C51.0202 80.51 45.9702 78.34 37.7702 77.69C37.7702 75.26 37.7502 72.65 37.7402 70.06C37.7102 63.2 37.6802 56.1 37.7402 55.28C37.7802 54.67 37.7002 53.13 37.5502 50.23C37.3302 45.99 36.8302 36.0699 37.3902 34.5499C37.6302 33.9299 37.7402 33.33 37.7302 32.76C37.7302 32.71 37.7302 32.65 37.7302 32.6C37.7302 32.58 37.7302 32.5699 37.7302 32.5499C37.6802 31.8499 37.4602 31.21 37.0402 30.64C35.8702 29.05 33.3702 28.34 29.8402 28.59L28.5102 28.68C28.5102 28.68 28.4602 28.68 28.4402 28.68C28.4002 27.71 28.3502 26.77 28.3102 25.97C29.6902 24.78 31.7802 22.72 32.3502 20.85C33.2102 18 31.9202 13.5 31.9202 11.26C31.9202 9.01995 28.6402 5.72996 28.5502 3.30996C28.4602 0.889957 26.3902 -1.27005 26.3902 2.00995C26.3902 5.28995 26.1302 4.77997 27.0502 9.09997C27.9802 13.42 28.1102 15.75 26.3902 15.93C24.6702 16.11 24.4802 14.98 24.4802 12.56C24.4802 10.14 23.1802 8.40996 22.9202 7.97996C22.6602 7.54996 22.0602 10.83 22.0602 14.29C22.0602 17.75 21.1102 19.39 21.6302 21.55C22.0302 23.23 24.0402 25.21 24.9302 26.02C24.9802 26.86 25.0202 27.88 25.0702 28.94C20.3102 29.36 16.4602 30.18 16.4602 33.15C16.4602 35.62 16.9202 45.23 17.2302 47.85C17.3402 48.78 17.1302 51.4599 16.9302 54.0499C16.6102 58.1399 16.2502 62.7799 16.6102 65.5499C16.8802 67.6 17.1002 72.9599 17.2602 78.0799C13.5902 78.4999 5.0602 79.7 2.3802 82.14C1.3602 83.07 1.1202 83.98 1.1302 84.68C1.1302 84.69 1.1302 84.7 1.1302 84.71C1.1302 85 1.18019 85.25 1.24019 85.44C1.33019 85.75 1.49019 86.08 1.74019 86.42C2.52019 88.09 4.12021 91.34 5.76021 93.37C6.63021 94.45 7.75019 95.41 8.84019 96.2C7.15019 96.4 0.330188 97.24 0.210188 97.78C0.0701878 98.4 4.5702 101.44 17.1002 102.11C29.6302 102.77 51.7102 102.21 51.7102 100.66C51.7102 99.49 46.8002 98.83 40.8602 98.13L40.8502 98.12ZM48.3902 84.4C48.3702 84.46 48.2002 84.69 47.7002 84.95C46.8502 85.37 42.2502 86.18 37.7502 86.84C37.7602 85.44 37.7602 83.44 37.7602 81.09C46.2202 81.8 48.3202 84 48.3802 84.41L48.3902 84.4ZM28.7202 32.0499L30.0602 31.96C32.8602 31.76 34.0602 32.32 34.3002 32.64C34.3202 32.67 34.3302 32.71 34.3302 32.76C34.3202 32.88 34.2002 33.13 33.7902 33.47C32.6402 34.44 30.4502 35.13 28.6702 35.19C28.6402 34.36 28.6002 33.26 28.5602 32.06C28.6102 32.06 28.6702 32.0599 28.7202 32.0499ZM20.5602 47.44C20.2702 45.05 19.8402 36.13 19.8102 33.41C20.5602 32.88 22.9302 32.5499 25.1802 32.3299C25.2102 33.1799 25.2402 33.98 25.2702 34.67C23.6002 34.31 22.8502 34.12 22.8402 34.12C21.9402 33.89 21.0202 34.45 20.7902 35.35C20.5602 36.26 21.1202 37.17 22.0202 37.4C22.0802 37.41 23.4202 37.75 26.6802 38.42C26.6802 38.42 26.6802 38.42 26.6902 38.42C27.2302 38.53 27.8102 38.5799 28.4102 38.5799C30.1502 38.5799 32.0902 38.14 33.7302 37.4C33.6702 40.29 33.8402 44.54 34.1402 50.4C34.2502 52.4799 34.3602 54.63 34.3302 55.07C34.2802 55.93 34.2902 61.31 34.3302 70.07C34.3602 76.75 34.3902 84.21 34.3502 87.2999C32.3202 87.5699 30.5502 87.77 29.4802 87.84C27.0902 88 24.2902 88.11 20.8402 87.91C20.7502 83.37 20.4202 68.99 19.9202 65.09C19.6002 62.67 19.9702 58.02 20.2602 54.29C20.5302 50.82 20.6902 48.6199 20.5502 47.43L20.5602 47.44ZM17.3302 81.46C17.4002 83.97 17.4502 86.19 17.4802 87.63C16.4702 87.52 15.4402 87.39 14.3302 87.22C7.53018 86.19 5.33019 85.0499 4.68019 84.5799C6.25019 83.2299 12.5402 82.02 17.3402 81.45L17.3302 81.46ZM6.96019 89.15C8.68019 89.65 10.9002 90.12 13.8202 90.57C18.0802 91.22 21.6502 91.42 24.6202 91.42C26.5702 91.42 28.2702 91.33 29.7302 91.23C31.9002 91.08 40.5402 89.98 45.6702 88.94C43.9002 90.94 41.4602 93.25 39.1102 95.2C27.8302 97.16 14.5802 95.28 13.6902 95.15C13.0902 94.89 10.0702 93.35 8.3802 91.24C7.9102 90.65 7.4202 89.92 6.9702 89.15H6.96019Z" fill="#231F20"/>
</svg>
