<?xml version="1.0" encoding="UTF-8"?><svg id="Layer_2" xmlns="http://www.w3.org/2000/svg" viewBox="0 0 51.57 102.02"><g id="diseño"><path d="m35.88,84.16s-.58,5.54-4.71,4.81-11.09,2.09-11.73-3.26-1.91-18.84-1.38-20.73,1.29-17.75.63-23.29-.85-10.13,3.55-10.51,9.5-1.6,10.63-.66,3.44,4.51,2.97,8.92.5,22.06.5,22.06l-.46,22.67Z" style="fill:#f2dab2;"/><path d="m40.65,97.78s.04-.02.06-.04c2.35-1.91,9.86-8.32,10.62-12.44.24-.6.31-1.25.17-1.92-.68-3.21-5.73-5.38-13.93-6.03,0-2.43-.02-5.04-.03-7.63-.03-6.86-.06-13.96,0-14.78.04-.61-.04-2.15-.19-5.05-.22-4.24-.72-14.16-.16-15.68.24-.62.35-1.22.34-1.79,0-.05,0-.11,0-.16,0-.02,0-.03,0-.05-.05-.7-.27-1.34-.69-1.91-1.17-1.59-3.67-2.3-7.2-2.05l-1.33.09s-.05,0-.07,0c-.04-.97-.09-1.91-.13-2.71,1.38-1.19,3.47-3.25,4.04-5.12.86-2.85-.43-7.35-.43-9.59s-3.28-5.53-3.37-7.95-2.16-4.58-2.16-1.3c0,3.28-.26,2.77.66,7.09.93,4.32,1.06,6.65-.66,6.83s-1.91-.95-1.91-3.37-1.3-4.15-1.56-4.58c-.26-.43-.86,2.85-.86,6.31s-.95,5.1-.43,7.26c.4,1.68,2.41,3.66,3.3,4.47.05.84.09,1.86.14,2.92-4.76.42-8.61,1.24-8.61,4.21,0,2.47.46,12.08.77,14.7.11.93-.1,3.61-.3,6.2-.32,4.09-.68,8.73-.32,11.5.27,2.05.49,7.41.65,12.53-3.67.42-12.2,1.62-14.88,4.06-1.02.93-1.26,1.84-1.25,2.54,0,.01,0,.02,0,.03,0,.29.05.54.11.73.09.31.25.64.5.98.78,1.67,2.38,4.92,4.02,6.95.87,1.08,1.99,2.04,3.08,2.83-1.69.2-8.51,1.04-8.63,1.58-.14.62,4.36,3.66,16.89,4.33,12.53.66,34.61.1,34.61-1.45,0-1.17-4.91-1.83-10.85-2.53Zm7.54-13.72c-.02.06-.19.29-.69.55-.85.42-5.45,1.23-9.95,1.89.01-1.4.01-3.4.01-5.75,8.46.71,10.56,2.91,10.62,3.32ZM28.53,31.71l1.34-.09c2.8-.2,4,.36,4.24.68.02.03.03.07.03.12-.01.12-.13.37-.54.71-1.15.97-3.34,1.66-5.12,1.72-.03-.83-.07-1.93-.11-3.13.05,0,.11,0,.16-.01Zm-8.16,15.39c-.29-2.39-.72-11.31-.75-14.03.75-.53,3.12-.86,5.37-1.08.03.85.06,1.65.09,2.34-1.67-.36-2.42-.55-2.43-.55-.9-.23-1.82.33-2.05,1.23-.23.91.33,1.82,1.23,2.05.06.01,1.4.35,4.66,1.02,0,0,0,0,0,0,0,0,0,0,.01,0,.54.11,1.12.16,1.72.16,1.74,0,3.68-.44,5.32-1.18-.06,2.89.11,7.14.41,13,.11,2.08.22,4.23.19,4.67-.05.86-.04,6.24,0,15,.03,6.68.06,14.14.02,17.23-2.03.27-3.8.47-4.87.54-2.39.16-5.19.27-8.64.07-.09-4.54-.42-18.92-.92-22.82-.32-2.42.05-7.07.34-10.8.27-3.47.43-5.67.29-6.86Zm-3.23,34.02c.07,2.51.12,4.73.15,6.17-1.01-.11-2.04-.24-3.15-.41-6.8-1.03-9-2.17-9.65-2.64,1.57-1.35,7.86-2.56,12.66-3.13Zm-10.37,7.69c1.72.5,3.94.97,6.86,1.42,4.26.65,7.83.85,10.8.85,1.95,0,3.65-.09,5.11-.19,2.17-.15,10.81-1.25,15.94-2.29-1.77,2-4.21,4.31-6.56,6.26-11.28,1.96-24.53.08-25.42-.05-.6-.26-3.62-1.8-5.31-3.91-.47-.59-.96-1.32-1.41-2.09Z" style="fill:#231f20;"/></g></svg>