<?xml version="1.0" encoding="UTF-8"?><svg id="User_One" xmlns="https://www.w3.org/2000/svg" viewBox="0 0 134 129"><path d="m67.94,119.83c.14.02.26.07.37.13.29,0,1.09,0,2.55-.48.7-.22,1.53-.57,2.54-1.01.74-.32,1.57-.68,2.49-1.15.74-.38,1.62-.68,2.49-1.17.74-.42,1.38-1.16,2.22-1.67.74-.45,1.5-.94,2.32-1.48.73-.48,1.58-.85,2.38-1.4.03-.02.06-.05.1-.08.12-.09.23-.18.34-.27.17-.66.5-.66,1.08-.92.17-.16.35-.32.53-.48.54-.48,1.1-.91,1.6-1.39.14-.14.28-.27.4-.42.6-.69.93-1.58,1.42-2.32.51-.76.96-1.52,1.37-2.31.42-.82.87-1.59,1.19-2.43.34-.86.6-1.72.85-2.58.25-.9.72-1.72.88-2.59.18-.93.21-1.86.31-2.73.11-.97.19-1.88.22-2.73.04-1.03.11-1.96.08-2.74-.06-1.65-.59-2.62-.6-2.67-.03-.21.35-.43.41-.64.01-.04.31-1.06.66-2.74.16-.79.39-1.72.57-2.76.14-.86.11-1.82.24-2.82.12-.89.17-1.83.26-2.8.08-.91,0-1.86.04-2.82.04-.92.27-1.86.27-2.81,0-.93-.21-1.87-.27-2.81-.06-.94-.17-1.86-.29-2.79-.11-.84-.24-1.67-.41-2.49-.87-.16-1.72-.35-2.48-.61-.92-.32-1.85-.61-2.63-1.05-.85-.47-1.63-1.06-2.33-1.64-.75-.62-1.24-1.5-1.83-2.19-.64-.74-1.43-1.35-1.91-2.12-.53-.85-.78-1.83-1.14-2.64-.43-.97-.79-1.87-1.03-2.66-.5-1.66.45-1.82-.43-2.94-.07-.09-.14-.16-.21-.23-.04.15-.08.31-.14.45-.35.85-.8,1.71-1.31,2.5-.49.77-1.11,1.49-1.73,2.21-.6.68-1.47,1.11-2.16,1.74-.67.61-1.25,1.35-2,1.91-.72.54-1.56.93-2.35,1.43-.77.49-1.59.88-2.4,1.33-.8.44-1.62.82-2.45,1.23-.82.4-1.5,1.13-2.35,1.49-.84.36-1.71.68-2.56,1.01-.85.33-1.83.32-2.69.62-.87.3-1.73.58-2.6.85-.88.28-1.73.6-2.6.85-.89.26-1.7.76-2.57.99-.9.24-1.85.19-2.72.4-.92.22-1.75.69-2.61.88-.94.2-1.88.11-2.73.28-.96.19-1.83.52-2.66.66-1.02.18-1.96.11-2.73.22-.37.06-.64.16-.87.27,0,0,0,0,0,0-.06.94.14,1.89.14,2.82,0,.95.13,1.88.18,2.81.05.96.1,1.89.19,2.8.09.97.03,1.93.14,2.82.13.99.33,1.92.47,2.77.18,1.04.31,1.98.47,2.77.35,1.68.68,2.67.69,2.71.06.21-.02.48-.06.69,0,.04-.28,1.06-.34,2.71-.03.78-.09,1.71-.05,2.74.03.84.42,1.73.52,2.69.09.86-.19,1.84-.02,2.76.16.87.48,1.74.74,2.64.24.86.72,1.66,1.05,2.52.32.83.61,1.7,1.03,2.52.41.79,1.07,1.43,1.58,2.2.5.74.83,1.6,1.44,2.3.08.09.16.18.25.27.51.57,1.04,1.14,1.63,1.67.05.04.11.08.16.12.57.35.92.4,1.14.73.06.03.12.06.17.1.27.15.55.31.81.49.8.55,1.49,1.16,2.22,1.64.82.53,1.59,1.02,2.33,1.48.84.52,1.67.9,2.41,1.32.87.49,1.53,1.2,2.28,1.58.92.47,1.76.85,2.49,1.17,1.02.44,1.87.75,2.57.98,1.85.59,2.65.3,2.66.29.11-.02.21-.02.3,0m5.52-53.78c.51-.2,1.4-.47,2.43-.83.75-.26,1.57-.64,2.42-.88.85-.24,1.76-.18,2.55-.33,1-.18,1.82-.2,2.46-.08,1.04.2,2.08.54,2.92,1.16,1.28.95,2.02,2.18,2.18,2.37.52.63.48,1.25-.13,1.79-.27.24-.47.31-.8.31-.41,0-.91.11-1.19-.24-.37-.45-.8-1.23-1.45-1.74-.65-.51-1.45-.73-2.05-.85-.48-.09-1.57-.24-2.86.1-.84.22-1.7.85-2.66,1.18-.92.31-1.83.68-2.69,1.02-.75.3-1.56-.24-1.86-1.01s-.03-1.67.72-1.97Zm-5.84,17.66c1.01,0,1.91.42,2.76.86.91.47,1.66,1.1,2.26,1.8.8.92,1.18,1.82,1.18,2.55,0,.47-.17.87-.49,1.23.06.09.11.19.15.3.31.76.06,1.34-.68,1.66-.83.36-1.55.78-2.3.95-.88.2-1.7.09-2.47.09-1.11,0-2.1.16-2.91-.07-1.61-.45-2.44-1.38-2.52-1.44-.45-.33-.68-.78-.64-1.25-.37-.45-.53-.95-.53-1.47,0-.73.18-1.81.97-2.73.6-.7,1.58-1.08,2.5-1.55.85-.44,1.71-.93,2.73-.93Zm-20.43-16.17c.15-.19.89-1.47,2.15-2.44.84-.64,1.9-1.06,2.93-1.28.65-.14,1.52-.12,2.52.05.79.13,1.63.4,2.48.63.86.23,1.66.61,2.42.86,1.03.34,1.91.62,2.42.82.76.29,1.3,1,1.02,1.78-.28.78-1.24,1.19-1.99.91-.86-.33-1.71-.94-2.63-1.23-.96-.31-2.03-.15-2.88-.36-1.3-.32-2.35-.92-2.82-.81-.6.13-1.11.96-1.75,1.48-.64.53-1.46.88-1.83,1.33-.29.36-.6.77-1.02.77-.33,0-.53-.4-.81-.63-.62-.53-.71-1.22-.2-1.85Zm6.95,12.63c-.02-.32-.04-.65-.04-.98,0-.38.04-.74.1-1.09.13-.74.38-1.42.81-1.97.01-.01.02-.03.03-.05.07-.09.15-.19.23-.27-.29-.04-.6-.06-.94-.04-.77.03-1.41.29-1.95.6-.28.16-.55.34-.77.51-1.25.99-1.46,2.45-1.47,2.48-.1.37-.39.62-.72.77-.03.01-.06.02-.08.03-.31.19-.68.3-1.04.3,0,0-.01,0-.02,0-.02,0-.05.32-.07.32-1.13-.05-2.31-.43-3.26-.89-1.5-.72-2.58-1.77-2.77-1.93-.62-.53-.56-1.47-.04-2.11.52-.63,1.45-.9,2.07-.37l-.13.16c.34.29,1.16.74,2.05,1.2.48.24.98.43,1.48.54,0,0,0,0,.01,0,.16-.34.36-.7.61-1.06.19-.28.41-.57.65-.85.28-.32.59-.64.95-.93.3-.24.64-.44,1-.61.35-.17.72-.32,1.1-.46.69-.25,1.43-.53,2.29-.57.88-.04,1.62.29,2.3.43.48.1.96.11,1.4.16.36.04.69.09.96.25.37.21.62.52.83.83.27.4.46.8.66,1.06,0,0,0,.01,0,.02.28.35.53.71.75,1.07.23.38.41.76.52,1.14.12.4.15.79.06,1.16-.04.15-.1.28-.18.39,0,.18-.02.36-.04.53-.11.89-.4,1.67-.91,2.31-.71.9-1.62,1.36-2.74,1.36-.53,0-1.06-.06-1.56-.21-.56-.17-1.06-.46-1.44-.94-.47-.6-.65-1.42-.72-2.28Zm25.15,22.98s-.37.15-.96.37c-.45.75-.87,1.51-1.45,2.1-.67.69-1.59,1.07-2.37,1.57-.8.51-1.53,1.21-2.41,1.52-.89.31-1.88.25-2.81.35-.93.1-1.85.05-2.78-.05-.93-.1-1.87-.16-2.76-.46-.88-.31-1.62-.91-2.42-1.42-.78-.5-1.76-.78-2.44-1.47-.48-.49-.88-1.09-1.27-1.7-1.21-.52-1.81-.99-1.87-1.02-.68-.44-.93-1.26-.5-1.96.39-.63,1.18-.92,1.83-.66.43-.84,1.18-.23,2.4-.65.73-.25,1.53-.64,2.36-.84.86-.21,1.77,0,2.49,0,.84,0,1.45.15,1.97.39,1.13.53.55,1.3,1.59,1.3s.44-.81,1.57-1.34c.51-.24,1.14-.48,1.99-.48.73,0,1.61,0,2.48.21.82.2,1.59.7,2.31.95,1.17.4,1.85-.26,2.28.39.39.15.74.47.97.84.43.7.47,1.65-.21,2.09Zm13.65-25.19c-.19.16-1.44.82-2.94,1.54-.92.44-1.92.85-3.02.92h0s0,0,0,0c-.07.77-.23,1.49-.66,2.03-.71.9-1.88,1.39-3.01,1.39-.51,0-.95-.16-1.35-.42-.49-.31-.91-.76-1.3-1.26-.39-.5-.83-1.05-1.11-1.67-.18-.4-.3-.84-.3-1.31,0-.37.07-.71.18-1.04.24-.72.69-1.35,1.12-1.91-.13,0-.26,0-.39,0-.13,0-.26,0-.4,0-1.18.05-2.04.4-2.69.92-.52.41-.92.88-1.22,1.28-.4.54-.61.98-.62,1.03-.19.65-.61.91-1.24.91-.09,0-.21.19-.33.3-.05.05-.11.1-.15.08-.42-.13-.74-.51-.92-.96-.14-.37-.19-.78-.09-1.14.06-.2.13-.44.21-.69.16-.5.38-1.06.74-1.58.18-.26.44-.46.72-.66.38-.26.81-.51,1.19-.81.59-.47,1.2-.9,1.99-1.19.62-.23,1.29-.35,2.05-.4.08,0,.15-.02.23-.02.88-.04,1.68-.27,2.36-.12.88.18,1.66.48,2.25.82.52.31.91.69,1.22,1.05.2.23.37.44.51.62.42.52.73,1.09.92,1.66,0,0,.02,0,.03,0,.69-.04,1.41-.14,2.07-.48.88-.45,1.69-.94,2.03-1.23.62-.53,1.54-.52,2.06.11.52.63.45,1.68-.16,2.21Z" style="fill:#f2dab2;"/><path d="m77.95,119.55c-.84.44-1.6.87-2.32,1.21-.88.41-1.77.53-2.48.81-.96.37-1.74.7-2.43.88-1.26.33-2.05.76-2.52.76-.12,0-.2-.11-.27-.22-.08-.1-.19-.21-.32-.21-.47,0-1.3.17-2.57-.16-.69-.18-1.5-.47-2.47-.84-.72-.28-1.54-.56-2.42-.97-.72-.34-1.37-.99-2.21-1.43-.72-.38-1.69-.39-2.5-.86-.71-.41-1.28-1.18-2.07-1.67-.08-.05-.16-.09-.24-.14.35.54.71,1.09,1.14,1.6.55.67,1.07,1.42,1.71,2.05.62.6,1.53.89,2.25,1.42.69.52,1.27,1.25,2.06,1.68.76.41,1.69.43,2.53.72.81.28,1.56.86,2.44,1.01.82.13,1.7.14,2.59.14.01,0,.03,0,.04,0,.9,0,1.8.05,2.63-.09.89-.15,1.64-.73,2.45-1.01.84-.29,1.75-.38,2.5-.79.78-.42,1.6-.82,2.29-1.34.72-.53,1.3-1.25,1.92-1.85.65-.63,1.15-1.37,1.7-2.04.26-.31.53-.61.79-.91-.64.4-1.26.79-1.86,1.13-.81.47-1.65.74-2.37,1.12Z" style="fill:#f3b760;"/><path d="m136.79,126.69c-.27-.86-.86-1.65-1.18-2.58-.28-.85-.68-1.62-1.05-2.4-.38-.8-.8-1.55-1.27-2.29-.47-.75-.75-1.64-1.29-2.32-.55-.69-1.33-1.16-1.92-1.79-.61-.64-1.02-1.48-1.67-2.05-.66-.59-1.45-1.01-2.13-1.53-.71-.54-1.4-1.08-2.1-1.55-.75-.5-1.62-.74-2.34-1.15-.66-.39-1.2-.93-1.76-1.31-.34.36-.82.87-1.38,1.5-.55.61-1.1,1.4-1.81,2.14-.62.65-1.39,1.21-2.07,1.87-.67.65-1.23,1.45-1.92,2.04-.74.64-1.5,1.22-2.21,1.71-.25.17-.58.32-.86.32-.36,0-.73-.26-1.01-.53-.46-.45-.41-1.06-.12-1.63.02-.04.02-.08.04-.12.02-.04.23-1.09.98-2.66.34-.72.83-1.53,1.26-2.51.34-.79.67-1.67,1.04-2.61.33-.82.82-1.64,1.16-2.56.31-.85.46-1.79.76-2.72.29-.86.72-1.71.99-2.64.26-.88.44-1.81.69-2.74.24-.89.48-1.8.69-2.73.21-.9.49-1.81.67-2.74.17-.91.35-1.84.49-2.78.14-.92-.09-1.91,0-2.85.1-.93.16-1.86.21-2.81.06-.94.25-1.86.26-2.81.01-.94.08-1.88.04-2.82-.04-.96.11-1.9.05-2.8-.07-.96-.56-1.84-.66-2.74-.11-.96-.17-1.88-.3-2.77-.15-.95-.11-1.9-.29-2.78-.19-.95-.25-1.9-.48-2.77-.24-.94-.88-1.71-1.15-2.56-.3-.92-.4-1.87-.73-2.69-.36-.9-.75-1.74-1.14-2.54-.43-.87-.86-1.7-1.31-2.45-.51-.83-.94-1.67-1.46-2.37-.59-.78-1.17-1.53-1.76-2.16-.68-.73-1.62-1.05-2.27-1.59-.79-.65-1.49-1.21-2.17-1.63-1.16-.72-2.17-1.61-3.28-2.21-.77-.42-1.59-.74-2.34-1.18-.76-.44-1.47-.93-2.18-1.44-.7-.51-1.41-1.01-2.04-1.64-.6-.61-1.23-1.22-1.74-1.99-.46-.7-.81-1.52-1.18-2.39-.33-.76-.77-1.55-1.01-2.47-.21-.81-.05-1.75-.18-2.69-.15-1.05-.35-2.01-.61-2.82-.32-1.02-.99-1.76-1.44-2.47-.55-.88-1.15-1.56-1.85-2.08-.77-.58-1.55-1.1-2.41-1.42-.87-.32-1.85-.29-2.75-.52-.65-.17-1.17-.7-1.75-.89-.91-.29-1.69-.59-2.33-1.17-.66-.6-1.4-1.19-1.86-1.99-.44-.77-.71-1.69-1.02-2.55-.31-.86-.61-1.74-.87-2.59-.26-.86-.36-1.71-.62-2.43-.31-.87-.49-1.74-.86-2.38-.46-.78-1.17-1.29-1.85-1.7-.63-.38-1.41-.51-2.35-.51-.24,0-.47-.07-.67-.18-.62.1-1.17.31-1.62.58-.67.4-1.03,1.21-1.49,1.99-.37.64-.85,1.32-1.16,2.19-.26.72-.67,1.47-.93,2.33-.26.85-.45,1.75-.76,2.61-.32.86-.56,1.74-1,2.52-.45.8-.86,1.66-1.53,2.26-.64.58-1.51.88-2.42,1.17-.58.19-1.15.55-1.8.72-.9.23-1.9.13-2.77.46-.87.32-1.69.82-2.46,1.4-.7.53-1.11,1.39-1.66,2.26-.45.71-.82,1.51-1.14,2.53-.26.81-.58,1.69-.73,2.74-.14.94-.42,1.79-.63,2.6-.24.92-.54,1.75-.86,2.51-.37.87-.75,1.66-1.21,2.36-.51.77-1.17,1.33-1.77,1.94-.63.63-1.3,1.16-2,1.67-.71.51-1.26,1.28-2.02,1.72-.75.44-1.56.77-2.33,1.19-1.12.6-2.37,1.05-3.53,1.76-.68.42-1.51.87-2.3,1.53-.65.54-1.32,1.19-2,1.92-.59.63-.86,1.61-1.45,2.4-.52.7-1.05,1.43-1.55,2.26-.46.75-.94,1.52-1.37,2.39-.39.79-.92,1.56-1.28,2.46-.33.83-.74,1.67-1.04,2.59-.28.85-.59,1.73-.84,2.67-.23.87-.06,1.86-.25,2.81-.18.88-.41,1.77-.56,2.72-.14.89-.38,1.79-.49,2.75-.1.9-.19,1.83-.26,2.78-.07.9-.11,1.84-.14,2.79-.04.94.05,1.88.07,2.82.01.95-.22,1.9-.16,2.83.06.94.49,1.85.59,2.78.1.94-.14,1.92,0,2.85.14.94.31,1.87.48,2.79.18.94.64,1.8.85,2.7.21.93.41,1.85.65,2.74.24.93.39,1.86.65,2.74.28.92.56,1.82.85,2.69.31.92.59,1.82.9,2.67.34.93.5,1.89.82,2.71.37.94,1.1,1.65,1.44,2.44.43.98.55,1.97.88,2.68.17.36.32.67.46.95.27.37.51.67.95,1.45.34.6.31,1.52-.19,2-.1.1-.23.12-.37.12,0,0,0,0,0,0-.23.13-.5,0-.74,0-.11,0-.21,0-.31-.02-.2.06-.39.12-.55,0-.71-.49-1.29-1.28-2.03-1.92-.69-.6-1.45-1.15-2.12-1.8-.68-.66-1.52-1.16-2.14-1.81-.7-.74-1.29-1.5-1.84-2.12-.59-.66-1.08-1.21-1.41-1.57-.52.38-1.02.88-1.62,1.23-.71.42-1.64.56-2.4,1.06-.7.47-1.43.97-2.14,1.51-.68.52-1.16,1.32-1.82,1.91-.64.57-1.44,1-2.05,1.64-.6.63-.93,1.51-1.48,2.2-.54.68-1.04,1.38-1.52,2.12-.47.74-.9,1.48-1.29,2.28-.38.79-.69,1.59-.97,2.43-.31.93-.71,1.79-.98,2.65-.21.68-.35,1.35-.5,2,.03.03.04.06.08.1.96.99,1.25-.05,2.61-.05s1.36.31,2.72.31,1.36-.07,2.72-.07,1.36-.29,2.72-.29,1.36.09,2.72.09,1.36.36,2.71.36,1.36-.42,2.72-.42,1.36-.01,2.72-.01,1.36-.07,2.71-.07,1.36.21,2.71.21,1.36-.09,2.72-.09,1.36.08,2.71.08,1.36.17,2.71.17,1.36.04,2.71.04,1.36-.32,2.71-.32,1.36.21,2.71.21,1.35.18,2.71.18,1.36-.31,2.71-.31,1.36-.15,2.71-.15,1.36.06,2.71.06,1.36.23,2.71.23,1.36-.03,2.71-.03,1.36-.03,2.71-.03,1.36.01,2.71.01,1.36.13,2.71.13,1.36.08,2.71.08,1.36,0,2.71,0,1.36-.34,2.71-.34,1.36.21,2.71.21,1.36-.18,2.71-.18,1.36.23,2.71.23,1.36-.19,2.71-.19,1.36.14,2.71.14,1.36-.31,2.71-.31,1.36.01,2.71.01,1.36.19,2.71.19,1.35.04,2.71.04,1.35.17,2.71.17,1.36-.1,2.71-.1,1.36,0,2.71,0,1.36-.29,2.71-.29,1.35.38,2.71.38,1.35-.01,2.71-.01,1.35,0,2.71,0,1.35.02,2.71.02,1.35-.31,2.71-.31,1.36.15,2.71.15,1.36-.15,2.71-.15,1.35-.08,2.71-.08,1.35.05,2.71.05,1.75,1.16,2.71.18c.04-.04.06-.08.1-.12-.11-.7-.13-1.46-.36-2.18Zm-30.21-28c-.14.9-.19,1.83-.56,2.62-.37.79-.85,1.59-1.43,2.28-.55.64-1.38,1.05-2.1,1.62-.66.52-1.3,1.13-2.09,1.59-.72.42-1.56.69-2.39,1.06-.76.35-1.56.68-2.41.99-.79.29-1.57.71-2.43.98-.64.2-1.33.33-2.02.48-.06.05-.11.11-.17.16-.61.65-1.09,1.48-1.8,2.09-.24.2-.51.37-.78.52-.29.63-.61,1.31-1.01,2.04-.41.76-1.12,1.41-1.65,2.23-.48.74-1.06,1.45-1.65,2.2-.55.7-1.18,1.35-1.83,2.03-.62.65-1.14,1.43-1.86,2.02-.69.58-1.42,1.13-2.2,1.63-.75.48-1.52,1.01-2.36,1.4-.81.37-1.73.49-2.62.75-.85.25-1.69.67-2.61.8-.69.1-1.41,0-2.14-.04-.16.1-.36.17-.58.17-.94,0-1.82-.26-2.69-.38-.92-.13-1.83-.18-2.67-.42-.89-.26-1.81-.42-2.62-.79-.84-.39-1.65-.86-2.4-1.35-.78-.5-1.52-1.07-2.21-1.64-.71-.6-1.46-1.17-2.08-1.82-.65-.68-1.15-1.49-1.7-2.19-.59-.75-1.21-1.46-1.69-2.2-.53-.82-.64-1.85-1.05-2.6-.42-.77-.95-1.38-1.31-1.99-.21-.2-.42-.4-.63-.59-.71-.61-1.44-1.14-2.05-1.79-.14-.15-.29-.3-.43-.44-.65-.1-1.3-.15-1.9-.33-.86-.26-1.61-.75-2.4-1.04-.85-.31-1.77-.33-2.53-.68-.83-.38-1.5-.99-2.23-1.41-.79-.46-1.45-1.02-2.1-1.53-.72-.57-1.46-1.02-2.01-1.67-.59-.69-.95-1.48-1.32-2.27-.37-.79-.99-1.54-1.13-2.44-.13-.84.12-1.76.21-2.7.07-.83.13-1.72.38-2.64.22-.81.69-1.57,1.05-2.45.34-.81.53-1.72.84-2.59.3-.84.38-1.76.65-2.64.27-.86.63-1.69.87-2.57.24-.87.5-1.74.72-2.62.22-.88.36-1.78.56-2.66.2-.89.39-1.78.56-2.65.18-.9.4-1.78.56-2.65.06-.35.15-.69.23-1.03,0-.02,0-.03,0-.04-.05-.88-.16-1.79-.18-2.7-.02-.89-.01-1.8.02-2.71.03-.89.11-1.81.19-2.71.08-.9.58-1.74.71-2.63.14-.89.29-1.76.49-2.64.21-.88.1-1.85.38-2.7.3-.91.62-1.8.97-2.64.36-.88.82-1.71,1.22-2.53.42-.85,1.12-1.52,1.59-2.31.48-.82.94-1.62,1.46-2.36.54-.77,1.14-1.47,1.73-2.17.6-.72,1.03-1.59,1.67-2.24.66-.67,1.37-1.26,2.07-1.85.71-.61,1.34-1.33,2.07-1.86.76-.54,1.72-.75,2.5-1.21.8-.47,1.62-.87,2.43-1.27.84-.4,1.66-.77,2.51-1.09.87-.33,1.64-.96,2.5-1.2.9-.25,1.82-.39,2.7-.55.92-.17,1.86-.06,2.74-.15.93-.09,1.84-.41,2.72-.41.31,0,.6.13.84.33.66.05,1.33.13,2.02.2.89.09,1.8.07,2.72.24.88.17,1.84.1,2.73.35.86.25,1.72.62,2.59.95.84.32,1.55,1.01,2.39,1.41.81.39,1.72.61,2.52,1.09.78.46,1.6.89,2.36,1.44.74.53,1.35,1.25,2.06,1.86.69.59,1.5,1.06,2.16,1.73.64.65,1.13,1.46,1.73,2.18.58.7,1.18,1.4,1.72,2.18.52.75,1.05,1.51,1.53,2.33.46.79,1.04,1.54,1.46,2.39.14.29.27.6.39.91.04.08.08.16.12.24.13.29.22.6.3.9.07.19.14.38.21.56.35.85.46,1.8.77,2.7.28.85.75,1.63.96,2.51,0,.04.02.08.02.12.47.61.89.89.32,1.64.05.3.1.59.15.89.14.89.14,1.79.22,2.69.08.9.09,1.79.12,2.69.03.91.34,1.81.33,2.7-.02.91-.12,1.82-.18,2.7-.03.47-.04.93-.06,1.39.14.79.25,1.59.41,2.4.18.88.74,1.68.94,2.57.19.88.31,1.78.53,2.66.22.88.19,1.83.43,2.7.24.88.79,1.66,1.06,2.52.27.88.24,1.85.53,2.69.31.87.76,1.67,1.1,2.48.36.87.63,1.71.85,2.52.25.92.64,1.75.71,2.59.08.94-.15,1.83-.28,2.67Z" style="fill:#f3b760;"/><path d="m73.93,105.27c-.84.21-1.8.34-2.84.5-.07.01-.17-.29-.24-.29-.71,0-1.17-.38-1.28-1.12-.12-.82.27-1.54,1.07-1.66.89-.14,1.68-.35,2.4-.53.93-.23,1.65-.67,2.29-.9,1.49-.53,2.19-.97,2.2-.98.31-.2.66-.19.99-.07-.43-.64-1.12.01-2.28-.39-.73-.25-1.49-.75-2.31-.95-.86-.21-1.75-.21-2.48-.21-.84,0-1.47.24-1.99.48-1.12.53-.53,1.34-1.57,1.34s-.46-.77-1.59-1.3c-.51-.24-1.12-.39-1.97-.39-.73,0-1.63-.2-2.49,0-.82.2-1.63.59-2.36.84-1.22.42-1.97-.19-2.4.65.07.03.15.06.22.11.03.02.76.46,2.23.99.64.23,1.44.37,2.37.59.72.18,1.51.31,2.4.45.8.12,1.33,1.13,1.21,1.95-.11.74-.76,1.26-1.46,1.26-.07,0-.15.06-.23.05-1.04-.16-1.91-.62-2.75-.83-1.08-.27-2.03-.37-2.78-.65-.25-.09-.47-.18-.68-.27.39.62.79,1.21,1.27,1.7.67.69,1.65.98,2.44,1.47.8.51,1.55,1.12,2.42,1.42.89.31,1.83.36,2.76.46.93.1,1.85.16,2.78.05.93-.1,1.92-.05,2.81-.35.88-.31,1.61-1.01,2.41-1.52.78-.5,1.7-.88,2.37-1.57.57-.59,1-1.35,1.45-2.1-.44.16-1.02.38-1.74.64-.75.28-1.59.83-2.66,1.09Z" style="fill:#f1774c;"/><path d="m61.42,88.92c0,.52.16,1.03.53,1.47.02-.22.09-.44.24-.66.47-.67,1.39-.94,2.04-.47.08.06.92.64,2.4.91.73.13,1.57.06,2.57-.09.77-.11,1.67-.07,2.58-.47.64-.28,1.21-.03,1.55.53.32-.37.49-.76.49-1.23,0-.73-.38-1.63-1.18-2.55-.6-.7-1.35-1.33-2.26-1.8-.85-.44-1.75-.86-2.76-.86s-1.87.49-2.73.93c-.91.47-1.89.85-2.5,1.55-.8.92-.97,2-.97,2.73Z" style="fill:#f1774c;"/><path d="m64.31,102.43c-.89-.14-1.68-.27-2.4-.45-.93-.23-1.72-.36-2.37-.59-1.48-.53-2.21-.97-2.23-.99-.07-.04-.14-.08-.22-.11-.65-.26-1.44.04-1.83.66-.43.7-.18,1.52.5,1.96.05.03.65.5,1.87,1.02.21.09.43.18.68.27.75.28,1.7.38,2.78.65.84.21,1.71.67,2.75.83.08.01.16-.05.23-.05.71,0,1.35-.52,1.46-1.26.12-.82-.42-1.82-1.21-1.95Z" style="fill:#222;"/><path d="m78.53,100.22c-.33-.13-.68-.13-.99.07-.01,0-.71.44-2.2.98-.65.23-1.36.67-2.29.9-.72.18-1.51.39-2.4.53-.8.12-1.19.84-1.07,1.66.11.74.58,1.12,1.28,1.12.07,0,.17.3.24.29,1.04-.16,2-.29,2.84-.5,1.07-.27,1.92-.82,2.66-1.09.72-.27,1.3-.48,1.74-.64.59-.22.93-.35.96-.37.68-.44.63-1.39.21-2.09-.23-.38-.59-.69-.97-.84Z" style="fill:#222;"/><path d="m137.45,127.33c-.1-.31-.23-.67-.33-1.16-.12-.57-.18-.91-.21-1.21-.04-.42-.03-.76-.03-1.58,0-1.4.31-1.4.31-2.79,0-.38,0-.65-.02-.88-.34-.46-.71-.9-1-1.38-.45-.77-.97-1.47-1.48-2.17-.52-.72-1.03-1.43-1.6-2.09-.59-.67-1.09-1.4-1.72-2.01-.64-.62-1.26-1.25-1.92-1.81-.68-.57-1.4-1.09-2.09-1.59-.72-.53-1.43-1.06-2.14-1.52-.76-.49-1.66-.68-2.38-1.09-.81-.46-1.54-.94-2.26-1.3-.88-.44-1.65-.86-2.33-1.15-.56-.24-1.04-.43-1.42-.59.2-.57.4-1.15.59-1.74.26-.85.27-1.81.52-2.71.24-.86.4-1.76.62-2.67.21-.87.67-1.7.86-2.61.19-.88.1-1.83.26-2.74.15-.89.75-1.72.88-2.64.12-.9.02-1.84.1-2.76.09-.91-.01-1.83.04-2.75.05-.91.25-1.82.26-2.74,0-.91-.09-1.82-.13-2.74-.04-.96-.23-1.88-.29-2.79-.07-.96-.05-1.89-.15-2.8-.1-.96,0-1.91-.14-2.81-.14-.95-.53-1.83-.7-2.72-.19-.95-.37-1.86-.59-2.73-.23-.94-.26-1.9-.53-2.76-.28-.92-.87-1.7-1.18-2.54-.34-.91-.51-1.84-.88-2.65-.4-.88-.96-1.63-1.39-2.41-.47-.85-.68-1.82-1.17-2.55-.54-.81-1.28-1.42-1.83-2.1-.62-.76-1.12-1.56-1.73-2.18-.7-.71-1.38-1.35-2.04-1.88-.79-.64-1.61-1.1-2.3-1.53-.6-.37-1.14-.82-1.72-1.15-.61-.34-1.24-.63-1.83-.95-.8-.43-1.72-.53-2.44-.95-.77-.45-1.28-1.27-1.95-1.78-.7-.53-1.32-1.06-1.89-1.73-.54-.64-1.12-1.26-1.53-2.1-.36-.73-.77-1.51-1.03-2.43-.22-.78-.12-1.69-.26-2.64-.16-1.06-.53-2.01-.78-2.88-.3-1.03-.77-1.9-1.18-2.7-.49-.95-1.02-1.76-1.63-2.43-.7-.77-1.47-1.33-2.25-1.82-.86-.54-1.75-.88-2.62-1.19-.97-.35-1.85-.84-2.7-1.06-.59-.15-1.18-.22-1.71-.39-.84-.27-1.55-.76-2.08-1.54-.46-.67-.95-1.46-1.29-2.36-.3-.8-.57-1.67-.84-2.55-.26-.85-.23-1.84-.55-2.72-.32-.86-.78-1.68-1.23-2.47-.45-.81-.89-1.66-1.55-2.28-.64-.6-1.53-.88-2.43-1.2-.54-.19-1.11-.27-1.75-.31-.23-.11-.49-.17-.73-.17-1,0-1.84.22-2.61.49-.9.32-1.69.7-2.33,1.3-.66.62-1.38,1.25-1.84,2.06-.44.79-.62,1.76-.93,2.62-.32.88-.76,1.72-1.02,2.56-.27.88-.26,1.84-.55,2.64-.33.9-.62,1.82-1.07,2.49-.53.78-1.37,1.22-2.21,1.49-.53.17-1.07.44-1.66.6-.85.22-1.87.22-2.84.57-.87.31-1.64.95-2.5,1.49-.78.49-1.7.88-2.4,1.65-.61.67-1.26,1.46-1.75,2.4-.42.8-.73,1.77-1.03,2.81-.26.87-.42,1.86-.58,2.92-.14.95-.33,1.8-.55,2.58-.26.92-.39,1.81-.75,2.54-.42.83-1.1,1.41-1.64,2.04-.57.67-1.24,1.15-1.94,1.68-.67.51-1.33,1.03-2.11,1.49-.72.42-1.45.87-2.24,1.3-.59.32-1.06.9-1.67,1.24-.58.33-1.34.38-1.94.75-.69.43-1.47.96-2.26,1.59-.66.53-1.41,1.11-2.11,1.82-.61.62-1.2,1.36-1.82,2.12-.55.68-.84,1.63-1.38,2.44-.49.74-1.15,1.42-1.62,2.27-.43.78-1,1.54-1.4,2.42-.37.81-.39,1.83-.73,2.73-.32.84-.66,1.7-.94,2.62-.27.86-.83,1.68-1.06,2.61-.22.88-.08,1.87-.27,2.82-.17.89-.29,1.81-.44,2.76-.13.9-.3,1.81-.4,2.77-.1.9-.2,1.83-.27,2.79-.07.91-.22,1.84-.26,2.79-.03.92-.2,1.84-.2,2.75,0,.92.27,1.83.32,2.74.05.92.27,1.82.36,2.72.09.92-.12,1.87,0,2.77.12.92.36,1.81.51,2.7.16.91.28,1.82.46,2.7.19.91.24,1.84.46,2.72.22.9.58,1.76.82,2.62.25.9.4,1.82.67,2.67.21.67.43,1.31.64,1.95-.36.14-.8.31-1.31.53-.68.29-1.62.33-2.5.77-.72.36-1.41.94-2.22,1.4-.72.41-1.51.8-2.27,1.29-.71.46-1.47.89-2.2,1.43-.69.51-1.36,1.08-2.04,1.65-.66.55-1.14,1.33-1.78,1.95-.62.6-1.34,1.11-1.93,1.78-.57.65-1.23,1.26-1.75,1.97-.51.7-.73,1.62-1.19,2.39-.38.63-.8,1.24-1.15,1.9,0,.1,0,.21,0,.33,0,1.39.4,1.39.4,2.79,0,.65-.04.99-.08,1.32-.05.37-.1.72-.1,1.47,0,1.34-.81,1.68,0,2.58.15-.64.29-1.32.5-2,.27-.86.67-1.71.98-2.65.28-.85.59-1.65.97-2.43.38-.8.82-1.54,1.29-2.28.47-.75.98-1.44,1.52-2.12.55-.69.88-1.57,1.48-2.2.61-.64,1.4-1.07,2.05-1.64.66-.59,1.15-1.39,1.82-1.91.71-.54,1.44-1.04,2.14-1.51.75-.5,1.68-.64,2.4-1.06.61-.36,1.1-.85,1.62-1.23.33.37.82.91,1.41,1.57.55.61,1.14,1.38,1.84,2.12.62.65,1.46,1.14,2.14,1.81.67.65,1.43,1.2,2.12,1.8.74.64,1.32,1.43,2.03,1.92.16.11.36.05.55,0,.1.01.2.02.31.02.24,0,.51.14.74,0,0,0,0,0,0,0,.14,0,.27-.02.37-.12.5-.48.53-1.4.19-2-.44-.78-.68-1.08-.95-1.45-.14-.28-.29-.6-.46-.95-.34-.72-.46-1.7-.88-2.68-.34-.79-1.07-1.5-1.44-2.44-.33-.82-.49-1.78-.82-2.71-.31-.85-.59-1.74-.9-2.67-.29-.86-.57-1.76-.85-2.69-.26-.88-.41-1.82-.65-2.74-.24-.89-.44-1.81-.65-2.74-.21-.9-.67-1.77-.85-2.7-.17-.91-.34-1.85-.48-2.79-.14-.92.1-1.9,0-2.85-.1-.93-.53-1.83-.59-2.78-.06-.94.17-1.89.16-2.83-.01-.94-.1-1.88-.07-2.82.04-.96.08-1.89.14-2.79.07-.96.16-1.88.26-2.78.11-.95.35-1.86.49-2.75.15-.95.38-1.84.56-2.72.19-.94.03-1.94.25-2.81.24-.93.56-1.82.84-2.67.3-.92.71-1.76,1.04-2.59.36-.9.89-1.67,1.28-2.46.43-.87.91-1.64,1.37-2.39.51-.83,1.03-1.57,1.55-2.26.59-.79.86-1.77,1.45-2.4.68-.73,1.36-1.38,2-1.92.79-.66,1.61-1.11,2.3-1.53,1.16-.72,2.41-1.16,3.53-1.76.77-.42,1.59-.75,2.33-1.19.76-.44,1.31-1.2,2.02-1.72.7-.51,1.37-1.03,2-1.67.6-.61,1.27-1.17,1.77-1.94.46-.7.84-1.49,1.21-2.36.33-.76.62-1.59.86-2.51.21-.81.49-1.66.63-2.6.15-1.05.48-1.92.73-2.74.32-1.02.69-1.82,1.14-2.53.55-.87.96-1.74,1.66-2.26.77-.58,1.59-1.08,2.46-1.4.87-.32,1.88-.22,2.77-.46.65-.17,1.22-.53,1.8-.72.91-.29,1.78-.59,2.42-1.17.66-.6,1.07-1.46,1.53-2.26.44-.77.69-1.65,1-2.52.31-.86.5-1.76.76-2.61.26-.86.67-1.61.93-2.33.31-.87.79-1.55,1.16-2.19.46-.79.82-1.59,1.49-1.99.45-.27,1-.47,1.62-.58.21.11.44.18.67.18.94,0,1.72.13,2.35.51.67.4,1.39.91,1.85,1.7.37.64.55,1.51.86,2.38.26.72.36,1.57.62,2.43.26.85.56,1.73.87,2.59.32.86.58,1.78,1.02,2.55.45.8,1.19,1.39,1.86,1.99.64.58,1.42.88,2.33,1.17.58.19,1.1.72,1.75.89.9.23,1.87.2,2.75.52.87.32,1.65.84,2.41,1.42.7.53,1.3,1.21,1.85,2.08.45.71,1.12,1.45,1.44,2.47.25.81.45,1.78.61,2.82.14.94-.03,1.88.18,2.69.24.92.69,1.71,1.01,2.47.37.87.72,1.69,1.18,2.39.51.77,1.14,1.38,1.74,1.99.63.63,1.33,1.13,2.04,1.64.71.51,1.42,1,2.18,1.44.75.44,1.56.76,2.34,1.18,1.12.6,2.12,1.49,3.28,2.21.68.42,1.38.97,2.17,1.63.65.54,1.59.86,2.27,1.59.59.63,1.17,1.37,1.76,2.16.52.7.95,1.54,1.46,2.37.46.75.88,1.58,1.31,2.45.39.79.78,1.64,1.14,2.54.33.83.44,1.77.73,2.69.28.85.91,1.63,1.15,2.56.23.87.28,1.82.48,2.77.18.88.14,1.83.29,2.78.14.89.2,1.82.3,2.77.1.9.59,1.79.66,2.74.07.9-.08,1.85-.05,2.8.04.94-.03,1.89-.04,2.82-.01.95-.2,1.87-.26,2.81-.06.95-.11,1.88-.21,2.81-.1.94.13,1.92,0,2.85-.14.94-.32,1.87-.49,2.78-.18.93-.46,1.84-.67,2.74-.21.93-.46,1.84-.69,2.73-.24.93-.42,1.86-.69,2.74-.28.92-.71,1.77-.99,2.64-.31.92-.46,1.87-.76,2.72-.34.93-.83,1.74-1.16,2.56-.37.94-.7,1.82-1.04,2.61-.43.98-.92,1.79-1.26,2.51-.75,1.57-.96,2.62-.98,2.66-.02.04-.03.08-.04.12-.29.57-.34,1.19.12,1.63.28.27.65.53,1.01.53.28,0,.62-.15.86-.32.71-.49,1.46-1.07,2.21-1.71.69-.59,1.25-1.39,1.92-2.04.68-.66,1.46-1.22,2.07-1.87.7-.74,1.26-1.53,1.81-2.14.57-.63,1.05-1.15,1.38-1.5.57.39,1.1.92,1.76,1.31.72.42,1.59.65,2.34,1.15.7.47,1.39,1.01,2.1,1.55.68.52,1.46.94,2.13,1.53.64.57,1.06,1.41,1.67,2.05.6.63,1.38,1.1,1.92,1.79.54.68.81,1.57,1.29,2.32.47.74.88,1.49,1.27,2.29.38.78.77,1.56,1.05,2.4.31.93.91,1.73,1.18,2.58.23.72.25,1.48.36,2.18.32-.36.43-.64.42-.94,0-.18-.05-.38-.12-.6Z" style="fill:#222;"/><path d="m47.39,69.4c.27.23.48.63.81.63.42,0,.73-.41,1.02-.77.36-.45,1.18-.8,1.83-1.33.64-.52,1.16-1.36,1.75-1.48.47-.11,1.52.49,2.82.81.85.21,1.92.05,2.88.36.92.3,1.77.9,2.63,1.23.75.29,1.71-.13,1.99-.91.28-.78-.26-1.49-1.02-1.78-.51-.2-1.39-.48-2.42-.82-.76-.25-1.56-.63-2.42-.86-.85-.23-1.69-.5-2.48-.63-1-.17-1.87-.18-2.52-.05-1.03.22-2.09.64-2.93,1.28-1.26.97-1.99,2.24-2.15,2.44-.51.64-.42,1.33.2,1.85Z" style="fill:#222;"/><path d="m74.59,69.04c.86-.34,1.77-.71,2.69-1.02.96-.32,1.81-.95,2.66-1.18,1.29-.34,2.39-.2,2.86-.1.6.12,1.4.34,2.05.85.65.52,1.08,1.3,1.45,1.74.29.35.78.24,1.19.24.33,0,.53-.07.8-.31.62-.54.66-1.16.13-1.79-.16-.19-.91-1.43-2.18-2.37-.85-.63-1.89-.96-2.92-1.16-.65-.12-1.47-.11-2.46.08-.79.15-1.71.08-2.55.33-.85.25-1.67.62-2.42.88-1.03.36-1.92.63-2.43.83-.75.3-1.02,1.2-.72,1.97s1.11,1.32,1.86,1.01Z" style="fill:#222;"/><path d="m72.8,92.11c.74-.32,1-.9.68-1.66-.04-.11-.1-.21-.15-.3-.35-.56-.91-.81-1.55-.53-.91.39-1.8.35-2.58.47-1,.15-1.83.22-2.57.09-1.47-.26-2.32-.85-2.4-.91-.65-.47-1.57-.2-2.04.47-.15.22-.22.44-.24.66-.04.47.2.92.64,1.25.08.06.91.99,2.52,1.44.81.23,1.8.07,2.91.07.77,0,1.58.11,2.47-.09.76-.17,1.47-.59,2.3-.95Z" style="fill:#222;"/><path d="m56.29,83.4c.49.15,1.03.21,1.56.21,1.12,0,2.03-.46,2.74-1.36.51-.65.81-1.42.91-2.31.02-.17.03-.35.04-.53.08-.11.14-.24.18-.39.09-.37.05-.76-.06-1.16-.11-.37-.29-.76-.52-1.14-.22-.36-.47-.72-.75-1.07,0,0,0-.01,0-.02-.2-.26-.39-.66-.66-1.06-.21-.31-.46-.61-.83-.83-.27-.16-.6-.21-.96-.25-.44-.04-.92-.06-1.4-.16-.69-.14-1.42-.47-2.3-.43-.86.04-1.6.32-2.29.57-.39.14-.76.29-1.1.46-.36.18-.7.37-1,.61-.36.29-.67.6-.95.93-.24.28-.46.57-.65.85-.25.36-.44.72-.61,1.06,0,0,0,0-.01,0-.5-.11-1.01-.3-1.48-.54-.88-.45-1.71-.9-2.05-1.2l.13-.16c-.62-.53-1.55-.26-2.07.37-.52.63-.58,1.57.04,2.11.19.16,1.26,1.21,2.77,1.93.95.46,2.13.84,3.26.89.02,0,.05-.32.07-.32,0,0,.01,0,.02,0,.36,0,.73-.11,1.04-.3.03-.01.06-.02.08-.03.34-.16.62-.4.72-.77,0-.02.22-1.49,1.47-2.48.22-.18.49-.35.77-.51.54-.31,1.18-.57,1.95-.6.34-.01.65,0,.94.04-.08.09-.16.18-.23.27-.01.01-.02.03-.03.05-.42.55-.68,1.23-.81,1.97-.06.35-.1.71-.1,1.09,0,.33.01.66.04.98.06.87.25,1.69.72,2.28.38.48.88.77,1.44.94Z" style="fill:#222;"/><path d="m91.05,75.65c-.34.29-1.14.78-2.03,1.23-.66.34-1.38.44-2.07.48,0,0-.02,0-.03,0-.19-.57-.51-1.14-.92-1.66-.14-.17-.31-.39-.51-.62-.31-.36-.7-.74-1.22-1.05-.6-.35-1.38-.64-2.25-.82-.69-.14-1.49.08-2.36.12-.08,0-.15.02-.23.02-.75.05-1.42.17-2.05.4-.79.29-1.41.72-1.99,1.19-.38.31-.81.55-1.19.81-.28.2-.54.4-.72.66-.36.52-.58,1.08-.74,1.58-.08.25-.15.49-.21.69-.1.36-.06.77.09,1.14.17.45.5.83.92.96.04.01.1-.03.15-.08.11-.11.23-.3.33-.3.63,0,1.05-.26,1.24-.91.01-.05.22-.49.62-1.03.3-.41.7-.87,1.22-1.28.65-.52,1.52-.87,2.69-.92.14,0,.27,0,.4,0,.13,0,.27,0,.39,0-.43.55-.88,1.19-1.12,1.91-.11.33-.18.67-.18,1.04,0,.47.12.91.3,1.31.28.62.71,1.17,1.11,1.67.39.49.81.94,1.3,1.26.4.26.85.42,1.35.42,1.12,0,2.3-.49,3.01-1.39.42-.54.59-1.26.66-2.03,0,0,0,0,0,0h0c1.1-.07,2.09-.47,3.02-.92,1.5-.72,2.76-1.38,2.94-1.54.62-.53.68-1.57.16-2.21-.52-.63-1.44-.64-2.06-.11Z" style="fill:#222;"/><path d="m106.15,93.43c-.22-.81-.48-1.64-.85-2.52-.34-.81-.79-1.61-1.1-2.48-.3-.84-.26-1.81-.53-2.69-.27-.86-.81-1.64-1.06-2.52-.24-.87-.21-1.82-.43-2.7-.22-.88-.33-1.78-.53-2.66-.2-.89-.77-1.69-.94-2.57-.16-.81-.27-1.62-.41-2.4.02-.46.03-.92.06-1.39.05-.88.16-1.78.18-2.7.02-.89-.3-1.79-.33-2.7-.03-.89-.04-1.79-.12-2.69-.08-.9-.08-1.8-.22-2.69-.05-.3-.1-.59-.15-.89.57-.75.15-1.03-.32-1.64,0-.04-.01-.08-.02-.12-.21-.88-.67-1.67-.96-2.51-.3-.91-.42-1.86-.77-2.7-.08-.19-.15-.37-.21-.56-.08-.3-.17-.61-.3-.9-.04-.08-.08-.16-.12-.24-.12-.31-.24-.62-.39-.91-.42-.85-.99-1.6-1.46-2.39-.48-.82-1-1.58-1.53-2.33-.54-.77-1.14-1.48-1.72-2.18-.6-.72-1.09-1.54-1.73-2.18-.66-.67-1.47-1.14-2.16-1.73-.71-.61-1.32-1.33-2.06-1.86-.76-.54-1.58-.98-2.36-1.44-.8-.47-1.71-.7-2.52-1.09-.84-.4-1.54-1.09-2.39-1.41-.87-.33-1.73-.7-2.59-.95-.9-.25-1.86-.19-2.73-.35-.92-.17-1.83-.15-2.72-.24-.69-.07-1.36-.15-2.02-.2-.24-.2-.53-.33-.84-.33-.88,0-1.79.32-2.72.41-.89.09-1.83-.03-2.74.15-.88.17-1.8.3-2.7.55-.86.25-1.63.87-2.5,1.2-.84.32-1.67.69-2.51,1.09-.82.39-1.63.79-2.43,1.27-.78.46-1.74.67-2.5,1.21-.74.53-1.36,1.25-2.07,1.86-.69.59-1.41,1.18-2.07,1.85-.64.65-1.06,1.52-1.67,2.24-.58.7-1.18,1.39-1.73,2.17-.52.75-.98,1.55-1.46,2.36-.46.79-1.16,1.46-1.59,2.31-.4.82-.86,1.65-1.22,2.53-.35.85-.66,1.74-.97,2.64-.28.85-.17,1.82-.38,2.7-.2.87-.36,1.74-.49,2.64-.14.89-.64,1.73-.71,2.63-.08.9-.17,1.81-.19,2.71-.03.91-.03,1.82-.02,2.71.02.91.13,1.82.18,2.7,0,.02,0,.03,0,.04-.09.34-.17.68-.23,1.03-.16.87-.37,1.75-.56,2.65-.18.88-.37,1.76-.56,2.65-.19.88-.34,1.77-.56,2.66-.22.88-.48,1.75-.72,2.62-.24.88-.61,1.71-.87,2.57-.27.88-.36,1.8-.65,2.64-.31.87-.5,1.77-.84,2.59-.36.87-.83,1.64-1.05,2.45-.25.92-.31,1.81-.38,2.64-.08.94-.34,1.86-.21,2.7.14.9.75,1.64,1.13,2.44.37.79.73,1.58,1.32,2.27.55.64,1.29,1.1,2.01,1.67.66.52,1.31,1.07,2.1,1.53.72.42,1.4,1.03,2.23,1.41.76.35,1.69.37,2.53.68.79.29,1.54.78,2.4,1.04.6.18,1.25.23,1.9.33.15.15.29.29.43.44.61.65,1.34,1.18,2.05,1.79.22.19.42.39.63.59.36.61.89,1.22,1.31,1.99.41.76.52,1.78,1.05,2.6.48.74,1.1,1.45,1.69,2.2.55.71,1.06,1.51,1.7,2.19.62.65,1.37,1.23,2.08,1.82.69.58,1.43,1.14,2.21,1.64.75.48,1.56.96,2.4,1.35.81.37,1.73.53,2.62.79.85.25,1.75.3,2.67.42.87.12,1.75.38,2.69.38.23,0,.42-.06.58-.17.73.05,1.45.14,2.14.04.92-.13,1.76-.55,2.61-.8.89-.26,1.81-.38,2.62-.75.84-.39,1.6-.92,2.36-1.4.78-.5,1.51-1.06,2.2-1.63.71-.6,1.24-1.37,1.86-2.02.65-.68,1.28-1.32,1.83-2.03.59-.75,1.17-1.46,1.65-2.2.53-.82,1.25-1.48,1.65-2.23.4-.73.72-1.42,1.01-2.04.28-.16.55-.32.78-.52.71-.61,1.19-1.43,1.8-2.09.05-.06.11-.11.17-.16.69-.16,1.37-.29,2.02-.48.86-.26,1.64-.69,2.43-.98.85-.31,1.65-.65,2.41-.99.83-.38,1.67-.64,2.39-1.06.79-.46,1.44-1.08,2.09-1.59.72-.57,1.55-.98,2.1-1.62.59-.69,1.06-1.49,1.43-2.28.37-.79.42-1.72.56-2.62.13-.84.37-1.73.28-2.67-.07-.83-.46-1.67-.71-2.59Zm-24.75,24.78c-.55.67-1.06,1.41-1.7,2.04-.62.6-1.21,1.32-1.92,1.85-.69.52-1.51.92-2.29,1.34-.76.41-1.66.5-2.5.79-.81.28-1.56.86-2.45,1.01-.83.14-1.73.09-2.63.09-.01,0-.03,0-.04,0-.89,0-1.77,0-2.59-.14-.89-.15-1.64-.73-2.44-1.01-.84-.29-1.77-.31-2.53-.72-.78-.42-1.36-1.16-2.06-1.68-.72-.53-1.63-.82-2.25-1.42-.65-.63-1.16-1.39-1.71-2.05-.43-.52-.79-1.06-1.14-1.6.08.05.16.09.24.14.79.49,1.36,1.26,2.07,1.67.81.47,1.78.48,2.5.86.84.44,1.49,1.1,2.21,1.43.88.41,1.71.69,2.42.97.96.37,1.78.66,2.47.84,1.27.34,2.1.16,2.57.16.13,0,.24.11.32.21.07.11.15.22.27.22.47,0,1.26-.43,2.52-.76.69-.18,1.47-.51,2.43-.88.72-.28,1.6-.4,2.48-.81.72-.34,1.48-.76,2.32-1.21.72-.38,1.56-.65,2.37-1.12.59-.34,1.22-.73,1.86-1.13-.26.3-.53.6-.79.91Zm15.85-47.83c-.05.96.04,1.91-.04,2.82-.09.97-.14,1.91-.26,2.8-.13.99-.1,1.96-.24,2.82-.18,1.05-.41,1.98-.57,2.76-.35,1.68-.65,2.7-.66,2.74-.06.21-.44.43-.41.64,0,.04.54,1.02.6,2.67.03.78-.04,1.71-.08,2.74-.03.84-.11,1.76-.22,2.73-.09.87-.13,1.8-.31,2.73-.16.87-.63,1.69-.88,2.59-.24.86-.51,1.71-.85,2.58-.32.83-.77,1.61-1.19,2.43-.41.79-.86,1.55-1.37,2.31-.5.74-.82,1.62-1.42,2.32-.13.15-.26.28-.4.42-.5.48-1.06.91-1.6,1.39-.17.16-.35.32-.53.48-.58.26-.9.26-1.08.92-.11.09-.22.19-.34.27-.03.02-.06.05-.1.08-.8.55-1.65.92-2.38,1.4-.81.53-1.58,1.02-2.32,1.48-.84.51-1.47,1.25-2.22,1.67-.87.49-1.75.79-2.49,1.17-.92.47-1.75.83-2.49,1.15-1.01.44-1.84.78-2.54,1.01-1.46.47-2.26.49-2.55.48-.12-.07-.24-.12-.37-.13,0,0,0,0,0,0-.1-.01-.2-.01-.3,0-.01,0-.81.3-2.66-.29-.7-.22-1.56-.54-2.57-.98-.74-.32-1.58-.7-2.49-1.17-.75-.38-1.41-1.09-2.28-1.58-.74-.42-1.57-.81-2.41-1.32-.74-.45-1.52-.94-2.33-1.48-.73-.48-1.43-1.09-2.22-1.64-.26-.18-.53-.33-.81-.49-.06-.03-.12-.06-.17-.1-.22-.32-.57-.38-1.14-.73-.05-.04-.11-.07-.16-.12-.59-.53-1.12-1.1-1.63-1.67-.08-.09-.17-.18-.25-.27-.6-.69-.94-1.56-1.44-2.3-.51-.76-1.17-1.4-1.58-2.2-.42-.82-.71-1.68-1.03-2.52-.33-.86-.81-1.66-1.05-2.52-.25-.9-.57-1.77-.74-2.64-.18-.93.11-1.9.02-2.76-.11-.96-.49-1.85-.52-2.69-.04-1.03.02-1.96.05-2.74.06-1.66.33-2.67.34-2.71.03-.21.11-.48.06-.69-.01-.04-.35-1.03-.69-2.71-.16-.79-.3-1.72-.47-2.77-.14-.86-.34-1.78-.47-2.77-.12-.89-.05-1.85-.14-2.82-.08-.91-.14-1.84-.19-2.8-.04-.92-.18-1.86-.18-2.81,0-.93-.2-1.88-.14-2.82,0,0,0,0,0,0,.23-.11.5-.22.87-.27.77-.12,1.71-.04,2.73-.22.83-.14,1.7-.48,2.66-.66.85-.17,1.8-.08,2.73-.28.86-.19,1.69-.66,2.61-.88.87-.21,1.82-.16,2.72-.4.87-.23,1.68-.73,2.57-.99.87-.25,1.72-.58,2.6-.85.87-.27,1.73-.55,2.6-.85.86-.3,1.83-.29,2.69-.62.85-.33,1.72-.65,2.56-1.01.85-.36,1.53-1.1,2.35-1.49.83-.4,1.66-.79,2.45-1.23.81-.45,1.63-.84,2.4-1.33.79-.5,1.63-.89,2.35-1.43.75-.56,1.33-1.31,2-1.91.7-.63,1.57-1.06,2.16-1.74.62-.71,1.24-1.44,1.73-2.21.51-.79.95-1.65,1.31-2.5.06-.15.1-.3.14-.45.07.07.14.13.21.23.87,1.12-.07,1.28.43,2.94.24.79.6,1.69,1.03,2.66.36.81.61,1.79,1.14,2.64.48.77,1.27,1.38,1.91,2.12.59.69,1.08,1.57,1.83,2.19.7.58,1.48,1.17,2.33,1.64.78.44,1.71.73,2.63,1.05.77.26,1.61.45,2.48.61.17.82.3,1.64.41,2.49.12.93.23,1.85.29,2.79.06.94.27,1.88.27,2.81,0,.95-.22,1.89-.27,2.81Z" style="fill:#222;"/></svg>
