<?xml version="1.0" encoding="UTF-8"?><svg id="User_Three" xmlns="https://www.w3.org/2000/svg" viewBox="0 0 134 129"><path d="m77.24,123.91c.71-.53,1.21-1.3,1.84-1.91.65-.63,1.23-1.26,1.78-1.93.58-.71,1.16-1.36,1.64-2.07.29-.43.54-.86.77-1.28-.85.56-1.66,1.07-2.42,1.55-.88.55-1.79.9-2.57,1.35-.91.53-1.76.98-2.53,1.39-.96.51-1.77,1.05-2.53,1.4-1.05.48-1.9.97-2.63,1.22-1.24.41-2.09.41-2.63.4-.07.03-.14.06-.23.08-.03,0-.08-.04-.13-.09-.15-.01-.26-.03-.33-.05-.17-.04-.33-.11-.47-.2-.51-.05-1.23-.21-2.29-.56-.74-.25-1.69-.38-2.74-.85-.77-.35-1.72-.59-2.68-1.09-.78-.41-1.55-1.02-2.46-1.55-.77-.45-1.6-.96-2.47-1.51-.77-.48-1.46-1.2-2.31-1.77-.39-.26-.79-.54-1.2-.83.05.1.09.21.14.31.41.72,1.03,1.39,1.56,2.17.48.71.95,1.47,1.53,2.18.55.67,1.13,1.35,1.78,1.98.62.6,1.32,1.17,2.03,1.71.69.52,1.53.84,2.31,1.26.76.41,1.5.88,2.35,1.17.8.28,1.68.31,2.57.46.6.1,1.2.33,1.83.45.22-.17.47-.27.75-.27.9,0,1.75-.04,2.58-.18.89-.15,1.71-.35,2.51-.63.84-.29,1.67-.55,2.42-.95.78-.42,1.56-.84,2.25-1.36Z" style="fill:#f3b760;"/><path d="m135.93,127.22c-.27-.86-.6-1.74-.91-2.67-.28-.85-.47-1.71-.84-2.5-.38-.8-.83-1.55-1.29-2.29-.47-.75-1.02-1.42-1.56-2.1-.55-.69-1.09-1.37-1.68-2-.61-.64-1.04-1.47-1.68-2.04-.66-.59-1.59-.82-2.27-1.34-.71-.54-1.41-1.03-2.11-1.5-.75-.5-1.27-1.34-1.98-1.76-.62-.37-1.24-.67-1.82-.96-.31.38-.8.97-1.42,1.67-.55.61-1.16,1.35-1.86,2.09-.62.65-1.29,1.32-1.97,1.98-.67.65-1.58,1.04-2.27,1.63-.48.42-.94.84-1.4,1.22-.05.1-.08.18-.1.21-.21.37-.61.52-1.01.57-.12.05-.23.08-.37.08-.09,0-.17-.02-.24-.05-.17.01-.35.02-.5-.07-.7-.41-.98-1.41-.59-2.13.02-.04.56-.91,1.3-2.48.34-.72.8-1.54,1.23-2.53.34-.79.75-1.64,1.13-2.57.33-.82.57-1.74.9-2.67.31-.85.51-1.77.81-2.7.29-.86.74-1.7,1.01-2.63.26-.88.48-1.8.72-2.72.23-.89.62-1.77.83-2.7.21-.9.45-1.82.63-2.75.17-.91-.14-1.93,0-2.86.14-.92.46-1.82.56-2.77.1-.93.39-1.85.45-2.8.06-.94-.16-1.89-.15-2.84.01-.94.04-1.88,0-2.82-.04-.96-.28-1.87-.34-2.77-.07-.96.13-1.91.03-2.8-.11-.96-.15-1.89-.28-2.79-.15-.95-.38-1.86-.56-2.74-.19-.95-.5-1.83-.73-2.7-.24-.93-.68-1.76-.96-2.61-.3-.92-.35-1.88-.68-2.71-.36-.9-.95-1.64-1.35-2.43-.43-.87-.64-1.81-1.1-2.56-.51-.83-1.24-1.43-1.77-2.13-.59-.79-1.17-1.47-1.75-2.1-.68-.73-1.1-1.62-1.75-2.16-.78-.65-1.56-1.17-2.24-1.59-1.16-.72-2.35-1.27-3.47-1.87-.77-.42-1.66-.62-2.4-1.06-.76-.44-1.53-.89-2.24-1.4-.7-.51-1.26-1.24-1.89-1.87-.6-.61-1.01-1.4-1.51-2.16-.46-.7-.96-1.41-1.32-2.28-.33-.76-.75-1.55-.99-2.47-.21-.81-.44-1.68-.58-2.62-.15-1.05,0-2.07-.25-2.88-.32-1.02-1.08-1.7-1.53-2.41-.55-.87-1.1-1.56-1.79-2.09-.76-.57-1.55-1.03-2.41-1.35-.87-.32-1.71-.79-2.61-1.02-.65-.17-1.29-.23-1.87-.41-.91-.29-1.62-.74-2.26-1.32-.66-.6-1.39-1.17-1.84-1.97-.44-.77-.73-1.67-1.04-2.53-.31-.86-.34-1.82-.6-2.67-.26-.86-.84-1.54-1.1-2.26-.31-.87-.7-1.56-1.07-2.21-.45-.79-.76-1.56-1.43-1.96-.54-.33-1.2-.55-1.97-.61-.08.02-.17.03-.26.03-.94,0-1.62.39-2.26.78-.67.4-1.14.96-1.59,1.74-.37.64-.85,1.31-1.16,2.18-.26.72-.61,1.48-.87,2.34-.26.85-.28,1.82-.59,2.68-.31.86-.87,1.62-1.31,2.39-.45.8-.83,1.69-1.49,2.28-.64.58-1.47,1.02-2.37,1.31-.58.19-1.19.41-1.84.58-.9.23-1.8.41-2.67.73-.86.32-1.7.66-2.47,1.23-.7.53-1.36,1.15-1.91,2.03-.45.71-.91,1.53-1.23,2.55-.25.81-.38,1.76-.53,2.81-.14.94-.2,1.85-.41,2.65-.24.92-.56,1.77-.88,2.54-.37.87-1.01,1.51-1.48,2.21-.51.77-.86,1.62-1.46,2.22-.63.63-1.28,1.25-1.98,1.76-.71.51-1.49.93-2.24,1.38-.75.44-1.68.53-2.45.95-1.11.6-2.14,1.46-3.3,2.18-.68.42-1.45.92-2.23,1.57-.65.54-1.21,1.26-1.89,1.99-.59.63-1.26,1.25-1.84,2.04-.52.7-.86,1.57-1.36,2.41-.46.75-1.21,1.38-1.64,2.25-.39.79-.65,1.7-1.01,2.6-.33.83-.65,1.69-.95,2.61-.28.85-.56,1.73-.8,2.67-.22.87-.39,1.78-.58,2.73-.18.88-.37,1.79-.52,2.74-.14.89-.06,1.84-.17,2.79-.1.9-.35,1.81-.42,2.76-.07.9.04,1.84,0,2.8-.04.94-.26,1.88-.24,2.82.01.95.3,1.87.36,2.81.06.94-.24,1.92-.14,2.84.1.94.25,1.88.39,2.8.14.94.42,1.85.59,2.76.18.94.22,1.89.43,2.8.21.93.66,1.79.89,2.68.24.93.51,1.83.77,2.71.28.92.51,1.84.79,2.7.31.92.76,1.75,1.07,2.6.34.93.6,1.84.92,2.66.37.94.45,1.94.79,2.72.42.98,1.03,1.74,1.37,2.45.74,1.57,1.35,2.39,1.37,2.43.18.32.17.67.06,1-.03.37-.17.73-.43.99-.28.27-.69.45-1.05.45-.11,0-.21-.06-.3-.14-.41-.07-.82-.29-1.04-.68-.03-.05-.1-.16-.19-.32-.44-.34-.88-.7-1.33-1.09-.69-.6-1.61-.96-2.28-1.62-.68-.66-1.36-1.34-1.97-1.98-.7-.74-1.09-1.69-1.64-2.31-.53-.6-1.03-1.05-1.41-1.36-.64.28-1.36.51-2.03.91-.71.42-1.37,1.02-2.12,1.52-.7.47-1.5.85-2.21,1.4-.68.52-1.11,1.38-1.77,1.97-.64.57-1.24,1.18-1.85,1.82-.6.63-1.51.98-2.06,1.67-.54.68-1.05,1.42-1.52,2.17-.47.74-.84,1.56-1.22,2.36-.38.79-.38,1.74-.66,2.58-.31.93-.8,1.76-1.07,2.62-.23.73-.42,1.44-.61,2.13.03.04.05.07.08.11.96.99,1.38-.12,2.74-.12s1.36-.02,2.72-.02,1.36.11,2.71.11,1.36-.12,2.71-.12,1.36-.07,2.71-.07,1.35.27,2.71.27,1.36.1,2.71.1,1.36-.26,2.71-.26,1.36.22,2.71.22,1.35-.24,2.71-.24,1.36.26,2.71.26,1.35.05,2.71.05,1.36-.38,2.71-.38,1.35.39,2.71.39,1.35,0,2.71,0,1.35-.07,2.71-.07,1.35-.35,2.7-.35,1.35.42,2.71.42,1.35-.25,2.71-.25,1.35-.04,2.71-.04,1.35.08,2.71.08,1.35-.27,2.71-.27,1.35.06,2.71.06c.54,0,.87.02,1.15.05-.79-.25-1.54-.55-2.27-.88-.84-.39-1.61-.83-2.36-1.32-.78-.5-1.44-1.11-2.13-1.68-.71-.6-1.7-.87-2.32-1.52-.65-.68-1.12-1.52-1.67-2.22-.59-.75-.97-1.61-1.45-2.36-.53-.82-.95-1.64-1.35-2.4-.49-.91-.88-1.75-1.2-2.48-.28-.63-.52-1.16-.7-1.57-.45-.49-.86-1.02-1.3-1.48-.5-.53-.92-1.11-1.34-1.68-.52-.46-1.1-.86-1.48-1.4-.28-.4-.45-.86-.62-1.32-.49-.8-.89-1.65-1.3-2.47-.01-.03-.02-.06-.04-.08-.17-.28-.33-.56-.45-.86-.3-.74-.5-1.5-.71-2.25-.31-.68-.68-1.32-.88-2.01-.27-.93-.5-1.84-.69-2.73-.21-.96-.26-1.9-.39-2.79-.14-.99-.53-1.9-.59-2.77-.08-1.05-.04-2.01-.05-2.83-.01-1.35.22-2.34.25-2.81-.11-.44-.25-1.39-.53-2.68-.16-.77-.25-1.69-.43-2.69-.14-.83-.32-1.73-.46-2.69-.12-.86-.17-1.77-.26-2.71-.09-.88-.54-1.76-.6-2.69-.06-.89-.06-1.81-.08-2.74-.02-.9-.09-1.82-.06-2.74.03-.91.19-1.82.27-2.73.08-.91.46-1.78.6-2.68.14-.9.07-1.84.28-2.73.21-.89.52-1.75.81-2.61.31-.92.7-1.77,1.05-2.63.37-.89.52-1.87.93-2.7.23-.47.57-.88.9-1.28.09-.27.18-.54.28-.78.2-.47.65-.88,1.14-1.35.26-.44.53-.87.81-1.28.55-.78.99-1.63,1.58-2.34.61-.73,1.1-1.57,1.75-2.23.67-.68,1.37-1.31,2.07-1.91.72-.61,1.62-.98,2.36-1.51.77-.55,1.5-1.12,2.29-1.59.81-.48,1.68-.8,2.51-1.2.85-.41,1.73-.66,2.58-.98.88-.33,1.69-.79,2.57-1.03.91-.26,1.79-.54,2.68-.71.93-.18,1.86-.09,2.76-.18.94-.09,1.85-.52,2.74-.52.3,0,.58.12.8.31.68.03,1.38.09,2.09.16.9.09,1.82.11,2.74.28.89.17,1.82.27,2.72.53.87.25,1.71.66,2.59,1,.85.32,1.67.75,2.52,1.15.82.4,1.62.85,2.43,1.33.79.47,1.78.64,2.55,1.19.75.53,1.22,1.46,1.94,2.08.7.6,1.63.95,2.29,1.63.65.66,1.11,1.51,1.72,2.25.59.71,1.37,1.29,1.92,2.08.53.76.9,1.65,1.39,2.48.47.8.73,1.73,1.16,2.59.41.83,1.11,1.54,1.47,2.44.35.86.48,1.83.78,2.75.29.86.5,1.74.71,2.63.21.88.41,1.77.54,2.67.14.9.45,1.79.53,2.69.08.91.21,1.83.24,2.74.03.92-.1,1.85-.12,2.75-.02.93-.36,1.83-.42,2.72-.06.94-.16,1.84-.25,2.72-.1.95.22,1.91.11,2.77-.13.96-.26,1.88-.4,2.71-.17,1.01-.35,1.92-.51,2.69-.27,1.29-.6,2.18-.72,2.62.04.47.05,1.45.04,2.8,0,.81.06,1.78-.02,2.82-.07.87-.11,1.83-.25,2.82-.13.89-.64,1.75-.85,2.71-.19.89-.4,1.79-.68,2.72-.26.88-.37,1.83-.71,2.73-.33.86-.78,1.68-1.2,2.54-.04.08-.09.16-.13.24-.12.43-.26.85-.47,1.24-.41.76-1.02,1.42-1.54,2.15-.5.71-.85,1.56-1.45,2.23-.18.2-.38.36-.6.52-.14.2-.29.4-.46.58-.35.37-.75.69-1.16,1.01-.1.48-.29,1.22-.68,2.09-.32.73-.65,1.63-1.14,2.54-.41.76-1.21,1.35-1.74,2.17-.48.74-.97,1.51-1.56,2.26-.55.7-.91,1.63-1.56,2.3-.62.65-1.36,1.23-2.07,1.82-.69.58-1.52.99-2.3,1.49-.75.48-1.49,1.03-2.33,1.42-.55.25-1.11.52-1.7.75.17,0,.36,0,.59,0,1.35,0,1.35-.14,2.71-.14s1.35.31,2.71.31,1.35-.3,2.71-.3,1.35.34,2.71.34,1.35-.18,2.71-.18,1.35.14,2.71.14,1.35-.24,2.71-.24,1.35.15,2.71.15,1.35-.04,2.71-.04,1.35.13,2.71.13,1.35,0,2.71,0,1.35-.05,2.71-.05,1.35.12,2.71.12,1.35-.01,2.71-.01,1.35.03,2.7.03,1.35-.37,2.7-.37,1.35.04,2.7.04,1.35.21,2.71.21,1.35-.02,2.71-.02,1.35.2,2.71.2,1.35-.05,2.71-.05,1.35-.24,2.7-.24,1.75,1.03,2.7.04c.03-.03.04-.05.07-.08-.21-.67-.45-1.36-.68-2.09Z" style="fill:#f3b760;"/><path d="m39.21,101.28c.21.75.41,1.51.71,2.25.12.3.28.58.45.86-.39-.83-.6-1.73-.92-2.55-.07-.19-.16-.38-.24-.56Z" style="fill:#f2dab2;"/><path d="m41.71,106.96s0,0,0-.01c.17.46.34.92.62,1.32.38.55.96.94,1.48,1.4-.13-.17-.25-.34-.38-.51-.57-.75-1.24-1.42-1.72-2.2Z" style="fill:#f2dab2;"/><path d="m91.5,109.13c-.41.53-.72,1.17-1.12,1.74.22-.16.42-.33.6-.52.6-.67.95-1.52,1.45-2.23.52-.73,1.12-1.39,1.54-2.15.21-.39.35-.82.47-1.24-.39.73-.91,1.4-1.36,2.13-.48.78-1.01,1.53-1.58,2.28Z" style="fill:#f2dab2;"/><path d="m96.17,69.75c-.61-.33-1.35-.96-2.13-1.87-.52-.61-.84-1.59-1.12-2.64-.23-.85-.55-1.79-.69-2.78-.12-.92.08-1.92,0-2.87-.09-.97-.37-1.91-.47-2.81-.12-1.04-.1-2.02-.3-2.82-.3-1.24-.76-2.12-1.47-2.28-.72-.17-1.36.44-2.32,1.08-.63.42-1.39.9-2.27,1.4-.7.4-1.49.86-2.4,1.19-.76.28-1.66.38-2.61.55-.8.14-1.68,0-2.64.03-.82.02-1.68.05-2.62-.03-.82-.08-1.69-.14-2.62-.31-.81-.16-1.67-.35-2.57-.6-.81-.22-1.61-.59-2.49-.88-.86-.29-1.69-.5-2.45-.81-.84-.34-1.62-.7-2.36-1.06-.82-.4-1.56-.85-2.26-1.27-.79-.48-1.64-.75-2.3-1.23-.76-.56-1.48-1.06-2.08-1.6-.71-.64-1.3-1.31-1.82-1.9-.66-.74-1.08-1.54-1.54-2.13-.7-.91-1.28-1.5-1.79-1.85-.65-.44-1.1-.28-2.07.69-.79.79-1.53,1.39-1.89,2.19-.4.88-.47,1.85-.57,2.89-.08.89-.14,1.85-.15,2.94,0,.89.04,1.88,0,2.96-.04.9-.25,1.87-.35,2.94-.09.91-.34,1.86-.51,2.91-.15.92-.22,1.78-.48,2.56-.29.88-.72,1.62-1.1,2.34-.43.82-.68,1.7-1.19,2.33-.58.72-1.31,1.23-1.92,1.74-.74.62-1.36,1.3-2,1.65-.52.28-.85.58-1.1.79.02.82.02,1.63.09,2.41.09.99.45,1.91.57,2.82.13,1.01.44,1.92.59,2.79.18,1.06.12,2.05.28,2.84.35,1.7.84,2.67.85,2.71.05.18-.06.43-.08.62,0,.04-.06,1.09-.03,2.79.01.8-.01,1.74.08,2.79.08.86.12,1.8.28,2.78.14.88.53,1.75.75,2.69.21.88.38,1.79.67,2.7.28.87.29,1.88.66,2.75.36.84.87,1.65,1.32,2.47.44.8,1.14,1.45,1.68,2.22.52.74,1.17,1.38,1.79,2.08.46.52.79,1.18,1.24,1.74.04.04.09.09.13.14.1.12.2.24.32.35.67.59,1.42,1.15,2.2,1.68.76.53,1.62.82,2.32,1.29.78.52,1.36,1.27,2.06,1.72.8.51,1.66.79,2.36,1.21.83.49,1.56,1,2.26,1.38.87.48,1.71.76,2.4,1.09.97.47,1.71.93,2.37,1.18,1.68.63,2.4.34,2.53.35.09-.01.17-.01.25,0,.11-.02.21-.02.32,0,.12,0,.79.15,2.48-.49.65-.24,1.47-.52,2.43-.98.69-.33,1.49-.69,2.37-1.17.7-.38,1.51-.75,2.34-1.24.7-.42,1.28-1.18,2.08-1.69.7-.44,1.45-.9,2.23-1.42.7-.46,1.6-.7,2.36-1.23.69-.47,1.35-.96,1.97-1.48.02-.08.03-.14.03-.15.15-.47.59-.84,1.09-1,.31-.39.61-.78.93-1.14.62-.7,1.14-1.46,1.66-2.21.54-.77,1.23-1.43,1.67-2.23.45-.83.81-1.7,1.17-2.54.37-.87.44-1.84.72-2.71.3-.91.83-1.72,1.04-2.6.22-.95.52-1.85.66-2.74.16-.98.19-1.94.26-2.8.09-1.05.14-2,.15-2.8.03-1.7-.3-2.74-.3-2.78-.02-.19.11-.38.16-.57.01-.04.39-1.05.74-2.76.16-.8.46-1.73.63-2.79.15-.87.23-1.83.36-2.84.12-.9.2-1.86.29-2.84.08-.92.02-1.89.07-2.86,0-.12,0-.25,0-.38-.29-.11-.66-.3-1.18-.58Zm-49.43-.06c-.62-.53-.69-1.21-.18-1.84.16-.2.85-1.54,2.12-2.52.84-.65,1.89-1.3,2.93-1.52.65-.14,1.59.13,2.6.29.8.13,1.72.13,2.58.37.87.24,1.67.68,2.44.94,1.04.35,1.98.51,2.5.71.75.29,1.02,1.28.74,2.05-.28.78-.99,1-1.74.72-.88-.33-1.92-.37-2.86-.67-.98-.31-1.86-.91-2.72-1.12-1.32-.33-2.46-.43-2.94-.33-.63.14-1.19.88-1.82,1.39-.73.6-1.49,1.12-1.75,1.45-.29.36-.68.36-1.1.36-.33,0-.53-.06-.81-.29Zm8.06,5.82c-1.17.05-1.9.79-2.55,1.31-1.22.97-1.95,2.06-1.97,2.15-.19.65-.6.96-1.23.96-.13,0-.22-.04-.36-.08-.77-.23-1.38-.91-1.16-1.7.17-.6.74-1.26,1.28-2.05.42-.61.8-1.35,1.47-1.89.58-.47,1.35-.69,2.14-.98.69-.25,1.42-.35,2.28-.38.88-.04,1.64-.13,2.32.02.87.18,1.71.25,2.31.6.85.49,1.51,1.11,1.87,1.57.88,1.09,1.15,2.56.94,3.59,0,.09.02.18.02.27,0,1.21-.24,2.42-.88,3.24-.71.9-1.85,1.55-2.97,1.55s-2.14-.74-2.85-1.64c-.65-.82-1.09-1.94-1.09-3.15s.4-2.36,1.04-3.19c.05-.06.11-.12.16-.19-.24-.02-.5-.02-.77,0Zm10,29.6c-.11.74-.49,1.46-1.2,1.46-.07,0-.13-.25-.21-.26-1.05-.16-1.99-.32-2.83-.54-1.09-.27-2.05-.45-2.8-.73-1.69-.63-2.48-1.35-2.54-1.39-.68-.44-.95-1.28-.52-1.98.43-.7,1.46-1.1,2.13-.67.03.02.72.52,2.21,1.05.65.23,1.43.47,2.37.7.73.18,1.48.64,2.39.78.8.12,1.12.74,1,1.56Zm2.81-9.58c-1.12,0-2.05-.55-2.87-.78-1.63-.46-2.61-1.03-2.69-1.09-.5-.37-.68-.95-.54-1.5-.5-.39-.85-.82-.85-1.36s.45-1.5.94-2.59c.35-.78.74-1.64,1.29-2.42.54-.77,1.25-1.34,1.94-1.87.76-.59,1.48-1.32,2.36-1.32s1.77.5,2.53,1.09c.69.53,1.12,1.41,1.66,2.18.55.78,1.34,1.42,1.7,2.2.49,1.09.64,2.17.64,2.73,0,.52-.3.93-.77,1.31.05.08.09.17.12.26.31.76.27,1.78-.47,2.1-.84.36-1.75.33-2.51.5-.89.2-1.72.56-2.49.56Zm11.39,8.37c-.06.04-1.02.44-2.71,1.07-.76.28-1.64.73-2.72,1-.85.21-1.83.2-2.88.36-.07.01-.14.05-.21.05-.71,0-1.47-.46-1.58-1.2-.12-.82.58-1.51,1.38-1.64.9-.14,1.68-.49,2.41-.67.94-.23,1.76-.38,2.41-.61,1.51-.54,2.21-1.1,2.22-1.11.68-.43,1.82-.27,2.24.43.43.7.12,1.88-.56,2.32Zm7.57-21.87c-.71.9-1.71,1.29-2.83,1.29s-2.15-.37-2.85-1.27c-.65-.82-.98-1.94-.98-3.15s.28-2.29.89-3.11c-.19-.01-.4-.02-.61,0-1.17.05-1.96.67-2.61,1.18-1.22.97-1.66,2.21-1.69,2.3-.19.65-.83.91-1.46.91-.13,0-.29.18-.42.14-.77-.23-1.32-1.14-1.1-1.94.17-.6.81-1.21,1.35-2,.42-.61.78-1.34,1.45-1.87.58-.47,1.19-1.08,1.98-1.37.69-.25,1.52-.29,2.38-.32.88-.04,1.65.14,2.33.29.87.18,1.64.38,2.24.72.85.5,1.36,1.17,1.72,1.63.06.08.12.16.18.24.02.02.04.04.05.06.02.02.03.05.04.07.12.17.23.34.33.51.03.06.07.12.1.19.41.75.63,1.53.54,2.2,0,.06.01.12.01.18,0,1.21-.4,2.31-1.05,3.13Zm1.71-12.26c-.27.24-.65.37-.98.37-.41,0-.92-.15-1.21-.5-.38-.45-1-.99-1.66-1.52-.66-.52-1.24-1.17-1.85-1.29-.48-.1-1.59,0-2.91.36-.85.23-1.81.56-2.78.89-.93.31-1.83.78-2.7,1.13-.75.3-1.38-.19-1.67-.96-.29-.77-.09-1.41.66-1.71.51-.21,1.3-.79,2.34-1.15.76-.27,1.67-.35,2.53-.6.86-.25,1.65-.81,2.45-.95,1.01-.18,1.93.09,2.59.22,1.04.21,1.96.82,2.82,1.46,1.29.96,2.51,1.74,2.67,1.93.52.63.31,1.78-.31,2.31Z" style="fill:#f2dab2;"/><path d="m60.66,90.8c0,.54.34.96.85,1.36.05-.17.12-.35.23-.51.47-.67,1.27-.81,1.92-.33.08.06,1.01.64,2.51.9.74.13,1.65.17,2.66.03.79-.11,1.58-.53,2.5-.93.66-.28,1.28.16,1.63.79.46-.38.77-.8.77-1.31,0-.57-.15-1.64-.64-2.73-.35-.78-1.15-1.42-1.7-2.2-.54-.77-.97-1.65-1.66-2.18-.76-.59-1.65-1.09-2.53-1.09s-1.6.73-2.36,1.32c-.69.53-1.4,1.1-1.94,1.87-.55.78-.94,1.64-1.29,2.42-.49,1.09-.94,2.03-.94,2.59Z" style="fill:#f1774c;"/><path d="m63.8,103.55c-.9-.14-1.66-.61-2.39-.78-.94-.23-1.72-.46-2.37-.7-1.49-.53-2.18-1.03-2.21-1.05-.68-.44-1.7-.03-2.13.67-.43.7-.17,1.53.52,1.98.06.04.85.76,2.54,1.39.76.28,1.71.45,2.8.73.84.21,1.79.37,2.83.54.07.01.13.26.21.26.71,0,1.09-.71,1.2-1.46.12-.82-.21-1.43-1-1.56Z" style="fill:#222;"/><path d="m77.31,101.14s-.72.56-2.22,1.11c-.65.23-1.47.38-2.41.61-.73.18-1.51.53-2.41.67-.8.12-1.5.82-1.38,1.64.11.74.87,1.2,1.58,1.2.07,0,.13-.04.21-.05,1.05-.16,2.04-.15,2.88-.36,1.09-.27,1.97-.72,2.72-1,1.7-.63,2.65-1.03,2.71-1.07.68-.44.99-1.62.56-2.32-.43-.7-1.56-.86-2.24-.43Z" style="fill:#222;"/><path d="m87.06,76.51c-.03-.06-.06-.13-.1-.19-.1-.18-.21-.35-.33-.51-.02-.02-.03-.05-.04-.07-.02-.02-.04-.04-.05-.06-.06-.08-.11-.16-.18-.24-.36-.45-.87-1.13-1.72-1.63-.6-.35-1.37-.54-2.24-.72-.69-.15-1.46-.33-2.33-.29-.86.04-1.69.07-2.38.32-.79.29-1.4.9-1.98,1.37-.67.53-1.03,1.26-1.45,1.87-.54.78-1.18,1.4-1.35,2-.22.79.33,1.7,1.1,1.94.14.04.29-.14.42-.14.63,0,1.27-.26,1.46-.91.02-.09.47-1.33,1.69-2.3.65-.52,1.44-1.13,2.61-1.18.22-.01.42,0,.61,0-.61.82-.89,1.93-.89,3.11s.33,2.33.98,3.15c.71.9,1.73,1.27,2.85,1.27s2.12-.39,2.83-1.29c.65-.82,1.05-1.92,1.05-3.13,0-.06-.01-.12-.01-.18.08-.67-.13-1.45-.54-2.2Z" style="fill:#222;"/><path d="m136.6,126.7s-.02-.07-.03-.11c-.28-1.37.18-1.39.18-2.79s0-1.4,0-2.79c0-.32,0-.56,0-.77-.31-.53-.66-1.04-.97-1.56-.45-.77-.82-1.6-1.33-2.3-.52-.72-1.16-1.35-1.73-2-.58-.67-1.16-1.34-1.78-1.95-.64-.62-1.38-1.11-2.04-1.66-.68-.57-1.4-1.07-2.09-1.57-.72-.53-1.54-.86-2.25-1.32-.76-.49-1.3-1.3-2.02-1.71-.81-.46-1.68-.67-2.4-1.03-.88-.44-1.74-.63-2.42-.93-.55-.24-1.01-.44-1.38-.6.1-.66.1-1.37.31-2.03.26-.85.69-1.67.94-2.57.24-.86.41-1.76.63-2.67.21-.87.69-1.7.88-2.61.19-.88.19-1.82.35-2.73.15-.89.52-1.76.65-2.68.12-.9-.15-1.86-.06-2.78.09-.91.26-1.81.31-2.73.05-.91.02-1.82.02-2.74,0-.91.18-1.83.15-2.75-.04-.96-.05-1.9-.12-2.81-.07-.96-.27-1.88-.37-2.79-.1-.96-.17-1.89-.3-2.79-.14-.95-.19-1.9-.37-2.79-.19-.95-.52-1.83-.74-2.71-.23-.94-.42-1.86-.68-2.72-.28-.92-.69-1.77-1.01-2.61-.34-.91-.83-1.7-1.2-2.51-.4-.88-.71-1.76-1.13-2.54-.47-.85-.76-1.77-1.25-2.51-.54-.81-1.25-1.44-1.8-2.12-.61-.76-1.1-1.58-1.71-2.2-.7-.7-1.54-1.13-2.21-1.67-.79-.64-1.42-1.36-2.11-1.79-.6-.37-1.33-.46-1.91-.79-.61-.34-1.09-.89-1.68-1.21-.79-.43-1.52-.9-2.23-1.31-.77-.45-1.56-.8-2.23-1.31-.7-.53-1.18-1.24-1.75-1.91-.54-.64-1.32-1.14-1.73-1.97-.36-.73-.77-1.54-1.03-2.47-.22-.78-.39-1.67-.53-2.62-.16-1.06-.16-2.06-.42-2.93-.3-1.03-.59-1.98-1.01-2.78-.49-.95-.95-1.87-1.55-2.54-.7-.77-1.72-1.04-2.5-1.53-.86-.54-1.62-1.16-2.49-1.47-.97-.35-1.92-.6-2.77-.82-.59-.15-1.22-.1-1.75-.26-.84-.27-1.39-1.03-1.92-1.81-.46-.67-1.03-1.4-1.36-2.3-.3-.8-.44-1.72-.71-2.59-.26-.85-.48-1.75-.8-2.63-.32-.86-.72-1.69-1.16-2.48-.45-.81-1.11-1.39-1.77-2.01-.64-.6-1.31-1.04-2.21-1.36-.77-.27-1.57-.63-2.57-.63-.17,0-.32.04-.46.09-.74.06-1.4.23-2.01.45-.9.32-1.82.53-2.46,1.13-.66.62-1.09,1.5-1.54,2.3-.44.79-.75,1.67-1.07,2.53-.32.88-.53,1.79-.79,2.64-.27.88-.68,1.69-.97,2.49-.33.9-.66,1.73-1.12,2.4-.53.78-1.14,1.43-1.98,1.7-.53.17-1.13.2-1.72.35-.85.22-1.71.74-2.68,1.09-.86.31-1.94.3-2.8.84-.78.49-1.58,1.14-2.27,1.91-.61.67-.9,1.68-1.4,2.62-.42.8-.82,1.67-1.12,2.71-.26.87-.73,1.78-.89,2.85-.14.95-.24,1.81-.46,2.59-.26.92-.48,1.76-.84,2.48-.42.83-.87,1.56-1.42,2.2-.57.67-1.29,1.14-1.98,1.67-.67.51-1.24,1.21-2.02,1.67-.72.42-1.63.54-2.42.97-.59.32-1.11.8-1.72,1.14-.58.33-1.27.5-1.87.88-.69.43-1.32,1.16-2.11,1.79-.66.53-1.47,1.01-2.17,1.72-.61.62-1.2,1.34-1.82,2.1-.55.68-.94,1.55-1.48,2.36-.49.74-1,1.5-1.47,2.36-.43.78-1.08,1.49-1.48,2.37-.37.81-.44,1.8-.78,2.71-.32.84-.81,1.65-1.1,2.58-.26.86-.3,1.82-.54,2.76-.22.88-.36,1.8-.54,2.74-.17.89-.58,1.76-.72,2.72-.13.9-.1,1.85-.21,2.8-.1.9-.34,1.82-.41,2.78-.06.91-.03,1.85-.07,2.81-.03.92.13,1.83.14,2.75,0,.92-.21,1.84-.17,2.75.05.92.26,1.82.35,2.73.09.92.32,1.81.45,2.71.12.92.18,1.83.34,2.72.16.91.23,1.83.41,2.71.19.91.47,1.78.69,2.65.22.9.38,1.81.62,2.67.25.9.55,1.76.81,2.62.19.62.29,1.26.42,1.88-.36.2-.81.43-1.36.67-.68.29-1.64.3-2.52.73-.72.36-1.5.78-2.31,1.24-.72.41-1.26,1.22-2.03,1.71-.71.46-1.5.83-2.22,1.36-.69.51-1.5.88-2.18,1.46-.66.55-1.14,1.34-1.77,1.96-.62.6-1.42,1.04-2.01,1.71-.57.65-1,1.45-1.53,2.16-.51.7-.94,1.48-1.39,2.24-.3.52-.67,1-1,1.51,0,.21,0,.45,0,.77,0,1.39.36,1.39.36,2.79,0,.21,0,.39-.01.54-.05.87-.2,1.06-.2,2.24,0,1.34-.92,1.79-.14,2.7.19-.69.38-1.39.61-2.13.27-.86.76-1.69,1.07-2.62.28-.85.28-1.8.66-2.58.38-.8.75-1.63,1.22-2.36.47-.75.98-1.49,1.52-2.17.55-.69,1.46-1.04,2.06-1.67.61-.64,1.21-1.25,1.85-1.82.66-.59,1.09-1.45,1.77-1.97.71-.54,1.51-.93,2.21-1.4.75-.5,1.41-1.11,2.12-1.52.67-.4,1.39-.63,2.03-.91.38.31.88.76,1.41,1.36.55.61.93,1.57,1.64,2.31.62.65,1.29,1.32,1.97,1.98.67.65,1.59,1.02,2.28,1.62.45.39.9.75,1.33,1.09.1.16.17.27.19.32.22.39.62.61,1.04.68.09.08.18.14.3.14.36,0,.77-.18,1.05-.45.27-.26.4-.62.43-.99.12-.33.12-.68-.06-1-.02-.04-.63-.86-1.37-2.43-.34-.72-.94-1.47-1.37-2.45-.34-.79-.42-1.78-.79-2.72-.33-.82-.59-1.73-.92-2.66-.31-.85-.77-1.67-1.07-2.6-.29-.86-.52-1.78-.79-2.7-.26-.88-.53-1.78-.77-2.71-.24-.89-.68-1.75-.89-2.68-.21-.9-.25-1.86-.43-2.8-.17-.91-.45-1.82-.59-2.76-.14-.92-.29-1.86-.39-2.8-.1-.93.2-1.9.14-2.84-.06-.94-.34-1.86-.36-2.81-.01-.94.21-1.87.24-2.82.04-.96-.07-1.89,0-2.8.07-.96.32-1.86.42-2.76.11-.95.03-1.9.17-2.79.15-.95.34-1.86.52-2.74.19-.94.35-1.86.58-2.73.24-.93.53-1.82.8-2.67.3-.92.62-1.79.95-2.61.36-.9.62-1.8,1.01-2.6.43-.87,1.18-1.5,1.64-2.25.51-.83.84-1.71,1.36-2.41.59-.79,1.26-1.41,1.84-2.04.68-.73,1.25-1.45,1.89-1.99.79-.66,1.55-1.15,2.23-1.57,1.16-.72,2.19-1.57,3.3-2.18.77-.42,1.71-.51,2.45-.95.76-.44,1.54-.86,2.24-1.38.7-.51,1.36-1.13,1.98-1.76.6-.61.95-1.46,1.46-2.22.46-.7,1.11-1.34,1.48-2.21.33-.76.64-1.61.88-2.54.21-.81.27-1.71.41-2.65.15-1.05.28-2,.53-2.81.32-1.02.78-1.84,1.23-2.55.55-.87,1.21-1.5,1.91-2.03.76-.58,1.6-.92,2.47-1.23.87-.32,1.78-.5,2.67-.73.65-.17,1.26-.39,1.84-.58.91-.29,1.73-.73,2.37-1.31.66-.6,1.03-1.48,1.49-2.28.44-.77.99-1.53,1.31-2.39.31-.86.33-1.83.59-2.68.26-.86.61-1.62.87-2.34.31-.87.79-1.54,1.16-2.18.45-.79.92-1.34,1.59-1.74.63-.38,1.31-.78,2.26-.78.09,0,.18-.01.26-.03.77.06,1.43.29,1.97.61.67.4.98,1.18,1.43,1.96.37.64.76,1.34,1.07,2.21.26.72.84,1.4,1.1,2.26.26.85.29,1.81.6,2.67.31.86.61,1.76,1.04,2.53.45.8,1.18,1.37,1.84,1.97.64.58,1.35,1.03,2.26,1.32.58.19,1.22.24,1.87.41.89.23,1.74.7,2.61,1.02.86.32,1.65.78,2.41,1.35.7.53,1.24,1.21,1.79,2.09.45.71,1.21,1.39,1.53,2.41.25.81.1,1.83.25,2.88.14.94.37,1.82.58,2.62.24.92.67,1.71.99,2.47.37.87.86,1.58,1.32,2.28.51.77.92,1.55,1.51,2.16.63.63,1.19,1.36,1.89,1.87.71.51,1.48.96,2.24,1.4.75.44,1.63.64,2.4,1.06,1.11.6,2.31,1.16,3.47,1.87.68.42,1.46.94,2.24,1.59.65.54,1.07,1.43,1.75,2.16.59.63,1.16,1.31,1.75,2.1.52.7,1.26,1.29,1.77,2.13.46.75.67,1.69,1.1,2.56.39.79.98,1.53,1.35,2.43.33.83.39,1.79.68,2.71.28.85.72,1.68.96,2.61.23.87.54,1.75.73,2.7.18.88.41,1.79.56,2.74.14.89.18,1.83.28,2.79.1.9-.1,1.85-.03,2.8.07.9.31,1.82.34,2.77.04.94,0,1.88,0,2.82-.01.95.21,1.9.15,2.84-.06.95-.35,1.87-.45,2.8-.1.94-.42,1.84-.56,2.77-.14.94.17,1.95,0,2.86-.18.93-.42,1.85-.63,2.75-.21.93-.59,1.81-.83,2.7-.24.93-.46,1.85-.72,2.72-.28.93-.73,1.76-1.01,2.63-.31.92-.51,1.85-.81,2.7-.34.93-.58,1.84-.9,2.67-.37.94-.78,1.79-1.13,2.57-.43.98-.89,1.81-1.23,2.53-.74,1.57-1.28,2.44-1.3,2.48-.4.72-.11,1.72.59,2.13.15.09.33.08.5.07.07.03.15.05.24.05.13,0,.25-.03.37-.08.4-.05.81-.2,1.01-.57.02-.03.05-.11.1-.21.46-.38.91-.8,1.4-1.22.69-.6,1.6-.98,2.27-1.63.68-.66,1.36-1.33,1.97-1.98.7-.74,1.31-1.48,1.86-2.09.62-.7,1.11-1.28,1.42-1.67.59.29,1.2.59,1.82.96.71.42,1.23,1.26,1.98,1.76.7.47,1.4.96,2.11,1.5.68.52,1.61.75,2.27,1.34.64.57,1.07,1.4,1.68,2.04.6.63,1.14,1.31,1.68,2,.54.68,1.09,1.35,1.56,2.1.46.74.91,1.49,1.29,2.29.38.78.56,1.65.84,2.5.31.93.64,1.81.91,2.67.23.73.46,1.42.68,2.09.82-.9.29-1.29,0-2.62Z" style="fill:#222;"/><path d="m99.8,60.94c-.14-.9-.34-1.79-.54-2.67-.21-.89-.43-1.77-.71-2.63-.31-.92-.43-1.89-.78-2.75-.37-.89-1.06-1.61-1.47-2.44-.43-.86-.69-1.79-1.16-2.59-.49-.83-.86-1.73-1.39-2.48-.55-.78-1.33-1.37-1.92-2.08-.61-.73-1.08-1.59-1.72-2.25-.67-.68-1.6-1.03-2.29-1.63-.72-.61-1.19-1.54-1.94-2.08-.77-.55-1.76-.72-2.55-1.19-.81-.48-1.61-.93-2.43-1.33-.85-.41-1.67-.83-2.52-1.15-.88-.33-1.72-.75-2.59-1-.91-.26-1.83-.36-2.72-.53-.93-.18-1.85-.2-2.74-.28-.72-.07-1.41-.13-2.09-.16-.22-.19-.5-.31-.8-.31-.89,0-1.8.43-2.74.52-.9.09-1.83,0-2.76.18-.89.17-1.77.45-2.68.71-.87.25-1.69.7-2.57,1.03-.85.32-1.73.57-2.58.98-.82.4-1.7.72-2.51,1.2-.79.47-1.52,1.04-2.29,1.59-.75.53-1.64.9-2.36,1.51-.7.6-1.41,1.23-2.07,1.91-.65.66-1.14,1.49-1.75,2.23-.59.71-1.03,1.55-1.58,2.34-.29.41-.55.84-.81,1.28-.48.47-.94.88-1.14,1.35-.1.24-.19.5-.28.78-.33.4-.67.81-.9,1.28-.41.83-.56,1.8-.93,2.7-.35.86-.75,1.71-1.05,2.63-.29.86-.6,1.72-.81,2.61-.21.88-.14,1.82-.28,2.73-.14.9-.52,1.77-.6,2.68-.08.91-.25,1.83-.27,2.73-.03.92.04,1.84.06,2.74.02.93.02,1.85.08,2.74.06.93.51,1.81.6,2.69.1.94.14,1.85.26,2.71.13.96.31,1.85.46,2.69.17,1.01.26,1.92.43,2.69.27,1.29.41,2.24.53,2.68-.04.47-.27,1.46-.25,2.81,0,.81-.03,1.78.05,2.83.07.87.45,1.78.59,2.77.13.89.18,1.83.39,2.79.19.89.42,1.81.69,2.73.2.69.57,1.34.88,2.01.09.18.17.37.24.56.32.83.52,1.72.92,2.55.01.03.02.06.04.08.4.82.8,1.67,1.3,2.47,0,0,0,0,0,.01.48.78,1.14,1.45,1.72,2.2.13.17.25.34.38.51.42.57.84,1.15,1.34,1.68.44.47.85.99,1.3,1.48.18.41.42.94.7,1.57.32.73.71,1.57,1.2,2.48.41.76.82,1.58,1.35,2.4.48.74.87,1.6,1.45,2.36.55.71,1.02,1.54,1.67,2.22.62.65,1.61.92,2.32,1.52.69.58,1.35,1.18,2.13,1.68.75.48,1.52.93,2.36,1.32.73.33,1.48.63,2.27.88.09.03.17.06.25.09.85.25,1.73.32,2.65.45.6.08,1.21.14,1.84.18.23.19.52.31.84.31.94,0,1.81-.32,2.68-.44.92-.13,1.87,0,2.71-.25.28-.08.56-.18.83-.29.58-.23,1.15-.5,1.7-.75.84-.39,1.58-.93,2.33-1.42.78-.5,1.61-.91,2.3-1.49.71-.6,1.45-1.17,2.07-1.82.65-.68,1.01-1.6,1.56-2.3.59-.75,1.08-1.52,1.56-2.26.53-.82,1.33-1.42,1.74-2.17.49-.91.81-1.81,1.14-2.54.39-.87.58-1.6.68-2.09.41-.32.81-.64,1.16-1.01.17-.18.32-.38.46-.58.39-.57.71-1.2,1.12-1.74.57-.75,1.1-1.5,1.58-2.28.45-.73.96-1.4,1.36-2.13.04-.08.09-.16.13-.24.42-.85.87-1.68,1.2-2.54.34-.89.45-1.85.71-2.73.27-.92.48-1.83.68-2.72.21-.96.72-1.82.85-2.71.14-.99.19-1.95.25-2.82.08-1.05.01-2.01.02-2.82.01-1.35,0-2.33-.04-2.8.11-.44.44-1.33.72-2.62.16-.77.33-1.68.51-2.69.14-.83.27-1.75.4-2.71.12-.86-.2-1.83-.11-2.77.09-.88.2-1.78.25-2.72.06-.89.4-1.79.42-2.72.02-.9.15-1.83.12-2.75-.03-.91-.16-1.83-.24-2.74-.08-.91-.39-1.79-.53-2.69Zm-17.3,57.07c-.48.71-1.06,1.36-1.64,2.07-.55.67-1.13,1.3-1.78,1.93-.62.6-1.12,1.37-1.84,1.91-.69.52-1.47.94-2.25,1.36-.76.41-1.58.66-2.42.95-.8.28-1.63.48-2.51.63-.83.14-1.67.18-2.58.18-.28,0-.53.11-.75.27-.63-.12-1.23-.35-1.83-.45-.88-.15-1.76-.18-2.57-.46-.84-.29-1.59-.76-2.35-1.17-.78-.42-1.62-.74-2.31-1.26-.71-.53-1.41-1.1-2.03-1.71-.65-.63-1.23-1.31-1.78-1.98-.58-.7-1.05-1.47-1.53-2.18-.53-.78-1.15-1.45-1.56-2.17-.06-.1-.1-.21-.14-.31.41.29.81.57,1.2.83.85.56,1.54,1.28,2.31,1.77.88.55,1.7,1.06,2.47,1.51.91.53,1.68,1.14,2.46,1.55.96.51,1.91.74,2.68,1.09,1.05.48,2,.61,2.74.85,1.06.35,1.78.5,2.29.56.14.09.3.16.47.2.07.01.19.04.33.05.05.05.1.1.13.09.08-.02.15-.05.23-.08.54,0,1.39,0,2.63-.4.74-.25,1.58-.74,2.63-1.22.77-.35,1.58-.89,2.53-1.4.77-.41,1.62-.86,2.53-1.39.77-.45,1.69-.8,2.57-1.35.76-.48,1.58-.99,2.42-1.55-.23.42-.48.85-.77,1.28Zm11.82-21.52c-.21.88-.74,1.69-1.04,2.6-.28.87-.34,1.84-.72,2.71-.36.84-.72,1.71-1.17,2.54-.44.8-1.13,1.46-1.67,2.23-.52.75-1.04,1.5-1.66,2.21-.32.36-.62.76-.93,1.14-.49.16-.94.53-1.09,1,0,0-.01.07-.03.15-.61.52-1.28,1.01-1.97,1.48-.77.53-1.66.76-2.36,1.23-.78.52-1.52.98-2.23,1.42-.8.51-1.37,1.27-2.08,1.69-.83.49-1.63.86-2.34,1.24-.87.48-1.67.83-2.37,1.17-.96.46-1.78.73-2.43.98-1.69.64-2.37.48-2.48.49-.11-.02-.22,0-.32,0-.08-.01-.17-.01-.25,0-.13,0-.85.28-2.53-.35-.65-.24-1.4-.71-2.37-1.18-.69-.33-1.53-.62-2.4-1.09-.7-.38-1.43-.89-2.26-1.38-.7-.42-1.56-.7-2.36-1.21-.7-.44-1.28-1.2-2.06-1.72-.7-.46-1.55-.76-2.32-1.29-.77-.53-1.53-1.09-2.2-1.68-.12-.11-.22-.23-.32-.35-.04-.05-.09-.09-.13-.14-.45-.56-.78-1.23-1.24-1.74-.62-.7-1.27-1.34-1.79-2.08-.54-.77-1.24-1.42-1.68-2.22-.45-.83-.96-1.63-1.32-2.47-.37-.87-.38-1.88-.66-2.75-.29-.91-.47-1.82-.67-2.7-.22-.94-.61-1.81-.75-2.69-.16-.98-.2-1.92-.28-2.78-.09-1.05-.07-1.99-.08-2.79-.03-1.7.03-2.75.03-2.79.02-.19.13-.43.08-.62-.01-.04-.5-1.01-.85-2.71-.16-.8-.1-1.79-.28-2.84-.15-.87-.45-1.79-.59-2.79-.12-.9-.48-1.83-.57-2.82-.07-.78-.07-1.59-.09-2.41.26-.21.58-.5,1.1-.79.65-.35,1.26-1.03,2-1.65.61-.51,1.33-1.02,1.92-1.74.51-.63.76-1.51,1.19-2.33.38-.72.82-1.45,1.1-2.34.25-.78.33-1.64.48-2.56.17-1.05.42-1.99.51-2.91.11-1.07.32-2.03.35-2.94.04-1.09,0-2.07,0-2.96.01-1.09.06-2.06.15-2.94.1-1.04.17-2.01.57-2.89.37-.81,1.1-1.41,1.89-2.19.97-.97,1.42-1.13,2.07-.69.51.35,1.09.94,1.79,1.85.46.59.88,1.39,1.54,2.13.52.59,1.12,1.26,1.82,1.9.6.54,1.32,1.05,2.08,1.6.65.48,1.5.75,2.3,1.23.7.42,1.43.86,2.26,1.27.74.36,1.51.72,2.36,1.06.76.31,1.59.52,2.45.81.88.3,1.68.66,2.49.88.9.24,1.75.44,2.57.6.93.18,1.8.24,2.62.31.94.09,1.8.06,2.62.03.95-.03,1.84.12,2.64-.03.94-.17,1.85-.27,2.61-.55.91-.34,1.71-.79,2.4-1.19.88-.5,1.64-.98,2.27-1.4.96-.63,1.6-1.24,2.32-1.08.71.17,1.17,1.04,1.47,2.28.19.8.18,1.78.3,2.82.1.9.38,1.84.47,2.81.09.95-.12,1.95,0,2.87.13,1,.46,1.94.69,2.78.28,1.05.6,2.04,1.12,2.64.78.91,1.52,1.55,2.13,1.87.52.28.89.47,1.18.58,0,.12,0,.25,0,.38-.05.97.01,1.94-.07,2.86-.09.98-.17,1.94-.29,2.84-.13,1.01-.21,1.97-.36,2.84-.18,1.06-.47,1.99-.63,2.79-.35,1.71-.73,2.72-.74,2.76-.05.18-.18.38-.16.57,0,.04.33,1.09.3,2.78-.01.8-.06,1.75-.15,2.8-.08.86-.11,1.82-.26,2.8-.14.88-.44,1.79-.66,2.74Z" style="fill:#222;"/><path d="m48.64,69.62c.26-.33,1.02-.84,1.75-1.45.62-.51,1.19-1.26,1.82-1.39.48-.1,1.62,0,2.94.33.86.21,1.74.8,2.72,1.12.93.3,1.98.33,2.86.67.75.29,1.46.06,1.74-.72.28-.78.01-1.77-.74-2.05-.52-.2-1.45-.36-2.5-.71-.77-.26-1.57-.7-2.44-.94-.86-.23-1.78-.23-2.58-.37-1.01-.17-1.95-.43-2.6-.29-1.04.22-2.09.87-2.93,1.52-1.27.98-1.97,2.32-2.12,2.52-.51.64-.44,1.32.18,1.84.27.23.48.29.81.29.42,0,.81,0,1.1-.36Z" style="fill:#222;"/><path d="m85.92,65.52c-.85-.63-1.77-1.25-2.82-1.46-.66-.13-1.58-.41-2.59-.22-.8.15-1.6.7-2.45.95-.86.25-1.77.33-2.53.6-1.04.37-1.83.95-2.34,1.15-.75.3-.95.94-.66,1.71.29.77.93,1.27,1.67.96.87-.35,1.77-.81,2.7-1.13.97-.33,1.93-.67,2.78-.89,1.32-.35,2.43-.46,2.91-.36.61.12,1.2.77,1.85,1.29.66.52,1.28,1.07,1.66,1.52.29.35.79.5,1.21.5.33,0,.71-.13.98-.37.61-.54.83-1.68.31-2.31-.16-.19-1.38-.98-2.67-1.93Z" style="fill:#222;"/><path d="m72.62,94.47c.74-.32.78-1.34.47-2.1-.04-.09-.08-.17-.12-.26-.35-.63-.98-1.07-1.63-.79-.92.4-1.71.81-2.5.93-1.01.15-1.92.11-2.66-.03-1.5-.27-2.43-.85-2.51-.9-.65-.47-1.45-.34-1.92.33-.11.16-.19.33-.23.51-.14.55.04,1.13.54,1.5.08.06,1.07.63,2.69,1.09.82.23,1.75.78,2.87.78.77,0,1.6-.36,2.49-.56.76-.17,1.68-.14,2.51-.5Z" style="fill:#222;"/><path d="m54.37,78.89c0,1.21.44,2.33,1.09,3.15.71.9,1.73,1.64,2.85,1.64s2.26-.65,2.97-1.55c.65-.82.88-2.03.88-3.24,0-.09-.02-.18-.02-.27.21-1.03-.06-2.49-.94-3.59-.36-.45-1.02-1.07-1.87-1.57-.59-.35-1.43-.42-2.31-.6-.69-.15-1.45-.06-2.32-.02-.86.04-1.59.13-2.28.38-.79.29-1.56.51-2.14.98-.67.53-1.05,1.28-1.47,1.89-.54.78-1.11,1.45-1.28,2.05-.22.79.39,1.47,1.16,1.7.14.04.22.08.36.08.63,0,1.04-.31,1.23-.96.02-.09.75-1.18,1.97-2.15.65-.52,1.38-1.25,2.55-1.31.27-.01.53,0,.77,0-.05.06-.11.12-.16.19-.65.82-1.04,1.97-1.04,3.19Z" style="fill:#222;"/></svg>
