<?xml version="1.0" encoding="UTF-8"?><svg id="User_Two" xmlns="http://www.w3.org/2000/svg" viewBox="0 0 134 129"><path d="m68.09,120c.11,0,.75.07,2.42-.56.64-.24,1.43-.55,2.37-1,.68-.33,1.57-.47,2.43-.94.69-.38,1.32-1.03,2.14-1.52.69-.41,1.42-.88,2.21-1.38.69-.44,1.51-.76,2.27-1.27.69-.46,1.25-1.2,2-1.72.7-.48,1.43-.86,2.04-1.39.64-.56,1.29-1.07,1.85-1.67.57-.62.98-1.37,1.47-2.03.51-.68,1.11-1.28,1.53-1.99.43-.73.67-1.56,1.02-2.31.37-.77.65-1.55.94-2.33.3-.81.49-1.62.72-2.41.24-.84.49-1.63.66-2.43.18-.86.57-1.65.68-2.45.12-.9.23-1.74.29-2.52.07-.95.17-1.81.17-2.54.02-1.54-.33-2.48-.33-2.52-.02-.19.1-.39.15-.57.01-.04.49-.91.81-2.44.15-.71.16-1.6.33-2.55.14-.78.14-1.65.26-2.55.11-.81.19-1.66.28-2.54.09-.82.03-1.68.09-2.56.06-.84.1-1.68.12-2.55.02-.85.1-1.69.08-2.56-.01-.7.05-1.4.03-2.1-.14-.08-.3-.15-.48-.21-.68-.24-1.56-.32-2.46-.67-.73-.28-1.52-.62-2.35-.98-.74-.32-1.49-.75-2.29-1.13-.74-.35-1.52-.7-2.3-1.11-.74-.38-1.47-.83-2.23-1.26-.73-.42-1.44-.9-2.17-1.37-.71-.45-1.3-1.12-2-1.62-.69-.49-1.54-.77-2.21-1.31-.67-.53-1.27-1.16-1.91-1.74-.64-.58-1.12-1.31-1.72-1.93-.59-.62-1.2-1.22-1.74-1.89-.54-.67-1.1-1.32-1.58-2.04-.48-.72-1.01-1.41-1.41-2.18-.4-.77-.66-1.6-.97-2.42-.31-.81-.62-1.61-.84-2.47-.21-.83-.18-1.71-.29-2.59-.08-.62-.27-1.27-.37-1.92-.1.65-.29,1.3-.37,1.92-.11.88.06,1.8-.15,2.64-.21.85-.65,1.63-.96,2.44-.31.82-.84,1.51-1.24,2.28-.4.77-.7,1.59-1.17,2.31-.48.72-1.09,1.32-1.63,1.99-.54.67-.86,1.55-1.45,2.17-.59.62-1.46.94-2.1,1.52-.64.58-1.28,1.12-1.95,1.65-.67.54-1.29,1.13-1.98,1.62-.7.5-1.31,1.13-2.03,1.59-.73.47-1.55.74-2.28,1.16-.75.43-1.38,1.09-2.11,1.48-.78.41-1.61.64-2.35.99-.8.38-1.62.62-2.37.94-.84.36-1.66.58-2.39.86-.9.35-1.6.93-2.29,1.17-.14.05-.25.1-.37.16-.05.69-.1,1.37-.11,2.05-.02.86-.34,1.72-.32,2.57.02.87.03,1.74.09,2.58.06.87.3,1.72.39,2.54.09.89.39,1.71.51,2.52.13.91.28,1.75.42,2.52.17.95.36,1.79.51,2.5.32,1.53.15,2.56.16,2.59.05.18.07.28.05.47,0,.04.04,1.01.05,2.56,0,.72.23,1.57.3,2.52.06.78.1,1.63.22,2.52.11.8.35,1.61.53,2.47.17.8.25,1.64.49,2.48.23.79.61,1.54.91,2.35.29.78.33,1.68.7,2.45.35.75.96,1.37,1.4,2.1.42.71.61,1.61,1.11,2.3.49.66,1.24,1.13,1.81,1.75.55.6,1.21,1.1,1.85,1.65.61.53,1.17,1.16,1.87,1.64.75.52,1.35,1.2,2.04,1.65.77.51,1.5,1,2.19,1.44.79.5,1.69.67,2.38,1.08.81.49,1.55.95,2.24,1.32.86.47,1.63.86,2.31,1.18.95.46,1.69.92,2.33,1.16,1.06.4,1.74.61,2.13.72.15-.15.32-.26.5-.31" style="fill:#d2a66e;"/><path d="m135.86,126.61c-.24-.76-.21-1.64-.48-2.45-.28-.85-.86-1.56-1.24-2.35-.38-.8-.75-1.59-1.21-2.33-.47-.75-.85-1.56-1.39-2.25-.54-.69-1.2-1.28-1.8-1.91-.61-.64-1.37-1.09-2.01-1.66-.66-.59-1.25-1.23-1.92-1.75-.7-.54-1.34-1.15-2.04-1.62-.75-.5-1.58-.8-2.29-1.22-.69-.41-1.26-.97-1.86-1.35-.26.31-.61.74-1.05,1.24-.45.51-.8,1.26-1.38,1.89-.5.54-1.12,1.03-1.68,1.6-.53.54-1.08,1.1-1.65,1.64-.57.54-1.04,1.2-1.61,1.69-.62.52-1.33.89-1.92,1.31-.01,0-.03,0-.04.02-.25.13-.54.2-.8.2-.17,0-.31-.08-.46-.17-.25.04-.49.06-.66-.1-.3-.29-.35-.69-.27-1.1-.03-.27.03-.56.18-.84.02-.04.41-.91,1.1-2.38.18-.37.42-.76.67-1.19.06-.24.16-.5.37-.88.14-.24.25-.42.36-.56.28-.65.59-1.33.89-2.08.31-.77.5-1.64.82-2.5.29-.79.35-1.7.64-2.56.27-.8.82-1.54,1.09-2.4.25-.82.54-1.65.78-2.51.23-.83.13-1.77.34-2.63.21-.84.43-1.68.61-2.55.18-.85.62-1.65.78-2.52.15-.86-.05-1.78.07-2.66.12-.86.67-1.68.75-2.56.09-.87.16-1.76.21-2.64.05-.87-.25-1.77-.24-2.65,0-.88.02-1.75,0-2.63-.03-.89.22-1.77.16-2.61-.06-.89-.13-1.76-.21-2.59-.09-.89-.36-1.73-.48-2.56-.13-.88-.41-1.71-.57-2.53-.16-.88-.36-1.71-.55-2.53-.21-.87-.14-1.79-.37-2.59-.25-.86-.57-1.67-.85-2.45-.3-.84-.83-1.56-1.16-2.31-.36-.82-.73-1.59-1.11-2.32-.42-.8-.7-1.63-1.14-2.32-.49-.76-1.13-1.35-1.63-1.98-.56-.71-1.06-1.41-1.61-1.98-.64-.66-1.36-1.11-1.97-1.6-.73-.6-1.28-1.28-1.92-1.67-.57-.35-1.16-.64-1.72-.96-.58-.33-1.21-.53-1.77-.84-.77-.42-1.53-.85-2.27-1.29-.75-.44-1.38-1.07-2.09-1.58-.7-.51-1.4-1-2.02-1.64-.6-.61-1.18-1.24-1.69-2.01-.46-.7-.86-1.48-1.23-2.35-.32-.76-.63-1.59-.87-2.51-.21-.81-.45-1.66-.59-2.61-.12-.86-.06-1.69-.25-2.39-.23-.84-.8-1.46-1.12-2.1-.39-.78-.87-1.32-1.35-1.86-.55-.61-1.01-1.21-1.66-1.59-.67-.4-1.31-.93-2.04-1.17-.73-.24-1.59-.03-2.33-.22-.65-.17-1.17-.68-1.75-.87-.9-.29-1.66-.64-2.3-1.22-.66-.6-1.1-1.36-1.55-2.16-.44-.77-.84-1.57-1.16-2.43-.31-.86-.48-1.77-.74-2.62-.26-.86-.6-1.63-.86-2.35-.31-.87-.53-1.72-.9-2.36-.45-.78-1.17-1.28-1.84-1.68-.6-.36-1.32-.75-2.2-.78-.94,0-1.61.55-2.24.93-.67.4-1.39.8-1.84,1.59-.37.64-.75,1.41-1.06,2.28-.26.72-.49,1.53-.75,2.39-.26.85-.34,1.79-.66,2.65-.31.86-.57,1.77-1.01,2.54-.45.8-1.05,1.52-1.71,2.12-.64.58-1.49.85-2.39,1.14-.57.19-1.14.53-1.79.7-.74.19-1.55.2-2.28.44-.73.24-1.41.66-2.08,1.05-.65.38-1.37.74-1.92,1.35-.48.53-.61,1.39-1,2.17-.32.64-.56,1.34-.79,2.18-.19.7-.79,1.37-.91,2.23-.14.94-.17,1.83-.38,2.63-.24.92-.61,1.71-.93,2.48-.37.87-.53,1.78-.99,2.48-.51.77-1.3,1.23-1.89,1.84-.62.63-1.23,1.24-1.93,1.75-.7.51-1.44.94-2.2,1.38-.74.44-1.34,1.18-2.1,1.59-.56.31-1.32.27-1.9.59-.56.32-1.17.59-1.73.94-.63.39-1.34.92-2.06,1.52-.6.5-1.11,1.23-1.75,1.89-.55.57-1.08,1.25-1.64,1.96-.5.64-.85,1.43-1.34,2.18-.44.69-.94,1.37-1.36,2.16-.38.73-.72,1.5-1.08,2.32-.33.76-.57,1.57-.87,2.42-.28.78-.76,1.52-1.01,2.38-.24.8-.24,1.69-.44,2.56-.19.81-.55,1.61-.71,2.49-.15.82-.27,1.68-.39,2.56-.12.83-.24,1.68-.33,2.57-.09.84-.29,1.69-.35,2.57-.06.84-.06,1.71-.09,2.6-.03.88-.24,1.76-.23,2.64,0,.88.25,1.76.3,2.63.05.88.13,1.76.22,2.63.09.88.12,1.76.24,2.63.12.88.17,1.76.32,2.62.15.87.49,1.7.67,2.55.18.87.53,1.69.73,2.53.21.87.15,1.79.38,2.62.24.86.78,1.61,1.04,2.43.27.86.5,1.7.77,2.51.29.86.65,1.66.94,2.45.32.87.4,1.78.71,2.55.35.88.92,1.58,1.24,2.31.4.91.62,1.78.93,2.45.69,1.47,1.16,2.28,1.19,2.32.39.71.02,1.52-.66,1.93-.2.23-.4.45-.67.45s-.63-.07-.88-.24c-.59-.41-1.13-1-1.75-1.52-.58-.49-1-1.18-1.57-1.72-.57-.53-1.19-1-1.72-1.54-.56-.58-1.11-1.13-1.61-1.67-.58-.63-1.35-.99-1.79-1.5-.48-.55-.84-1.02-1.08-1.35-.55.31-1.11.65-1.71,1-.71.42-1.37,1.01-2.12,1.51-.7.47-1.31,1.11-2.01,1.65-.67.52-1.55.8-2.21,1.39-.64.57-1.19,1.28-1.79,1.92-.59.63-1.16,1.3-1.7,1.99-.54.68-.82,1.55-1.29,2.3-.46.74-1.04,1.4-1.42,2.2-.38.78-.71,1.59-.99,2.44-.27.81-.71,1.53-.95,2.28-.16.51-.3,1.01-.44,1.49v.82c.04.05.07.1.13.16,0,.01.02.01.03.02h6.68c.19-.01.41-.02.7-.02s.5,0,.68.02h10.72c.27-.05.58-.1,1.12-.1,1.25,0,1.25-.02,2.5-.02.63,0,.94.06,1.25.12h2.87c.22-.02.49-.04.89-.04.53,0,.83.02,1.11.04h2.51c.36-.04.67-.09,1.39-.09.41,0,.67.04.9.09h10.99c.17-.01.36-.02.61-.02.18,0,.34,0,.47.02h6.13c.23-.06.49-.11.89-.11.52,0,.82.05,1.09.11h3.02c.22-.03.49-.06.89-.06.54,0,.85.03,1.13.06h4.02c-.39-.2-.77-.42-1.15-.58-.78-.33-1.52-.68-2.23-1.09-.73-.42-1.59-.65-2.24-1.15-.68-.51-1.12-1.31-1.72-1.88-.62-.59-1.41-.99-1.95-1.61-.57-.65-.99-1.41-1.47-2.08-.52-.71-.82-1.53-1.24-2.22-.47-.76-.89-1.49-1.26-2.19-.44-.84-1-1.52-1.29-2.19-.57-1.31-.89-2.21-.94-2.36-.04-.13-.06-.27-.06-.4-.06-.06-.13-.13-.19-.19-.25-.26-.45-.55-.64-.86-.24-.18-.47-.37-.66-.59-.59-.66-1.27-1.25-1.75-1.94-.51-.73-.97-1.5-1.38-2.25-.11-.21-.19-.43-.25-.66-.35-.72-.55-1.51-.86-2.22-.34-.8-.77-1.56-1.04-2.35-.28-.83-.26-1.74-.47-2.54-.22-.85-.62-1.64-.77-2.46-.17-.88-.02-1.77-.12-2.58-.12-.91-.49-1.73-.54-2.53-.06-.96-.06-1.83-.06-2.57,0-1.22-.03-2.1,0-2.55-.11-.41-.02-1.29-.26-2.45-.15-.7-.64-1.45-.8-2.36-.13-.75-.17-1.59-.3-2.47-.11-.78,0-1.63-.1-2.49-.09-.79-.24-1.61-.31-2.45-.06-.81-.18-1.63-.22-2.47-.03-.81.07-1.64.07-2.48,0-.82-.2-1.65-.16-2.48.04-.82.27-1.64.35-2.46.08-.82.14-1.65.28-2.46.13-.82.24-1.64.44-2.44.19-.81.43-1.6.69-2.38.28-.85.39-1.75.71-2.55.33-.83.98-1.5,1.35-2.27.39-.8.76-1.59,1.18-2.34.44-.77.68-1.66,1.15-2.38.49-.74,1.03-1.44,1.56-2.11.55-.69,1.31-1.18,1.89-1.8.6-.65,1.07-1.41,1.69-1.99.64-.59,1.37-1.08,2.03-1.61.69-.54,1.38-1.05,2.09-1.52.73-.48,1.54-.78,2.28-1.19.76-.42,1.54-.75,2.31-1.1.79-.36,1.45-1.02,2.25-1.31.82-.29,1.65-.52,2.47-.73.84-.22,1.73-.17,2.55-.32.86-.15,1.71-.12,2.54-.2.69-.06,1.35-.24,2.01-.31.2-.13.42-.22.67-.22.83,0,1.69.14,2.56.22.83.08,1.63.46,2.49.62.82.15,1.64.32,2.48.54.81.22,1.61.49,2.42.78.79.28,1.7.3,2.49.66.77.35,1.54.74,2.3,1.16.74.41,1.32,1.12,2.04,1.61.71.47,1.52.79,2.21,1.33.67.53,1.46.93,2.1,1.52.62.58.96,1.49,1.55,2.13.58.63,1.46,1,2.01,1.69.53.67.74,1.61,1.23,2.35.48.71,1.09,1.35,1.53,2.12.42.74.62,1.63,1.01,2.43.37.77.99,1.44,1.33,2.27.32.8.61,1.63.89,2.48.26.78.22,1.65.41,2.45.19.8.37,1.59.51,2.41.13.81.2,1.63.29,2.45.08.82.54,1.62.58,2.44.04.83-.22,1.67-.22,2.49,0,.84.15,1.67.11,2.49-.03.84-.15,1.67-.22,2.47-.07.85,0,1.69-.08,2.49-.1.86-.25,1.68-.36,2.46-.13.87-.2,1.71-.33,2.46-.16.91-.66,1.66-.81,2.36-.25,1.16-.29,2.02-.39,2.44.03.45.2,1.34.2,2.57,0,.74,0,1.62-.07,2.58-.05.79-.35,1.63-.47,2.54-.1.81-.4,1.62-.57,2.5-.09.49-.21.99-.33,1.49-.01.44-.04.89-.13,1.33-.07.34-.2.66-.34.99-.06.41-.12.81-.26,1.21-.27.79-.39,1.68-.74,2.47-.17.4-.47.75-.77,1.09-.14.58-.25,1.18-.53,1.7-.41.75-.97,1.45-1.48,2.17-.49.7-1.02,1.39-1.61,2.05-.54.6-1.16,1.14-1.8,1.7-.01.08,0,.15-.03.23-.05.16-.26,1.07-.84,2.38-.29.67-.43,1.56-.87,2.4-.36.7-.9,1.37-1.37,2.14-.42.69-.99,1.32-1.51,2.02-.48.66-.96,1.35-1.52,2-.54.62-1.23,1.1-1.85,1.69-.6.57-1.21,1.1-1.89,1.62-.65.5-1.32.97-2.05,1.39-.71.41-1.45.72-2.23,1.04-.49.21-.96.5-1.45.74h34.49c.27-.05.57-.1,1.11-.1.44,0,.73.05.97.1h11.07c.13,0,.28-.01.46-.01,1.25,0,1.25-.08,2.5-.08s1.25.09,2.5.09,1.25-.06,2.5-.06c.48,0,.78.03,1.03.07h6.54c.06-.07.13-.14.18-.21-.23-.73-.69-1.41-.94-2.21Z" style="fill:#f1774c;"/><path d="m70.39,126.98c.88-.15,1.7-.55,2.51-.83.84-.29,1.51-.91,2.27-1.32.78-.42,1.63-.69,2.32-1.2.71-.53,1.28-1.22,1.9-1.83.64-.63,1.48-1.05,2.02-1.72.58-.71,1.03-1.5,1.51-2.21.52-.78.9-1.61,1.3-2.33.15-.27.28-.53.41-.79-.37.31-.72.61-1.1.86-.73.49-1.32,1.12-1.99,1.55-.74.48-1.51.82-2.18,1.22-.76.46-1.58.69-2.26,1.07-.79.44-1.53.81-2.2,1.15-.83.42-1.57.76-2.24,1.05-.91.39-1.64.72-2.28.92-1.2.37-1.92.73-2.37.73-.21,0-.37-.05-.46-.07-.16-.03-.3-.1-.42-.19-.44-.08-1.06-.26-1.94-.54-.64-.2-1.49-.23-2.4-.62-.67-.29-1.3-.89-2.13-1.32-.67-.34-1.46-.61-2.25-1.05-.67-.38-1.49-.61-2.25-1.07-.67-.41-1.37-.86-2.11-1.34-.67-.43-1.4-.83-2.13-1.32-.2-.14-.42-.28-.63-.42.03.05.06.09.08.14.41.72.87,1.48,1.39,2.26.48.71,1.02,1.4,1.6,2.1.55.67,1.16,1.28,1.81,1.91.62.6,1.11,1.4,1.82,1.94.69.52,1.45.99,2.23,1.42.75.41,1.58.73,2.42,1.02.8.28,1.7.22,2.58.37.83.14,1.66.2,2.56.2.27,0,.5.11.68.27.67.03,1.33.07,1.95-.04Z" style="fill:#f1774c;"/><path d="m96.25,98.97c.14-.33.28-.65.34-.99.09-.44.11-.89.13-1.33-.08.33-.16.66-.25,1-.11.42-.16.87-.22,1.32Z" style="fill:#d2a66e;"/><path d="m42.82,107.1c-.47-.72-1.05-1.38-1.44-2.12-.03-.06-.06-.12-.09-.18.06.23.14.45.25.66.41.75.87,1.52,1.38,2.25.49.7,1.17,1.28,1.75,1.94.2.22.42.41.66.59-.27-.43-.51-.87-.81-1.25-.54-.67-1.25-1.19-1.7-1.89Z" style="fill:#d2a66e;"/><path d="m92.61,107.03c-.46.7-.96,1.38-1.5,2.05-.52.65-1.19,1.16-1.79,1.77-.07.07-.14.14-.21.2,0,.1-.03.2-.05.31.63-.56,1.26-1.1,1.8-1.7.59-.66,1.13-1.35,1.61-2.05.51-.73,1.07-1.42,1.48-2.17.28-.52.39-1.12.53-1.7-.27.32-.55.64-.75,1-.39.74-.66,1.56-1.13,2.29Z" style="fill:#d2a66e;"/><path d="m61.09,89.08c0,.54.24,1.13.67,1.63.03-.29.13-.58.3-.83.47-.67,1.45-1.01,2.1-.54.08.05.81,1.02,2.28,1.28.73.13,1.66.11,2.65-.03.77-.11,1.63-.38,2.54-.78.66-.29,1.33-.07,1.7.52.26-.4.4-.83.4-1.26,0-.56-.02-1.6-.5-2.68-.35-.77-1-1.49-1.54-2.26-.53-.76-.96-1.69-1.63-2.21-.75-.59-1.71-.9-2.58-.9s-1.72.46-2.47,1.05c-.68.53-1.09,1.39-1.63,2.15-.54.77-1.02,1.53-1.37,2.31-.48,1.08-.92,1.99-.92,2.55Z" style="fill:#f1774c;"/><path d="m64.14,102.93c-.89-.14-1.66-.44-2.38-.62-.92-.23-1.71-.43-2.35-.66-1.47-.53-2.25-.9-2.29-.92-.67-.44-1.5-.28-1.93.42-.43.7-.2,1.51.48,1.96.06.04.81.8,2.48,1.43.75.28,1.71.39,2.78.66.83.21,1.76.37,2.79.53.07.01.13.31.21.31.71,0,1.42-.72,1.53-1.46.12-.82-.53-1.52-1.33-1.64Z" style="fill:#222;"/><path d="m77.56,100.81s-.79.48-2.27,1.02c-.64.23-1.48.31-2.41.53-.72.18-1.5.43-2.39.56-.79.12-1.59.86-1.47,1.68.11.74.97,1.47,1.67,1.47.07,0,.16-.13.24-.14,1.03-.16,1.94-.51,2.77-.72,1.07-.27,1.91-.73,2.66-1,1.67-.62,2.57-1.01,2.63-1.05.68-.44.79-1.24.37-1.94-.42-.7-1.12-.84-1.8-.4Z" style="fill:#222;"/><path d="m136.68,126.52c-.09-.43-.11-.71-.11-.95,0-.46.13-.75.13-1.6,0-1.29-.08-1.29-.08-2.58,0-.59-.04-.9-.08-1.2-.21-.63-.37-1.27-.7-1.82-.45-.77-.92-1.53-1.43-2.23-.52-.72-1.11-1.38-1.68-2.04-.58-.67-1.26-1.24-1.88-1.84-.63-.62-1.25-1.25-1.9-1.81-.68-.57-1.46-.98-2.15-1.48-.72-.53-1.38-1.11-2.08-1.57-.76-.49-1.49-.97-2.21-1.38-.81-.46-1.56-.89-2.28-1.25-.88-.44-1.71-.72-2.39-1.01-.66-.29-1.19-.54-1.59-.74.03-.25.07-.5.15-.73.26-.79.81-1.51,1.05-2.35.23-.81.46-1.64.68-2.48.21-.82.42-1.65.62-2.5.19-.82.24-1.69.41-2.54.16-.83.53-1.64.67-2.49.14-.84.29-1.69.4-2.55.11-.85.04-1.72.12-2.58.07-.85.16-1.71.21-2.57.04-.85-.13-1.72-.12-2.58,0-.85.02-1.71-.02-2.57-.03-.89.05-1.77-.01-2.63-.06-.89-.13-1.77-.22-2.61-.09-.89-.08-1.78-.2-2.62-.12-.89-.64-1.68-.79-2.52-.16-.88-.03-1.8-.22-2.62-.2-.88-.6-1.67-.83-2.48-.24-.87-.29-1.77-.56-2.56-.29-.85-.63-1.66-.95-2.43-.34-.83-.59-1.68-.96-2.43-.4-.81-.82-1.58-1.24-2.3-.45-.78-1.18-1.33-1.65-2.01-.52-.74-1.03-1.42-1.56-2.05-.58-.7-1.2-1.28-1.78-1.85-.65-.65-1.15-1.38-1.77-1.88-.74-.59-1.45-1.08-2.1-1.48-.6-.37-1.11-.87-1.68-1.2-.61-.34-1.22-.64-1.81-.96-.79-.43-1.66-.63-2.37-1.04-.77-.45-1.43-1.01-2.1-1.52-.69-.53-1.32-1.1-1.88-1.77-.54-.64-.96-1.37-1.38-2.2-.36-.73-.94-1.44-1.2-2.36-.22-.78-.36-1.67-.5-2.62-.13-.9-.2-1.74-.4-2.5-.23-.88-.32-1.76-.63-2.48-.37-.83-1.04-1.41-1.5-2.04-.52-.73-.88-1.55-1.47-2.06-.66-.57-1.44-.94-2.13-1.31-.76-.41-1.6-.52-2.34-.77-.83-.28-1.57-.73-2.3-.92-.59-.15-1.12-.39-1.65-.56-.83-.27-1.45-.73-1.98-1.51-.45-.67-.82-1.47-1.15-2.37-.29-.8-.74-1.6-1.01-2.48-.26-.85-.47-1.76-.79-2.63-.31-.86-.56-1.78-1-2.57-.45-.81-.91-1.68-1.56-2.29-.64-.6-1.51-1.01-2.4-1.33-.48-.17-1.02-.34-1.6-.44-.25-.05-.52-.08-.79-.09-.05,0-.1-.02-.14-.02-.02,0-.05,0-.07,0-.02,0-.04,0-.06,0-.05,0-.09.01-.14.02-.25.01-.5.04-.73.09-.6.12-1.15.3-1.65.48-.89.32-1.49,1.02-2.12,1.62-.65.62-1.14,1.32-1.59,2.12-.44.79-.99,1.53-1.3,2.4-.32.88-.73,1.73-.99,2.57-.27.88-.33,1.81-.62,2.61-.33.9-.71,1.73-1.17,2.4-.53.78-1.22,1.32-2.06,1.59-.53.17-1.1.27-1.69.42-.73.19-1.59.23-2.42.51-.75.25-1.49.7-2.24,1.11-.7.38-1.27,1.01-1.93,1.58-.59.52-1.28,1-1.79,1.73-.45.64-.78,1.42-1.14,2.25-.32.72-.53,1.52-.76,2.4-.2.76-.27,1.59-.4,2.49-.14.95-.5,1.79-.72,2.57-.26.92-.42,1.83-.78,2.55-.41.83-1.24,1.31-1.78,1.95-.57.67-.91,1.58-1.6,2.1-.67.51-1.45.92-2.22,1.37-.71.42-1.63.52-2.42.95-.59.32-1.03.94-1.64,1.28-.58.33-1.3.44-1.89.81-.65.4-1.36.9-2.09,1.49-.62.49-1.15,1.21-1.8,1.85-.58.57-1.22,1.13-1.81,1.83-.53.63-.87,1.45-1.38,2.2-.47.68-.9,1.41-1.35,2.19-.42.72-.82,1.47-1.21,2.28-.37.75-.94,1.43-1.28,2.26-.32.78-.74,1.55-1.03,2.4-.27.8-.57,1.62-.82,2.49-.23.81-.45,1.66-.65,2.54-.19.83-.23,1.71-.39,2.6-.15.84-.25,1.71-.38,2.59-.06.44-.06.9-.05,1.36,0,.42,0,.84-.03,1.26-.03.3-.12.6-.22.9-.18.54-.41,1.09-.45,1.67-.06.85.32,1.75.29,2.64-.03.86-.19,1.71-.18,2.57,0,.86.2,1.71.24,2.57.04.86.1,1.71.17,2.56.08.86-.12,1.75,0,2.59.11.86.16,1.72.29,2.56.14.85.32,1.7.48,2.53.17.85.44,1.67.63,2.49.19.85.18,1.74.4,2.56.22.85.59,1.64.82,2.44.24.84.46,1.68.72,2.47.09.27.19.52.28.78-.39.1-.87.25-1.4.48-.68.29-1.46.69-2.33,1.13-.72.36-1.58.6-2.38,1.06-.72.41-1.31,1.14-2.07,1.64-.71.46-1.51.82-2.23,1.35-.68.51-1.32,1.11-2,1.69-.66.55-1.21,1.24-1.84,1.86-.62.6-1.25,1.19-1.84,1.86-.57.65-1.14,1.31-1.67,2.02-.51.7-1.22,1.29-1.67,2.06-.18.31-.32.64-.46.98-.03.58-.13.85-.18,1.31-.03.21-.04.46-.04.81,0,1.28-.18,1.28-.18,2.57,0,.65.11.97.23,1.29,0,.01,0,.03.01.04.11.31.21.62.21,1.23,0,.43-.11.74-.22,1-.17.38-.32.66-.16,1.02.05-.19.11-.37.16-.56.14-.49.28-.98.44-1.49.24-.76.68-1.47.95-2.28.28-.85.62-1.66.99-2.44.38-.8.95-1.46,1.42-2.2.47-.75.75-1.62,1.29-2.3.54-.69,1.11-1.37,1.7-1.99.61-.64,1.15-1.34,1.79-1.92.66-.59,1.54-.87,2.21-1.39.7-.54,1.31-1.18,2.01-1.65.75-.5,1.41-1.09,2.12-1.51.6-.35,1.16-.69,1.71-1,.24.33.6.8,1.08,1.35.45.51,1.21.87,1.79,1.5.5.54,1.05,1.1,1.61,1.67.53.54,1.16,1.01,1.72,1.54.57.54,1,1.23,1.57,1.72.62.52,1.16,1.11,1.75,1.52.25.17.6.24.88.24s.47-.22.67-.45c.68-.41,1.05-1.22.66-1.93-.02-.04-.49-.85-1.19-2.32-.32-.67-.53-1.53-.93-2.45-.32-.73-.89-1.44-1.24-2.31-.31-.77-.39-1.68-.71-2.55-.29-.79-.65-1.58-.94-2.45-.27-.8-.51-1.64-.77-2.51-.25-.82-.8-1.56-1.04-2.43-.23-.83-.17-1.76-.38-2.62-.21-.84-.55-1.66-.73-2.53-.18-.85-.52-1.68-.67-2.55-.15-.86-.2-1.74-.32-2.62-.12-.86-.16-1.75-.24-2.63-.09-.87-.17-1.74-.22-2.63-.05-.87-.29-1.75-.3-2.63,0-.88.2-1.76.23-2.64.03-.89.03-1.76.09-2.6.06-.89.26-1.74.35-2.57.09-.89.21-1.74.33-2.57.13-.88.24-1.74.39-2.56.16-.88.52-1.67.71-2.49.21-.87.21-1.76.44-2.56.25-.86.73-1.6,1.01-2.38.3-.84.54-1.66.87-2.42.36-.82.7-1.6,1.08-2.32.42-.79.92-1.48,1.36-2.16.49-.76.84-1.55,1.34-2.18.56-.71,1.08-1.39,1.64-1.96.64-.66,1.14-1.39,1.75-1.89.73-.6,1.43-1.13,2.06-1.52.57-.35,1.17-.62,1.73-.94.58-.33,1.34-.29,1.9-.59.77-.42,1.36-1.16,2.1-1.59.75-.44,1.5-.87,2.2-1.38.7-.51,1.3-1.11,1.93-1.75.6-.61,1.39-1.07,1.89-1.84.46-.7.62-1.62.99-2.48.32-.76.69-1.55.93-2.48.21-.81.24-1.69.38-2.63.12-.86.72-1.53.91-2.23.23-.84.48-1.54.79-2.18.38-.77.51-1.63,1-2.17.55-.61,1.28-.97,1.92-1.35.67-.4,1.35-.81,2.08-1.05.73-.24,1.53-.25,2.28-.44.65-.17,1.22-.51,1.79-.7.9-.29,1.75-.56,2.39-1.14.66-.6,1.26-1.32,1.71-2.12.44-.77.7-1.68,1.01-2.54.31-.86.4-1.8.66-2.65.26-.86.5-1.67.75-2.39.31-.87.69-1.63,1.06-2.28.45-.79,1.17-1.18,1.84-1.59.63-.38,1.31-.93,2.24-.93.88.04,1.6.42,2.2.78.67.4,1.39.9,1.84,1.68.37.64.59,1.49.9,2.36.26.72.6,1.49.86,2.35.26.85.43,1.76.74,2.62.31.86.72,1.66,1.16,2.43.45.8.89,1.56,1.55,2.16.64.58,1.4.93,2.3,1.22.57.19,1.1.7,1.75.87.74.19,1.6-.02,2.33.22.73.24,1.36.77,2.04,1.17.65.38,1.11.98,1.66,1.59.49.53.97,1.08,1.35,1.86.32.64.88,1.26,1.12,2.1.19.7.13,1.53.25,2.39.14.94.38,1.8.59,2.61.24.92.55,1.75.87,2.51.37.87.77,1.65,1.23,2.35.5.77,1.09,1.4,1.69,2.01.62.63,1.33,1.13,2.02,1.64.7.51,1.33,1.14,2.09,1.58.74.44,1.5.87,2.27,1.29.56.31,1.19.51,1.77.84.56.32,1.15.6,1.72.96.63.39,1.19,1.07,1.92,1.67.6.5,1.33.94,1.97,1.6.55.57,1.06,1.27,1.61,1.98.5.64,1.14,1.23,1.63,1.98.44.69.72,1.53,1.14,2.32.38.73.75,1.49,1.11,2.32.33.76.86,1.47,1.16,2.31.28.78.6,1.59.85,2.45.24.8.17,1.72.37,2.59.19.81.38,1.65.55,2.53.15.82.44,1.65.57,2.53.12.83.39,1.68.48,2.56.09.84.15,1.71.21,2.59.06.84-.19,1.72-.16,2.61.03.88.02,1.76,0,2.63,0,.88.29,1.78.24,2.65-.05.88-.12,1.77-.21,2.64-.09.88-.63,1.7-.75,2.56-.12.88.08,1.8-.07,2.66-.15.87-.6,1.68-.78,2.52-.18.87-.41,1.71-.61,2.55-.21.87-.11,1.8-.34,2.63-.24.86-.53,1.7-.78,2.51-.27.86-.82,1.59-1.09,2.4-.29.86-.35,1.77-.64,2.56-.32.86-.51,1.74-.82,2.5-.3.75-.6,1.44-.89,2.08-.11.15-.23.32-.36.56-.21.38-.3.64-.37.88-.25.43-.5.82-.67,1.19-.7,1.47-1.08,2.34-1.1,2.38-.15.28-.21.57-.18.84-.08.41-.03.82.27,1.1.17.16.41.14.66.1.15.09.29.17.46.17.27,0,.55-.07.8-.2.01,0,.03,0,.04-.02.59-.41,1.3-.78,1.92-1.31.58-.49,1.04-1.15,1.61-1.69.57-.53,1.11-1.09,1.65-1.64.56-.57,1.18-1.06,1.68-1.6.58-.63.93-1.38,1.38-1.89.44-.5.8-.93,1.05-1.24.6.38,1.17.95,1.86,1.35.71.42,1.54.72,2.29,1.22.7.47,1.34,1.07,2.04,1.62.67.52,1.26,1.16,1.92,1.75.64.57,1.4,1.02,2.01,1.66.59.63,1.25,1.22,1.8,1.91.54.68.92,1.5,1.39,2.25.46.74.83,1.53,1.21,2.33.37.78.96,1.5,1.24,2.35.27.81.25,1.69.48,2.45.25.79.71,1.48.94,2.21.51-.7.12-1.11-.12-2.29Z" style="fill:#222;"/><path d="m99.68,62.89c-.08-.82-.15-1.64-.29-2.45-.13-.82-.32-1.61-.51-2.41-.19-.81-.15-1.68-.41-2.45-.28-.85-.57-1.68-.89-2.48-.33-.83-.96-1.5-1.33-2.27-.39-.8-.58-1.69-1.01-2.43-.44-.77-1.05-1.41-1.53-2.12-.49-.74-.7-1.68-1.23-2.35-.55-.69-1.43-1.07-2.01-1.69-.6-.65-.93-1.55-1.55-2.13-.64-.59-1.44-1-2.1-1.52-.69-.54-1.5-.86-2.21-1.33-.73-.48-1.3-1.2-2.04-1.61-.76-.42-1.53-.81-2.3-1.16-.79-.36-1.7-.37-2.49-.66-.82-.29-1.61-.56-2.42-.78-.84-.22-1.66-.4-2.48-.54-.86-.15-1.66-.54-2.49-.62-.87-.08-1.73-.22-2.56-.22-.24,0-.47.08-.67.22-.66.07-1.32.25-2.01.31-.83.08-1.68.05-2.54.2-.82.15-1.71.1-2.55.32-.81.22-1.65.44-2.47.73-.79.28-1.46.95-2.25,1.31-.77.35-1.55.68-2.31,1.1-.74.41-1.55.71-2.28,1.19-.71.47-1.41.98-2.09,1.52-.67.53-1.39,1.01-2.03,1.61-.63.58-1.1,1.34-1.69,1.99-.58.63-1.34,1.11-1.89,1.8-.53.67-1.07,1.37-1.56,2.11-.48.71-.72,1.6-1.15,2.38-.42.74-.79,1.53-1.18,2.34-.37.77-1.02,1.44-1.35,2.27-.32.8-.43,1.7-.71,2.55-.26.78-.5,1.57-.69,2.38-.19.8-.3,1.62-.44,2.44-.13.81-.19,1.64-.28,2.46-.08.82-.32,1.64-.35,2.46-.04.83.16,1.66.16,2.48,0,.84-.11,1.66-.07,2.48.03.84.16,1.66.22,2.47.07.85.22,1.66.31,2.45.1.86-.01,1.71.1,2.49.13.87.16,1.71.3,2.47.16.91.65,1.66.8,2.36.25,1.16.16,2.04.26,2.45-.03.44-.01,1.33,0,2.55,0,.74,0,1.61.06,2.57.05.79.43,1.62.54,2.53.1.81-.05,1.71.12,2.58.16.81.55,1.6.77,2.46.21.81.19,1.72.47,2.54.27.79.7,1.55,1.04,2.35.31.71.51,1.5.86,2.22.03.06.05.12.09.18.4.74.97,1.4,1.44,2.12.46.7,1.17,1.22,1.7,1.89.3.38.55.82.81,1.25.19.3.39.6.64.86.06.06.13.13.19.19,0,.14.01.27.06.4.05.16.37,1.05.94,2.36.29.67.85,1.35,1.29,2.19.36.7.78,1.42,1.26,2.19.42.69.73,1.51,1.24,2.22.48.66.9,1.43,1.47,2.08.54.62,1.33,1.02,1.95,1.61.6.57,1.04,1.36,1.72,1.88.65.5,1.51.72,2.24,1.15.71.41,1.45.76,2.23,1.09.39.16.77.38,1.15.58.01,0,.03.01.04.02.35.18.7.35,1.08.45.78.21,1.65-.02,2.5.09.54.07,1.09.11,1.65.13.22.17.49.27.79.27.85,0,1.66-.25,2.45-.35.84-.11,1.68-.09,2.45-.29.18-.05.35-.12.53-.19.09-.04.18-.08.27-.13.49-.24.96-.53,1.45-.74.78-.33,1.52-.63,2.23-1.04.73-.42,1.39-.89,2.05-1.39.68-.51,1.29-1.05,1.89-1.62.62-.59,1.31-1.06,1.85-1.69.57-.65,1.04-1.34,1.52-2,.52-.71,1.08-1.34,1.51-2.02.47-.76,1.01-1.44,1.37-2.14.44-.84.58-1.74.87-2.4.57-1.31.79-2.22.84-2.38.03-.08.02-.15.03-.23.02-.1.05-.21.05-.31.07-.07.14-.14.21-.2.6-.62,1.27-1.12,1.79-1.77.54-.67,1.04-1.35,1.5-2.05.47-.72.74-1.55,1.13-2.29.2-.36.48-.68.75-1,.3-.35.59-.69.77-1.09.34-.8.47-1.68.74-2.47.13-.39.2-.8.26-1.21.06-.45.11-.9.22-1.32.09-.34.17-.67.25-1,.12-.5.23-1,.33-1.49.17-.88.47-1.69.57-2.5.12-.91.42-1.74.47-2.54.06-.96.07-1.84.07-2.58,0-1.23-.16-2.12-.2-2.57.11-.41.15-1.28.39-2.44.15-.7.64-1.45.81-2.36.13-.75.2-1.59.33-2.46.11-.78.27-1.6.36-2.46.09-.8.02-1.64.08-2.49.06-.81.18-1.63.22-2.47.03-.82-.11-1.65-.11-2.49,0-.82.26-1.66.22-2.49-.04-.82-.5-1.62-.58-2.44Zm-15.47,52.66c-.4.72-.78,1.55-1.3,2.33-.48.71-.93,1.5-1.51,2.21-.55.67-1.38,1.09-2.02,1.72-.62.6-1.19,1.29-1.9,1.83-.69.52-1.54.78-2.32,1.2-.75.41-1.43,1.03-2.27,1.32-.8.28-1.62.68-2.51.83-.62.1-1.28.06-1.95.04-.18-.17-.41-.27-.68-.27-.9,0-1.73-.07-2.56-.2-.88-.15-1.78-.09-2.58-.37-.84-.29-1.67-.61-2.42-1.02-.78-.42-1.54-.9-2.23-1.42-.71-.53-1.2-1.33-1.82-1.94-.64-.63-1.26-1.24-1.81-1.91-.58-.7-1.12-1.4-1.6-2.1-.52-.78-.99-1.53-1.39-2.26-.03-.05-.06-.09-.08-.14.21.14.42.28.63.42.73.49,1.46.89,2.13,1.32.74.48,1.44.93,2.11,1.34.76.46,1.58.69,2.25,1.07.79.44,1.58.71,2.25,1.05.83.42,1.46,1.03,2.13,1.32.91.39,1.76.42,2.4.62.89.28,1.5.46,1.94.54.12.08.26.15.42.19.09.02.25.07.46.07.45,0,1.17-.35,2.37-.73.64-.2,1.37-.53,2.28-.92.67-.29,1.41-.63,2.24-1.05.67-.34,1.41-.71,2.2-1.15.67-.38,1.5-.6,2.26-1.07.67-.41,1.44-.75,2.18-1.22.67-.43,1.26-1.06,1.99-1.55.38-.25.73-.55,1.1-.86-.12.26-.26.52-.41.79Zm12.25-38.65c-.13.9-.13,1.78-.26,2.55-.17.95-.18,1.84-.33,2.55-.32,1.54-.8,2.41-.81,2.44-.05.18-.17.38-.15.57,0,.04.35.98.33,2.52,0,.72-.1,1.58-.17,2.54-.06.78-.16,1.63-.29,2.52-.11.8-.5,1.59-.68,2.45-.17.8-.42,1.59-.66,2.43-.23.79-.42,1.6-.72,2.41-.29.77-.57,1.56-.94,2.33-.35.75-.59,1.58-1.02,2.31-.42.71-1.02,1.31-1.53,1.99-.49.66-.9,1.4-1.47,2.03-.55.6-1.21,1.12-1.85,1.67-.61.53-1.34.91-2.04,1.39-.75.52-1.31,1.26-2,1.72-.77.51-1.59.83-2.27,1.27-.79.5-1.51.97-2.21,1.38-.81.49-1.45,1.14-2.14,1.52-.86.47-1.75.61-2.43.94-.95.46-1.73.76-2.37,1-1.67.63-2.31.56-2.42.56-.12-.02-.23,0-.33.02-.03,0-.05.01-.07.02-.19.06-.36.16-.5.31-.39-.11-1.08-.33-2.13-.72-.64-.24-1.38-.7-2.33-1.16-.68-.33-1.45-.71-2.31-1.18-.69-.38-1.42-.84-2.24-1.32-.69-.41-1.6-.58-2.38-1.08-.69-.44-1.42-.92-2.19-1.44-.69-.46-1.29-1.13-2.04-1.65-.7-.48-1.25-1.11-1.87-1.64-.64-.56-1.3-1.05-1.85-1.65-.57-.62-1.32-1.09-1.81-1.75-.51-.68-.69-1.59-1.11-2.3-.43-.73-1.04-1.36-1.4-2.1-.37-.77-.41-1.68-.7-2.45-.3-.81-.68-1.56-.91-2.35-.24-.83-.32-1.68-.49-2.48-.18-.86-.42-1.67-.53-2.47-.13-.89-.16-1.74-.22-2.52-.07-.95-.3-1.8-.3-2.52-.02-1.54-.06-2.52-.05-2.56.02-.19,0-.29-.05-.47-.01-.04.16-1.06-.16-2.59-.15-.71-.34-1.55-.51-2.5-.14-.78-.29-1.62-.42-2.52-.11-.81-.41-1.63-.51-2.52-.09-.82-.33-1.67-.39-2.54-.06-.84-.06-1.71-.09-2.58-.02-.85.3-1.71.32-2.57.01-.69.06-1.37.11-2.05.11-.05.23-.11.37-.16.68-.24,1.39-.82,2.29-1.17.73-.28,1.55-.5,2.39-.86.74-.32,1.56-.56,2.37-.94.74-.35,1.58-.59,2.35-.99.74-.38,1.36-1.04,2.11-1.48.73-.42,1.55-.7,2.28-1.16.71-.45,1.32-1.09,2.03-1.59.69-.49,1.31-1.09,1.98-1.62.67-.53,1.31-1.08,1.95-1.65.64-.58,1.51-.89,2.1-1.52.59-.62.91-1.5,1.45-2.17.54-.67,1.16-1.27,1.63-1.99.48-.72.77-1.54,1.17-2.31.4-.77.92-1.46,1.24-2.28.31-.81.74-1.59.96-2.44.21-.83.04-1.75.15-2.64.08-.62.27-1.27.37-1.92.1.65.29,1.3.37,1.92.11.88.08,1.76.29,2.59.21.85.53,1.66.84,2.47.31.82.57,1.65.97,2.42.4.77.93,1.46,1.41,2.18.48.72,1.03,1.37,1.58,2.04.54.67,1.14,1.27,1.74,1.89.59.62,1.08,1.35,1.72,1.93.64.58,1.24,1.2,1.91,1.74.67.54,1.52.82,2.21,1.31.7.5,1.29,1.17,2,1.62.73.47,1.44.95,2.17,1.37.75.43,1.49.88,2.23,1.26.78.41,1.56.75,2.3,1.11.8.38,1.55.81,2.29,1.13.84.36,1.63.69,2.35.98.9.35,1.78.44,2.46.67.18.06.34.14.48.21.01.7-.05,1.41-.03,2.1.02.86-.06,1.71-.08,2.56-.02.87-.07,1.72-.12,2.55-.06.88,0,1.73-.09,2.56-.09.88-.17,1.74-.28,2.54Z" style="fill:#222;"/><path d="m49.29,69.51c.36-.45.82-1.21,1.46-1.74.64-.52,1.39-.99,1.99-1.11.47-.1,1.57.1,2.87.42.84.21,1.7.8,2.66,1.11.92.3,1.9.44,2.76.77.75.28,1.61-.13,1.89-.91.28-.78-.03-1.87-.78-2.16-.51-.2-1.46-.3-2.48-.64-.75-.25-1.54-.73-2.4-.96-.85-.23-1.79-.03-2.58-.16-.99-.17-1.81-.19-2.46-.06-.68.15-1.33.34-1.94.72-.64.39-1.33.7-1.82,1.15-.81.74-1.37,1.43-1.49,1.58-.51.64-.37,1.62.25,2.15.27.23.59.32.92.32.42,0,.87-.13,1.15-.49Z" style="fill:#222;"/><path d="m86.89,65.87c-.5-.44-1.16-.77-1.81-1.16-.62-.37-1.22-.86-1.9-.99-.65-.13-1.52.27-2.51.45-.79.14-1.74-.08-2.58.17-.85.25-1.71.5-2.45.76-1.02.36-1.82.9-2.33,1.1-.75.3-1.16,1.23-.86,2,.29.77,1.19,1.15,1.94.84.85-.34,1.72-.86,2.63-1.17.96-.32,1.99-.29,2.83-.51,1.29-.34,2.3-.71,2.77-.61.6.12,1.33.51,1.97,1.03.65.52,1.24,1.13,1.61,1.57.29.35.66.63,1.07.63.33,0,.77-.06,1.04-.3.61-.54.74-1.75.22-2.38-.12-.15-.82-.71-1.64-1.44Z" style="fill:#222;"/><path d="m72.74,92.54c.74-.32,1.03-1.23.72-1.99-.03-.08-.09-.13-.13-.2-.36-.59-1.04-.81-1.7-.52-.9.39-1.77.66-2.54.78-1,.15-1.92.16-2.65.03-1.47-.26-2.21-1.23-2.28-1.28-.65-.47-1.64-.14-2.1.54-.17.24-.27.53-.3.83-.05.52.11,1.05.53,1.36.08.06,1.12.61,2.72,1.07.8.23,1.76.4,2.87.4.76,0,1.58-.1,2.46-.29.75-.17,1.57-.35,2.4-.71Z" style="fill:#222;"/><path d="m87.44,76.55c-.32-.71-.81-1.36-1.38-1.78-.04-.03-.09-.05-.14-.08-.31-.29-.68-.59-1.15-.86-.59-.35-1.26-.83-2.13-1.01-.68-.14-1.47,0-2.35.04-.85.04-1.59.18-2.28.43-.79.29-1.51.6-2.09,1.07-.66.53-1.28,1.09-1.7,1.7-.54.78-.79,1.63-.96,2.23-.22.8.25,1.58,1.02,1.81.13.04.25.22.39.22.63,0,1.13-.57,1.31-1.23,0-.02.49-1.38,1.73-2.37.65-.51,1.53-.91,2.69-.96.3-.02.57,0,.84.02-.21.26-.4.55-.55.89-.29.65-.43,1.32-.43,2.11s.1,1.48.4,2.13c.32.71.56,1.53,1.13,1.96.59.44,1.41.46,2.16.46s1.48-.15,2.07-.59c.57-.42,1.17-.99,1.49-1.7.29-.63.3-1.42.3-2.19,0,0,0-.01,0-.02.1-.44.04-.93-.12-1.43-.06-.3-.13-.58-.25-.84Z" style="fill:#222;"/><path d="m54.87,78.78c0,.79-.12,1.62.18,2.27.32.71.93,1.27,1.5,1.69.59.44,1.33.75,2.07.75s1.42-.39,2.02-.83c.57-.42,1.11-.96,1.43-1.67.29-.65.29-1.42.29-2.21,0-.06,0-.12,0-.18,0,0,0-.02,0-.03.24-1.04-.01-2.49-.91-3.61-.36-.45-1-1.06-1.85-1.56-.59-.35-1.38-.61-2.25-.79-.68-.15-1.47.03-2.34.06-.85.04-1.59.17-2.27.42-.79.29-1.41.72-1.99,1.19-.66.53-1.35.98-1.77,1.59-.54.78-.83,1.6-1,2.2-.22.79.28,1.43,1.05,1.67.14.04.22,0,.36,0,.63,0,1.02-.24,1.21-.89.02-.09.51-1.52,1.72-2.49.65-.52,1.64-.55,2.81-.6.21,0,.4-.03.59-.04-.22.25-.42.53-.57.85-.29.65-.3,1.42-.3,2.21Z" style="fill:#222;"/></svg>