<?xml version="1.0" encoding="UTF-8"?><svg id="Layer_2" xmlns="https://www.w3.org/2000/svg" viewBox="0 0 296.43 31.64"><g id="diseño"><path d="m178.26,6.4c.68-2.09-.65-5.35-3.52-5.1-.49-.06-1.04,0-1.66.19-.22.06-.45.13-.68.25-.6.3-1.17.82-1.45,1.75-.11.31-.18.65-.17,1.03-.15,3.45.77,5.47.62,7.23-.14,1.76-.91,5.65-.64,8.99.27,3.34,1.19,2.56.73,7.6-.23,2.51,2.78,3.03,2.9,1.07s-.63-4.83-.33-7.01c.3-2.19-.69-3.74,1.13-4.74,1.81-1,3.32-.32,3.93-2.51.6-2.19-1.58-6.54-.87-8.74Zm-3.86,7.05c-.42-.9.04-3.62.16-4.2.11-.58-.34-2.17-.64-3.23-.3-1.06.3-1.06.3-1.06.98-.68,1.85.57,1.62,1.43-.23.87-.11,3.7.15,5.36.26,1.66-1.17,2.6-1.59,1.7Z" style="fill:#f2dab2;"/><path d="m224.06,1.55s-2.52.93-2.34,2.3c.99,7.23.67,20.86.7,21.9.03,1.03.33,4.56,2.05,5.07,1.72.52,1.63-.04,2.35,0,.72.04,2.27-.59,2.12-2.67-.15-2.09.23-20.81.42-22.22s-1.62-5.97-5.3-4.37Zm.84,26.22c-.32-.69.16-8.82.25-9.26s-.35-13.04-.58-13.84.69-1.12.69-1.12c.74-.52,1.58.88,1.41,1.54-.17.66-.09,20.51.11,21.77.2,1.26-1.57,1.6-1.89.92Z" style="fill:#f2dab2;"/><path d="m190.49,2.04c-.45-.06-.83-.08-1.23-.09-.62-.02-1.25-.04-2.21-.26-.97-.22-1.93,0-2.5.54-.37.36-.53.81-.45,1.29.09.52.05,1.26,0,2.11-.05.92-.17,4.88-.06,5.89.07.67-.19,1.93-.04,2.69.28,1.44.56,2.93.42,4.28-.06.55-.16,1.16-.27,1.8-.3,1.76-.23,6.06.14,8.37.33,2.1,1.13,2.44,2.11,2.44.22,0,.46-.02.7-.04.36-.03.73-.05,1.12-.03,1.77.11,2.52-.69,2.63-.82.45-.36.64-.81.5-1.2-.14-.41-.59-.66-1.21-.67-.58,0-1.05.25-1.47.47-.46.25-.87.46-1.31.32-.59-.19-.37-2.75-.26-4.12.05-.6-.36-3.21-.36-3.56,0-.59.02-1.86.06-3.27.02-.26.08-.6.26-.78.08-.08.18-.11.3-.11.29.02.62.11.93.21.55.17,1.07.32,1.49.08.34-.2.48-.7.34-1.16-.18-.59-.74-.92-1.49-.88-.34.02-.64.06-.87.09-.37.05-.64.08-.74,0-.1-.1-.11-.39-.1-.65,0-.05,0-.09,0-.13,0,0,0-.01,0-.02,0-.04,0-.08,0-.12.03-.66,0-3.87.05-4.24.12-1.17.34-3.26.1-4.28-.1-.43-.19-.81-.22-1.09-.02-.17.02-.32.14-.46.31-.36,1.11-.61,2.2-.66.33-.02.71.03,1.08.08.82.11,1.67.23,1.93-.48.12-.32.11-.6-.03-.82-.26-.44-.95-.59-1.66-.68Z" style="fill:#f2dab2;"/><path d="m296.34,29.07c-.2-.59-.69-.96-1.29-.96-.46,0-1.05.27-1.73.59-1.33.62-2.98,1.39-4.69.76-.63-.23-.42-2.87-.29-4.44.05-.64.1-1.19.1-1.57,0-.63.02-2,.06-3.51.02-.28.09-.65.28-.84.09-.09.19-.13.33-.12.92.05,2.45-.28,3.1-.67.36-.22.52-.75.37-1.24-.19-.64-.79-.99-1.61-.95-.69.03-1.27.31-1.69.5-.21.1-.53.25-.59.2,0,0-.08-.06-.06-.51,0-.04,0-.09,0-.13.03-.71.07-1.32.11-1.71.13-1.26-.18-2.62-.44-3.72-.11-.47-.2-.87-.24-1.17-.04-.3.1-.65.4-.98.49-.55,1.32-.95,1.97-.95,2.71,0,3.22-1.41,3.49-2.17.14-.38.13-.68-.01-.92-.24-.4-.84-.55-1.66-.67-.64-.09-1.19.43-1.77.98-.66.62-1.34,1.27-2.19,1.08-1.05-.23-2.08,0-2.7.58-.4.38-.57.87-.48,1.38.1.56.06,1.35,0,2.26-.06.99-.12,2.11,0,3.2.07.71.22,1.48.38,2.29.3,1.55.61,3.15.45,4.6-.06.59-.18,1.25-.3,1.94-.33,1.9-.73,4.25-.34,6.74.36,2.26,1.22,2.62,2.28,2.62.24,0,.49-.02.75-.04.39-.03.79-.06,1.21-.03,1.97.12,6.03-.54,6.2-.57h.05s.04-.04.04-.04c.53-.42.73-1.14.5-1.81Z" style="fill:#f2dab2;"/><path d="m204.85,24.05c-.32-.59-.6-1.11-.73-2.2-.11-.91-.63-2.81-1.09-3.39-.52-.65-.8-1.05-.61-1.54.15-.39.19-.74.12-1.06.75-1.62.48-10.75.03-12.18-.24-.76-1.48-1.68-2.35-1.93-1.37-.39-3.09.01-3.51.37-.44.38-.31,1.29-.11,2.54.11.7.22,1.42.21,2.04,0,.82-.06,8.26-.11,9.53-.05,1.25-.1,3.68-.1,4.43,0,.28-.01.58-.02.89-.05,1.36-.1,2.91.5,4.39.65,1.61.09,3.38.09,3.4l-.02.05v.06c.02,1.38.54,1.66.85,1.7.03,0,.07,0,.1,0,.49,0,.98-.5,1.21-1.26.24-.76.18-2.37.13-3.92-.04-1.06-.07-2.07,0-2.62.07-.58,0-1.23-.06-1.86-.07-.7-.17-2.81.09-2.99.15-.1.74-.32.74-.32,0,0,.71-.13,1.07.24.22.22.22,2.85.22,3.59,0,.66,0,1.18.07,1.47.09.35.35.7.66,1.1.37.49.8,1.04.86,1.57.03.25.03.49.03.72.01.73.02,1.49.95,1.72.07.02.15.03.22.03.26,0,.5-.12.7-.34.58-.65.76-2.16.38-3.17-.16-.43-.34-.76-.51-1.08Zm-5.64-8.47c-.29-.58-.47-7.9-.39-8.27.08-.37.27-1.93.06-2.6-.21-.67.21-.67.21-.67.67-.43,1.27.36,1.12.91-.16.55-.08,8.5.1,9.56.18,1.06-.8,1.66-1.09,1.08Z" style="fill:#f2dab2;"/><path d="m217.9,25.35c-.32-.59-.6-2.4-.73-3.49-.11-.91-.63-2.81-1.09-3.39-.52-.65-.8-1.05-.61-1.54.15-.39.19-.74.12-1.06.75-1.62.48-10.75.03-12.18-.24-.76-1.48-1.68-2.35-1.93-1.37-.39-3.09.01-3.51.37-.44.38-.31,1.29-.11,2.54.11.7.22,1.42.21,2.04,0,.82-.06,8.26-.11,9.53-.05,1.25-.1,3.68-.1,4.43,0,.28-.01.58-.02.89-.05,1.36-.1,2.91.5,4.39.65,1.61.09,3.38.09,3.4l-.02.05v.06c.02,1.38.54,1.66.85,1.7.03,0,.07,0,.1,0,.49,0,.98-.5,1.21-1.26.24-.76.18-2.37.13-3.92-.04-1.06-.07-2.07,0-2.62.07-.58,0-1.23-.06-1.86-.07-.7-.17-2.81.09-2.99.15-.1.74-.32.74-.32,0,0,.71-.13,1.07.24.22.22.22,2.85.22,3.59,0,.66,0,1.18.07,1.47.09.35.35,1.99.66,2.39.37.49.8,1.04.86,1.57.03.25.61,1.56.61,1.79.01.73.02,1.49.95,1.72.07.02.15.03.22.03.26,0,.5-.12.7-.34.58-.65.18-3.23-.2-4.24-.16-.43-.34-.76-.51-1.08Zm-5.64-9.76c-.29-.58-.47-7.9-.39-8.27.08-.37.27-1.93.06-2.6-.21-.67.21-.67.21-.67.67-.43,1.27.36,1.12.91-.16.55-.08,8.5.1,9.56.18,1.06-.8,1.66-1.09,1.08Z" style="fill:#f2dab2;"/><path d="m277.95,3.72c-.81.17-1.69.57-2.46.93-.29.13-.57.26-.82.37-.05.02-.1.04-.15.05.01-.23.03-.44.05-.59.12-.83-.87-1.3-1.47-1.45h-.04s-.04,0-.04,0c-.24.06-.55.17-.71.3-.37.32-.24,1.24-.06,2.39.11.71.22,1.44.21,2.07,0,.82.23,6.35.18,7.62-.05,1.25-.1,2.43-.11,3.18,0,.29-.02.59-.03.9-.04,1.35-.11,5.2.47,6.65.67,1.67.06,3.5.06,3.52l-.08.03v.03c0,1.25.52,1.5.77,1.54.03,0,.12,0,.15,0,.41,0,.84-.46,1.05-1.14.23-.74.17-2.33.12-3.86-.04-1.07-.07-2.08,0-2.65.07-.56,0-3.53-.06-4.14,0-.08-.02-.16-.03-.25.2-.12.39-.34.57-.55.25-.29.53-.62.78-.68.24-.05.42-.03.62,0,.35.04.74.08,1.51-.17.8-.27.81-.86.78-1.11-.07-.49-.45-.94-.82-.96-.51-.03-1.18.21-1.95.48l-.26.09c-.44.15-.79.14-1.01.1.04-1.12.8-4.39.63-5.1-.09-.39-1.22-3.14-1.26-3.66.24-.66,1.6-1.24,2.35-1.34.25-.03.47-.04.68-.05.48-.02.9-.04,1.51-.34.41-.2.55-.67.37-1.2-.21-.59-.78-1.11-1.5-.97Z" style="fill:#f2dab2;"/><path d="m288.66,3.99c.54.01,1.05.02,1.52-.26.78-.48,1.68-1.48,1.64-2.02-.01-.16-.1-.29-.25-.35-.37-.16-.67-.1-1.06-.02-.25.05-.56.11-.97.13h-.17c-.94.05-1.3.07-2,.72-.24.22-.4.25-.58.28-.35.06-.61.16-.93.89-.31.12-1.33.54-1.43,1.12-.04.22.05.35.13.42.02.01.03.02.04.03.44.3,1.49-.13,2.26-.59.61-.36,1.21-.35,1.8-.34Z" style="fill:#f2dab2;"/><path d="m250.56,25.74c-.87-.12-1.18,1.97-1.55,2.31-.37.34-1.33.68-1.68.38s-.07-5.2.1-5.94c.37-1.58-.65-9.81-.72-10.32,0,0-.26-7.2.63-7.51.89-.31,1.23-.05,1.4.63.17.68.21,1.2,1.15,1.07.94-.13,1.35-1.89.3-2.49-1.05-.59-1.11-1.28-1.95-1.57-.61-.21-3.54.99-3.49,2.21.05,1.22.07,6.88,0,7.82.22-2.8-.21,8.65,0,11.82.12,1.82.87,6.02,1.99,6.11,1.13.09,1.61-.26,2.43-.14.82.11,2.3-1.61,2.31-2.2,0-.59-.06-2.06-.92-2.18Z" style="fill:#f2dab2;"/><path d="m263.6,15.47c-.24-.83.25-8.93.02-10.71-.23-1.78-1.72-3.65-2.84-2.9-1.12.75-1.97,1.02-2.12,2.61-.15,1.59.66,1.34.32,5.56-.05.65-.51,4.23-.57,7.96-.08,5.55-.46,10.13-.46,10.13-.06,1.15-.66,3.52,2.13,2.74.93-.26.79-2.09.79-3.11s.14-7.4.14-8.36.71-.65,1.18-.65.83,4.07.94,5.21c.11,1.13.34,2.15.23,3.79-.11,1.64.47,3.9,1.56,3.91,1.09,0,.79-2.57.64-4.88s-1.72-10.46-1.96-11.29Zm-2.87-2.02c-.42-.9.04-3.62.16-4.2.11-.58-.34-2.17-.64-3.23-.3-1.06.3-1.06.3-1.06.98-.68,1.85.57,1.62,1.43-.23.87-.11,3.7.15,5.36.26,1.66-1.17,2.6-1.59,1.7Z" style="fill:#f2dab2;"/><path d="m6.16,10.09H.35c-.19,0-.35.16-.35.35v14.48c0,.19.16.35.35.35h5.81c.19,0,.35-.16.35-.35v-1.11c0-.19-.16-.35-.35-.35H1.82v-4.74h3.52c.19,0,.35-.16.35-.35v-1.11c0-.19-.16-.35-.35-.35H1.82v-5.01h4.35c.19,0,.35-.16.35-.35v-1.11c0-.19-.16-.35-.35-.35Z" style="fill:#f2dab2;"/><path d="m18.38,23.47h-4.51v-13.02c0-.19-.16-.35-.35-.35h-1.11c-.19,0-.35.16-.35.35v14.48c0,.19.16.35.35.35h5.98c.19,0,.35-.16.35-.35v-1.11c0-.19-.16-.35-.35-.35Z" style="fill:#f2dab2;"/><path d="m38.93,10.02c-.23-.02-.47-.03-.73-.04-.26,0-.5-.01-.72-.01-.45,0-.97.09-1.6.26-.64.18-1.27.56-1.85,1.11-.58.55-1.08,1.35-1.48,2.38-.4,1.02-.61,2.38-.61,4.05,0,1.53.18,2.8.53,3.78.36.99.82,1.78,1.39,2.35.57.57,1.22.98,1.93,1.19.69.21,1.37.32,2.04.32h.71c.14,0,.28-.01.43-.03.17-.02.3-.17.3-.35v-1.11c0-.1-.05-.2-.13-.27-.08-.07-.19-.1-.29-.08-.08.01-.17.02-.27.02h-.36c-1.54,0-2.64-.45-3.36-1.38-.73-.94-1.1-2.43-1.1-4.43s.34-3.56,1-4.51c.65-.93,1.6-1.38,2.92-1.38h1.23c.19,0,.35-.16.35-.35v-1.18c0-.18-.14-.34-.32-.35Z" style="fill:#f2dab2;"/><path d="m52.76,10.09h-1.12c-.19,0-.35.16-.35.35v10.37c0,1-.17,1.73-.52,2.16-.32.41-.96.62-1.88.62s-1.56-.21-1.88-.62c-.34-.43-.52-1.16-.52-2.16v-10.37c0-.19-.16-.35-.35-.35h-1.11c-.19,0-.35.16-.35.35v10.58c0,1.5.39,2.62,1.16,3.33.76.7,1.79,1.05,3.06,1.05s2.3-.35,3.06-1.05c.77-.71,1.16-1.83,1.16-3.33v-10.58c0-.19-.16-.35-.35-.35Z" style="fill:#f2dab2;"/><path d="m65.33,23.47h-4.51v-13.02c0-.19-.16-.35-.35-.35h-1.11c-.19,0-.35.16-.35.35v14.48c0,.19.16.35.35.35h5.98c.19,0,.35-.16.35-.35v-1.11c0-.19-.16-.35-.35-.35Z" style="fill:#f2dab2;"/><path d="m76.25,10.09h-6.62c-.19,0-.35.16-.35.35v1.11c0,.19.16.35.35.35h2.38v13.02c0,.19.16.35.35.35h1.11c.19,0,.35-.16.35-.35v-13.02h2.42c.19,0,.35-.16.35-.35v-1.11c0-.19-.16-.35-.35-.35Z" style="fill:#f2dab2;"/><path d="m85.79,9.96c-1.4,0-2.46.33-3.17.97-.71.65-1.07,1.57-1.07,2.72v7.69c0,.79.12,1.45.36,1.98.25.53.58.96.99,1.27.4.3.86.51,1.37.64.49.12,1,.18,1.52.18s1.03-.06,1.52-.18c.51-.12.97-.34,1.37-.64.41-.31.74-.73.99-1.27.24-.53.36-1.19.36-1.98v-7.69c0-1.15-.36-2.06-1.07-2.72-.71-.65-1.77-.97-3.17-.97Zm-.05,1.81c.96,0,1.62.17,1.96.49.34.32.51.9.51,1.71v7.26c0,.85-.17,1.46-.51,1.81-.33.35-.99.53-1.94.55-.92-.02-1.56-.2-1.89-.55-.34-.35-.51-.96-.51-1.81v-7.26c0-.83.16-1.41.49-1.72.32-.31.97-.48,1.89-.48Z" style="fill:#f2dab2;"/><path d="m109.14,10.37c-.04-.16-.18-.27-.34-.27h-1.76c-.16,0-.31.11-.34.27l-3.3,14.48c-.02.1,0,.21.07.3.07.08.17.13.28.13h1.16c.16,0,.31-.11.34-.27l.79-3.46h3.76l.79,3.46c.04.16.18.27.34.27h1.16c.11,0,.21-.05.28-.13.07-.08.09-.19.07-.3l-3.3-14.48Zm.26,9.36h-2.96l1.48-6.36,1.48,6.36Z" style="fill:#f2dab2;"/><path d="m123.72,23.47h-4.51v-13.02c0-.19-.16-.35-.35-.35h-1.11c-.19,0-.35.16-.35.35v14.48c0,.19.16.35.35.35h5.98c.19,0,.35-.16.35-.35v-1.11c0-.19-.16-.35-.35-.35Z" style="fill:#f2dab2;"/><path d="m153.24,12.64l3.05-6.48-5.6,1.97-2.39-8.14-3.05,8.37-4.95-2.03,2.63,6.31-6.81,2.4,6.69,2.52-1.4,6.06,4.48-.93,2.15,8.39,2.35-8.32,4.38.86-1.3-5.6,6.58-2.98-6.82-2.4Zm-5.66,7.34c-1.45-.07-2.53-.79-3.06-2.2-.38-1.02-.47-2.39-.19-4.16.35-2.27,1.72-3.39,2.56-3.87.39-.23.67-.31.67-.31,0,0,.03.02.08.05.08.06.2.19.22.43.04.37-.21,3.07-.27,3.67-.06.59-.05,2.78,0,3.33.02.27.09.7.16,1.08.07.41.13.78.12.9-.02.25-.02,1.1-.28,1.09Zm3.85-2.33c-.5,1.55-1.61,2.33-3.11,2.33,0,0-.14-.42,0-1.09.03-.16.07-.47.1-.86.11-1.26.21-3.39.19-4.1-.02-.83-.14-2.52-.29-3.19l.03.02c-.08-.27-.1-.7.1-.97.12-.16.29-.17.5-.09.83.46,2.27,1.58,2.63,3.91.26,1.68.19,3.02-.14,4.04Z" style="fill:#f2dab2;"/></g></svg>
