<?xml version="1.0" encoding="UTF-8"?><svg id="Layer_2" xmlns="https://www.w3.org/2000/svg" viewBox="0 0 49.86 49.86"><g id="diseño"><path d="m12.86,26.96s.17,5.43.11,5.89-.29,3.09,3.66,3.31c3.94.23,18.35.11,18.81.11s3.26-.06,3.2-2.69-.29-12-.29-12c0,0,.06-2.34-2.34-2.34-1.71,0-22.18-.11-22.18-.11,0,0-1.09-.06-1.14,1.31s.17,6.51.17,6.51Z" style="fill:#f8eee0;"/><path d="m24.93,0C11.18,0,0,11.18,0,24.93s11.18,24.93,24.93,24.93,24.93-11.18,24.93-24.93S38.68,0,24.93,0Zm0,47.7c-12.55,0-22.77-10.21-22.77-22.77S12.38,2.16,24.93,2.16s22.77,10.21,22.77,22.77-10.21,22.77-22.77,22.77Z" style="fill:#222;"/><path d="m39.48,23.66s0-.04,0-.06c-.03-1.18-.05-1.98-.05-1.98,0-.06,0-.31-.06-.65-.1-2.53-.22-5.56-.22-5.99,0-.96-.43-2.58-3.33-2.58h-1.71c-.01-.46-.03-.79-.03-.87v-1.48c0-.6-.48-1.08-1.08-1.08s-1.08.48-1.08,1.08v1.48c0,.07.01.4.03.85-.48,0-.99,0-1.52,0-.03-.99-.06-2.01-.07-2.36-.02-.6-.53-1.11-1.12-1.05-.6.02-1.07.52-1.05,1.12,0,0,.04,1.13.07,2.28-.78,0-1.58,0-2.39,0-.01-.43-.02-.76-.03-.83v-1.48c0-.6-.48-1.08-1.08-1.08s-1.08.48-1.08,1.08v1.48c0,.06,0,.39.02.82-.71,0-1.41,0-2.08,0-.03-.99-.06-1.99-.07-2.34-.02-.6-.52-1.11-1.12-1.05-.6.02-1.07.52-1.05,1.12,0,0,.04,1.13.07,2.27-.73,0-1.39,0-1.97.01-.01-.44-.02-.77-.03-.84v-1.48c0-.6-.48-1.08-1.08-1.08s-1.08.48-1.08,1.08v1.48c0,.07.01.42.03.89-2.63.13-3.67.73-3.86,2.28-.1.59.03,3.84.13,5.75-.05,1.44.16,6.26.17,6.55.08,2.54.15,5.38.12,5.71-.06.51-.11,1.81.81,2.92.81.97,2.1,1.51,3.86,1.62,1.66.1,5.3.14,10.67.14,2.27,0,4.85,0,7.71-.03h.48c.65,0,2.27-.12,3.34-1.21.64-.65.97-1.55.95-2.58-.04-1.85-.16-7.01-.24-9.91,0,0,0,0,0,0ZM13.61,15.06l.02-.18s0-.02,0-.03c.15-.07.61-.22,1.77-.28.02.47.03.89.04,1.14.02.58.5,1.04,1.08,1.04.01,0,.03,0,.04,0,.6-.02,1.06-.52,1.04-1.12,0,0-.02-.48-.04-1.11.58,0,1.23,0,1.96-.01,0,.08,0,.15,0,.18v1.2c0,.6.48,1.08,1.08,1.08s1.08-.48,1.08-1.08v-1.2s0-.09,0-.18c.68,0,1.38,0,2.09,0,.02.5.03.94.04,1.2.02.58.5,1.04,1.08,1.04.01,0,.03,0,.04,0,.6-.02,1.06-.52,1.04-1.12,0,0-.02-.49-.04-1.12.8,0,1.6,0,2.38,0,0,.08,0,.14,0,.17v1.2c0,.6.48,1.08,1.08,1.08s1.08-.48,1.08-1.08v-1.2s0-.08,0-.16c.54,0,1.05,0,1.53,0,.02.49.03.92.04,1.18.02.58.5,1.04,1.08,1.04.01,0,.03,0,.04,0,.6-.02,1.06-.52,1.04-1.12,0,0-.02-.47-.04-1.09h1.63c1.17,0,1.17.26,1.17.43,0,.32.05,1.75.11,3.36-.32-.09-.67-.16-1.1-.16-1.7,0-21.91-.11-22.12-.11h0s-.11,0-.22,0c-.05-1.49-.08-2.75-.06-3Zm23.61,19.58c-.41.41-1.19.56-1.79.56h-.49c-9.49.06-15.97.02-18.25-.11-1.12-.06-1.92-.35-2.32-.84-.38-.46-.36-1.04-.33-1.26.06-.47-.04-3.99-.11-6.05h0c0-.06-.23-5.13-.17-6.43,0-.21.05-.28.06-.28h0s20.47.12,22.18.12c.71,0,.95.28,1.08.52.07.13.11.26.13.38.05,1.33.1,2.38.1,2.51.07,2.92.19,8.04.23,9.87,0,.45-.1.78-.33,1.02Z" style="fill:#222;"/><path d="m29.98,25.84c-1.44,0-1.44.12-2.88.12-.17,0-.1-.3-.15-.47q-.44-1.37-.89-2.74c-.12-.37-.64-.22-.76.15-.45,1.37-.77,1.26-1.22,2.63-.05.17-.11.41-.28.41-1.44,0-1.44-.06-2.88-.06-.39,0-.44.3-.12.53,1.17.85,1.12.91,2.29,1.75.14.1.09.36.03.53-.44,1.37-.62,1.31-1.07,2.68-.12.37.53.75.84.52,1.16-.85,1.12-.91,2.28-1.76.14-.1.24.16.38.27,1.16.85,1.21.78,2.38,1.63.32.23.81-.2.69-.57-.45-1.37-.39-1.39-.83-2.76-.05-.17-.15-.51,0-.61,1.17-.85,1.41-.51,2.57-1.36.32-.23.03-.9-.36-.9Z" style="fill:#222;"/></g></svg>
