<?xml version="1.0" encoding="UTF-8"?><svg id="Layer_2" xmlns="http://www.w3.org/2000/svg" viewBox="0 0 49.86 49.86"><g id="diseño"><path d="m9.83,30.91s.17,5.43.11,5.89-.29,3.09,3.66,3.31c3.94.23,8.46.11,8.91.11s3.26-.06,3.2-2.69-.29-12-.29-12c0,0,.06-2.34-2.34-2.34-1.71,0-12.29-.11-12.29-.11,0,0-1.09-.06-1.14,1.31s.17,6.51.17,6.51Z" style="fill:#f8eee0;"/><path d="m24.93,0C11.18,0,0,11.18,0,24.93s11.18,24.93,24.93,24.93,24.93-11.18,24.93-24.93S38.68,0,24.93,0Zm0,47.7c-12.55,0-22.77-10.21-22.77-22.77S12.38,2.16,24.93,2.16s22.77,10.21,22.77,22.77-10.21,22.77-22.77,22.77Z" style="fill:#222;"/><circle cx="14.79" cy="29.01" r="1.34" style="fill:#222;"/><path d="m20.51,27.66c-.74,0-1.34.6-1.34,1.34s.6,1.34,1.34,1.34,1.34-.6,1.34-1.34-.6-1.34-1.34-1.34Z" style="fill:#222;"/><path d="m14.79,33.84c-.74,0-1.34.6-1.34,1.34s.6,1.34,1.34,1.34,1.34-.6,1.34-1.34-.6-1.34-1.34-1.34Z" style="fill:#222;"/><path d="m20.51,33.84c-.74,0-1.34.6-1.34,1.34s.6,1.34,1.34,1.34,1.34-.6,1.34-1.34-.6-1.34-1.34-1.34Z" style="fill:#222;"/><path d="m39.22,34.5c.01-.07.04-.13.04-.19,0-4-1.88-5.66-3.12-6.76-.33-.29-.61-.54-.81-.78-.54-.67-1-3.67-1.12-6.12h.46c1.59,0,2.88-1.29,2.88-2.88s-1.29-2.88-2.88-2.88h-.68c.66-.82,1.07-1.85,1.07-2.99,0-2.65-2.16-4.81-4.81-4.81s-4.81,2.16-4.81,4.81c0,1.14.41,2.17,1.07,2.99h-.59c-1.59,0-2.88,1.29-2.88,2.88s1.29,2.88,2.88,2.88h.01c-.03.77-.1,1.69-.2,2.63-.06-.07-.11-.14-.17-.21-.42-.43-1.19-.95-2.46-.95-1.7,0-12.15-.11-12.23-.11-.15-.01-.89-.02-1.52.56-.32.29-.72.85-.76,1.79-.06,1.39.16,6.31.17,6.6.08,2.54.15,5.37.12,5.71-.06.51-.11,1.81.81,2.92.81.97,2.1,1.51,3.85,1.61,2,.12,4.14.14,5.83.14,1.23,0,2.23-.02,2.77-.02h.38c.59,0,1.97-.11,3.03-.95.73.01,9.4.17,11.86.17,1.69,0,2.9-1.31,2.95-3.19.03-1.22-.42-2.26-1.13-2.84Zm-8.97-25.26c1.46,0,2.65,1.19,2.65,2.65s-1.19,2.65-2.65,2.65-2.65-1.19-2.65-2.65,1.19-2.65,2.65-2.65Zm-5.05,8.52c0-.4.32-.72.72-.72h8.74c.4,0,.72.32.72.72s-.32.72-.72.72h-8.74c-.4,0-.72-.32-.72-.72Zm6.84,2.88c.06,1.37.37,5.96,1.61,7.49.31.38.67.7,1.06,1.04,1.13,1,2.28,2.04,2.37,4.8-2.45-.04-8.15,0-10.36.01-.04-1.85-.09-3.96-.14-5.61.12-.1.23-.21.3-.36.9-1.81,1.16-6.04,1.21-7.37h3.94Zm-9.52,18.49h-.41c-1.25.02-5.07.08-8.44-.11-1.11-.06-1.92-.35-2.32-.84-.38-.46-.36-1.04-.33-1.26.06-.47-.04-4-.11-6.06h0c0-.06-.23-5.13-.17-6.44,0-.19.05-.27.05-.28.09,0,10.59.11,12.3.11.71,0,.95.28,1.08.52.18.34.18.72.18.77,0,0,.23,9.37.29,12,0,.45-.1.78-.33,1.02-.4.41-1.19.56-1.79.56Zm15.62-1.44c-.16.67-.55.67-.73.67-1.98,0-8.03-.1-10.65-.15.03-.23.05-.46.05-.71,0-.35-.02-.82-.03-1.36,2.57-.02,9.72-.06,11.07,0,.17.09.48.8.29,1.55Z" style="fill:#222;"/></g></svg>