<?xml version="1.0" encoding="UTF-8"?><svg id="Layer_2" xmlns="http://www.w3.org/2000/svg" viewBox="0 0 49.86 49.86"><g id="diseño"><path d="m7.83,23.21s.95,7.88,5.29,12.86,10.78,4.81,10.78,4.81c0,0,.28-8.53-4.55-11.85-4.83-3.32-11.52-5.82-11.52-5.82Z" style="fill:#f8eee0;"/><path d="m41.36,23.21s-.95,7.88-5.29,12.86c-4.34,4.98-10.78,4.81-10.78,4.81,0,0-.28-8.53,4.55-11.85,4.83-3.32,11.52-5.82,11.52-5.82Z" style="fill:#f8eee0;"/><path d="m24.93,0C11.18,0,0,11.18,0,24.93s11.18,24.93,24.93,24.93,24.93-11.18,24.93-24.93S38.68,0,24.93,0Zm0,47.7c-12.55,0-22.77-10.21-22.77-22.77S12.38,2.16,24.93,2.16s22.77,10.21,22.77,22.77-10.21,22.77-22.77,22.77Z" style="fill:#222;"/><path d="m23.81,26.08c.39.02.39-1.25.41-1.62.01-.19-.08-.74-.17-1.35-.09-.58-.2-1.21-.24-1.62-.07-.83-.09-4.09,0-4.97.09-.88.46-4.92.41-5.47-.04-.35-.21-.55-.33-.64-.07-.05-.12-.08-.12-.08,0,0-.41.13-.99.47-1.25.72-3.29,2.4-3.82,5.78-.41,2.64-.27,4.7.29,6.21.78,2.11,2.4,3.18,4.56,3.29Z" style="fill:#222;"/><path d="m25.98,24.46c-.21.99,0,1.62,0,1.62,2.25,0,3.9-1.17,4.65-3.47.49-1.52.6-3.52.21-6.03-.54-3.48-2.69-5.15-3.93-5.84-.3-.12-.56-.1-.74.14-.29.4-.26,1.04-.15,1.45l-.04-.04c.23,1.01.4,3.53.43,4.77.03,1.07-.12,4.24-.28,6.13-.05.58-.1,1.04-.15,1.28Z" style="fill:#222;"/><path d="m42.03,22.36c-.3-.23-.7-.3-1.05-.16-.28.1-6.87,2.58-11.76,5.94-2.87,1.97-4.1,5.47-4.63,8.31-.53-2.84-1.76-6.35-4.63-8.31-4.89-3.36-11.48-5.83-11.76-5.94-.35-.13-.75-.07-1.05.16-.3.23-.45.61-.41.98.04.34,1.04,8.27,5.55,13.44,4.34,4.98,10.53,5.18,11.51,5.18.06,0,.1,0,.12,0,.25,0,.47-.11.65-.26.01.01.03.03.04.03.04.03.09.05.14.08.04.02.08.05.13.07.1.04.2.06.3.07.02,0,.04.01.06.01,0,0,.02,0,.02,0,0,0,0,0,0,0,0,0,0,0,0,0,.02,0,.04,0,.09,0,.98,0,7.17-.2,11.51-5.18,4.51-5.17,5.51-13.11,5.55-13.44.04-.37-.11-.75-.41-.98Zm-28.09,13c-2.82-3.24-4.15-7.87-4.7-10.42,2.29.96,6.33,2.8,9.5,4.98,2.39,1.64,3.38,4.83,3.79,7.34-.69-.59-1.32-1.15-1.69-1.56-1.26-1.37-4.56-5.09-4.6-5.13-.4-.45-1.08-.49-1.53-.09-.45.4-.49,1.08-.09,1.53.14.15,3.35,3.78,4.62,5.16.59.64,1.69,1.59,2.73,2.46-2.09-.34-5.49-1.33-8.05-4.27Zm21.32,0c-2.13,2.45-4.86,3.54-6.91,4.04.88-.85,1.76-1.65,2.21-1.98,1.32-.96,3.09-3.85,3.29-4.17.31-.51.15-1.18-.36-1.49-.51-.31-1.17-.15-1.49.36-.66,1.09-1.98,3.02-2.71,3.55-.62.45-1.74,1.5-2.75,2.47.32-2.59,1.24-6.38,3.92-8.22,3.17-2.18,7.21-4.01,9.5-4.98-.55,2.55-1.87,7.18-4.7,10.42Z" style="fill:#222;"/></g></svg>