<?xml version="1.0" encoding="UTF-8"?><svg id="Layer_2" xmlns="https://www.w3.org/2000/svg" viewBox="0 0 49.86 49.86"><g id="diseño"><circle cx="24.93" cy="36.49" r="3.33" style="fill:#f8eee0;"/><path d="m24.93,0C11.18,0,0,11.18,0,24.93s11.18,24.93,24.93,24.93,24.93-11.18,24.93-24.93S38.68,0,24.93,0Zm0,47.7c-12.55,0-22.77-10.21-22.77-22.77S12.38,2.16,24.93,2.16s22.77,10.21,22.77,22.77-10.21,22.77-22.77,22.77Z" style="fill:#222;"/><path d="m24.93,32.08c-2.43,0-4.41,1.98-4.41,4.41s1.98,4.41,4.41,4.41,4.41-1.98,4.41-4.41-1.98-4.41-4.41-4.41Zm0,6.66c-1.24,0-2.25-1.01-2.25-2.25s1.01-2.25,2.25-2.25,2.25,1.01,2.25,2.25-1.01,2.25-2.25,2.25Z" style="fill:#222;"/><path d="m24.93,26.68c-5.49,0-7.69,2.69-7.78,2.8-.37.46-.29,1.13.17,1.51.2.16.44.24.68.24.31,0,.62-.13.84-.39.07-.08,1.73-2,6.1-2s6.01,1.89,6.1,2c.21.26.52.4.84.4.24,0,.47-.08.67-.24.47-.37.54-1.05.17-1.52-.09-.11-2.3-2.8-7.78-2.8Z" style="fill:#222;"/><path d="m24.93,19.86c-7.86,0-12.05,4.23-12.22,4.41-.41.43-.4,1.11.02,1.53.21.2.48.31.75.31s.56-.11.77-.32c.04-.04,3.77-3.75,10.67-3.75s10.62,3.71,10.67,3.75c.21.22.49.33.77.33s.54-.1.75-.3c.43-.42.44-1.1.03-1.53-.17-.18-4.36-4.41-12.22-4.41Z" style="fill:#222;"/><path d="m41.2,18.53c-.22-.25-5.52-6.14-16.27-6.14s-16.05,5.89-16.27,6.14c-.39.45-.35,1.13.1,1.53.21.18.46.27.71.27.3,0,.6-.12.81-.37.05-.05,4.87-5.41,14.64-5.41s14.58,5.34,14.64,5.41c.21.24.51.37.81.37.25,0,.51-.09.71-.27.45-.39.49-1.08.1-1.53Z" style="fill:#222;"/></g></svg>
