<?xml version="1.0" encoding="UTF-8"?><svg id="Layer_2" xmlns="http://www.w3.org/2000/svg" viewBox="0 0 61.07 78.47"><g id="diseño"><path d="m42.05,59.59c.2-.09.43-.14.66-.14h.02l6,.06.17-13.68v-6.45s-8.55-.24-8.55-.24v9.42l.14,10.68c0,.12-.02.23-.04.34h1.6Z" style="fill:#f2dab2;"/><path d="m18.04,38.76c-.11-.02-.22-.04-.32-.09h-7.83c.03,2.65.08,7.71.08,9.61v11.25l7.96-.08c0-.07-.03-.13-.03-.21l.14-10.7v-9.79Z" style="fill:#f2dab2;"/><path d="m56.59,69.65s0,0,0,0c0,0,0,0,0,0-3.25-.14-6.99-.23-7.61-.15-1.15.14-15.19.27-18.35.29,0,0,0,0-.01,0h-.01s-.04,0-.06,0c-.02,0-.04,0-.06,0h-.01s0,0-.01,0c-3.16-.03-17.21-.15-18.35-.29-.62-.08-4.36.02-7.61.15,0,0,0,0,0,0,0,0,0,0,0,0l-1.17.04v5.47c5.44-.04,22.3-.14,26.68-.17.02,0,.04,0,.06,0,.04,0,.22,0,.49,0,.28,0,.45,0,.49,0,.02,0,.04,0,.06,0,4.38.03,21.25.14,26.68.17v-5.47l-1.17-.04Z" style="fill:#f2dab2;"/><polygon points="36.58 59.59 29.2 53.76 21.81 59.59 36.58 59.59" style="fill:#f2dab2;"/><path d="m7.97,62.85l-1.9.02v3.41c2.18-.08,5.55-.17,6.44-.06.9.1,11.5.21,18.03.27,6.53-.05,17.12-.17,18.03-.27.88-.11,4.25-.01,6.43.06v-3.41l-4.22-.04c-.13.04-.27.06-.42.06H8.31c-.12,0-.23-.01-.34-.04Z" style="fill:#f2dab2;"/><path d="m8.2,35.38s.01,0,.02,0h5.5c-1.3-1.12-2.55-2.22-3.01-2.67-1.02-1.02-3.24-3.65-3.33-3.76-.06-.07-.1-.14-.15-.21-1.42-.01-2.61-.02-3.49-.03l-.28,6.78,4.72-.1s0,0,.01,0Z" style="fill:#f2dab2;"/><path d="m18.8,35.37h4.54l23.3.64s.06,0,.09,0c.01,0,.03,0,.04,0l10.6.24.19-7.41c-3.82.06-12.68.19-13.58.19-.79,0-20.29-.17-32.4-.27.55.62,1.1,1.24,1.47,1.61.68.68,3.95,3.48,5.75,5.01Z" style="fill:#f2dab2;"/><path d="m28.16,39.94c0-.15,0-.27,0-.33-.03-.27-.16-.42-.25-.5-.05-.04-.09-.06-.09-.06,0,0-.32.1-.77.36-.23.13-.49.31-.76.53-.88.72-1.88,1.94-2.19,3.94-.32,2.04-.21,3.63.22,4.8.52,1.41,1.53,2.22,2.87,2.46.21.04.43.07.65.08.2.01.27-.45.29-.83.01-.18.02-.34.02-.43,0-.15-.06-.57-.14-1.04-.07-.45-.15-.94-.18-1.25-.06-.64-.07-3.16,0-3.84.06-.59.28-2.96.31-3.89Z" style="fill:#f2dab2;"/><path d="m30.47,49.97c-.04.2-.06.38-.07.54-.02.44.07.71.07.71.26,0,.51-.03.75-.07,1.35-.23,2.35-1.1,2.85-2.62.38-1.17.46-2.72.16-4.66-.31-2-1.31-3.22-2.19-3.94-.31-.25-.6-.44-.85-.57-.23-.09-.43-.08-.57.11-.1.13-.14.3-.16.47-.03.23,0,.47.05.65l-.03-.03c.18.78.31,2.73.34,3.68.02.83-.09,3.28-.22,4.73-.04.45-.08.81-.12.99Z" style="fill:#f2dab2;"/><path d="m59.47,66.44l-1.17-.04v-5.16c0-.9-.73-1.64-1.63-1.65l-4.63-.05.17-13.7v-6.41l6.74.15s.03,0,.04,0c.89,0,1.62-.71,1.65-1.61l.28-10.77c.01-.45-.16-.88-.48-1.2-.32-.32-.77-.53-1.2-.49-.14,0-14.15.21-15.25.21-.21,0-1.79-.01-4.22-.03,3.5-1.84,4.99-5.04,4.76-5.29-.39-.42-5.77-.44-10.06-.39v-7.5c0-.87-.67-1.59-1.54-1.65-.04,0-.71-.05-1.42-.07.65-.55.85-1.34.89-1.9.06-.79.12-1.9-.23-3.41s-1.35-2.76-1.46-4.07c0,0-.88-1.14-1.07-1.4-.2-.26-1.45,1.49-1.8,2.8-.35,1.31-1.29,2.8-1.29,2.8-.06,1.18-.76,2.56.7,4.01.52.51.88.92,1.21,1.22-1.12.05-2.26.11-2.47.12-.88.04-1.57.77-1.57,1.65,0,.12,0,2.89.1,4.25.05.76.07,2.17.08,3.15-4.22-.05-9.32-.02-9.7.39-.22.24,1.17,3.25,4.45,5.11-8.96-.08-16.98-.15-17.16-.15h-.01c-.88,0-1.61.7-1.65,1.58l-.42,10.14c-.02.46.15.9.47,1.22.31.32.74.5,1.18.5.01,0,.02,0,.04,0l4.81-.1c.03,2.64.08,7.68.08,9.58v11.28l-2.26.02c-.91,0-1.63.75-1.63,1.65v5.16l-1.17.04c-.89.03-1.59.76-1.59,1.65v8.73c0,.44.18.86.49,1.17.31.31.73.48,1.16.48h.01c.27,0,25.06-.16,28.87-.19,3.82.02,28.6.18,28.87.19h.01c.44,0,.85-.17,1.16-.48.31-.31.49-.73.49-1.17v-8.73c0-.89-.71-1.62-1.59-1.65ZM27.79,16.64c-.04-.62-.07-1.6-.08-2.44,1.13-.05,2.42-.11,2.84-.11.18,0,.39,0,.6.01v5.98c-.61.01-1.11.03-1.46.03-.41-.01-1.05-.03-1.82-.04,0-1.03-.03-2.57-.09-3.44ZM3.75,28.69c.87,0,2.07.02,3.49.03.04.07.09.15.15.21.09.11,2.31,2.74,3.33,3.76.45.45,1.71,1.55,3.01,2.67h-5.5s-.01,0-.02,0c0,0,0,0-.01,0l-4.72.1.28-6.78Zm40.23.34c.9,0,9.76-.13,13.58-.19l-.19,7.41-10.6-.24s-.03,0-.04,0c-.03,0-.06,0-.09,0l-23.3-.64h-4.54c-1.8-1.53-5.07-4.33-5.75-5.01-.36-.36-.92-.98-1.47-1.61,12.11.1,31.61.27,32.4.27Zm-1.25,30.42h-.02c-.24,0-.46.05-.66.14h-1.6c.02-.11.05-.23.04-.34l-.14-10.68v-9.42l8.55.24v6.45s-.17,13.68-.17,13.68l-6-.06Zm-18.41-10.77c-.44-1.17-.54-2.76-.22-4.8.31-2,1.31-3.22,2.19-3.94.27-.22.53-.4.76-.53.45-.26.77-.36.77-.36,0,0,.04.02.09.06.09.07.23.22.25.5,0,.06,0,.18,0,.33-.03.93-.25,3.31-.31,3.89-.07.68-.06,3.2,0,3.84.03.31.11.8.18,1.25.08.47.14.9.14,1.04,0,.09-.01.25-.02.43-.03.38-.09.84-.29.83-.23-.01-.44-.04-.65-.08-1.34-.25-2.35-1.05-2.87-2.46Zm6.49-4.43c-.03-.96-.16-2.91-.34-3.68l.03.03c-.05-.18-.07-.42-.05-.65.02-.17.06-.34.16-.47.14-.18.34-.19.57-.11.25.14.54.33.85.57.88.72,1.88,1.94,2.19,3.94.3,1.94.22,3.49-.16,4.66-.49,1.51-1.49,2.39-2.85,2.62-.24.04-.49.07-.75.07,0,0-.09-.27-.07-.71,0-.16.03-.34.07-.54.04-.18.08-.54.12-.99.13-1.46.24-3.91.22-4.73Zm-1.61,9.52l7.39,5.83h-14.77l7.39-5.83Zm-19.31-15.09h7.83c.11.04.21.06.32.09v9.79s-.14,10.7-.14,10.7c0,.07.02.14.03.21l-7.96.08v-11.25c0-1.91-.05-6.96-.08-9.61Zm-1.57,24.21h42.05c.14,0,.28-.02.42-.06l4.22.04v3.41c-2.18-.08-5.55-.17-6.43-.06-.91.1-11.51.21-18.03.27-6.53-.05-17.13-.17-18.03-.27-.88-.11-4.26-.01-6.44.06v-3.41l1.9-.02c.11.02.22.04.34.04Zm-3.83,6.75c3.25-.13,6.99-.23,7.61-.15,1.15.14,15.19.27,18.35.29,0,0,0,0,.01,0h.01s.04,0,.06,0c.02,0,.04,0,.06,0h.01s0,0,.01,0c3.16-.03,17.21-.15,18.35-.29.62-.08,4.36.02,7.61.15,0,0,0,0,0,0,0,0,0,0,0,0l1.17.04v5.47c-5.44-.04-22.3-.14-26.68-.17-.02,0-.04,0-.06,0-.04,0-.22,0-.49,0-.28,0-.45,0-.49,0-.02,0-.04,0-.06,0-4.38.03-21.25.14-26.68.17v-5.47l1.17-.04s0,0,0,0c0,0,0,0,0,0Z" style="fill:#222;"/></g></svg>